G75*
%MOIN*%
%OFA0B0*%
%FSLAX24Y24*%
%IPPOS*%
%LPD*%
%AMOC8*
5,1,8,0,0,1.08239X$1,22.5*
%
%ADD10C,0.0060*%
%ADD11C,0.0700*%
%ADD12C,0.0654*%
%ADD13C,0.0620*%
%ADD14C,0.1004*%
%ADD15OC8,0.0630*%
D10*
X018709Y001054D02*
X018709Y001374D01*
X018816Y001481D01*
X019030Y001481D01*
X019136Y001374D01*
X019136Y001054D01*
X019350Y001054D02*
X018709Y001054D01*
X018923Y001698D02*
X018709Y001912D01*
X018923Y002125D01*
X019350Y002125D01*
X019243Y002343D02*
X019350Y002449D01*
X019350Y002663D01*
X019243Y002770D01*
X019136Y002770D01*
X019030Y002663D01*
X019030Y002449D01*
X018923Y002343D01*
X018816Y002343D01*
X018709Y002449D01*
X018709Y002663D01*
X018816Y002770D01*
X018816Y002987D02*
X018709Y003094D01*
X018709Y003308D01*
X018816Y003414D01*
X019030Y003308D02*
X019136Y003414D01*
X019243Y003414D01*
X019350Y003308D01*
X019350Y003094D01*
X019243Y002987D01*
X019030Y003094D02*
X019030Y003308D01*
X019030Y003094D02*
X018923Y002987D01*
X018816Y002987D01*
X019457Y003632D02*
X019457Y004059D01*
X019243Y004276D02*
X019350Y004383D01*
X019350Y004597D01*
X019243Y004703D01*
X018816Y004703D01*
X018709Y004597D01*
X018709Y004383D01*
X018816Y004276D01*
X019243Y004276D01*
X019243Y004921D02*
X018709Y004921D01*
X018709Y005348D02*
X019243Y005348D01*
X019350Y005241D01*
X019350Y005028D01*
X019243Y004921D01*
X018709Y005565D02*
X018709Y005992D01*
X018709Y005779D02*
X019350Y005779D01*
X019030Y002125D02*
X019030Y001698D01*
X018923Y001698D02*
X019350Y001698D01*
X019350Y013198D02*
X018923Y013198D01*
X018709Y013412D01*
X018923Y013625D01*
X019350Y013625D01*
X019243Y013843D02*
X019350Y013949D01*
X019350Y014163D01*
X019243Y014270D01*
X018816Y014270D02*
X018709Y014163D01*
X018709Y013949D01*
X018816Y013843D01*
X019243Y013843D01*
X019030Y013625D02*
X019030Y013198D01*
X018709Y014487D02*
X018709Y014914D01*
X018709Y014701D02*
X019350Y014701D01*
X019457Y015132D02*
X019457Y015559D01*
X019243Y015776D02*
X019350Y015883D01*
X019350Y016097D01*
X019243Y016203D01*
X018816Y016203D01*
X018709Y016097D01*
X018709Y015883D01*
X018816Y015776D01*
X019243Y015776D01*
X019243Y016421D02*
X018709Y016421D01*
X018709Y016848D02*
X019243Y016848D01*
X019350Y016741D01*
X019350Y016528D01*
X019243Y016421D01*
X018709Y017065D02*
X018709Y017492D01*
X018709Y017279D02*
X019350Y017279D01*
X015224Y017710D02*
X014991Y017710D01*
X015108Y017710D02*
X015108Y018411D01*
X015224Y018411D02*
X014991Y018411D01*
X014758Y018411D02*
X014291Y017944D01*
X014408Y018060D02*
X014758Y017710D01*
X014291Y017710D02*
X014291Y018411D01*
X014058Y018411D02*
X014058Y017710D01*
X013825Y018177D02*
X014058Y018411D01*
X013825Y018177D02*
X013591Y018411D01*
X013591Y017710D01*
X012659Y017710D02*
X012659Y018177D01*
X012425Y018411D01*
X012192Y018177D01*
X012192Y017710D01*
X011842Y017944D02*
X011492Y017944D01*
X011492Y017710D02*
X011492Y018411D01*
X011842Y018411D01*
X011959Y018294D01*
X011959Y018060D01*
X011842Y017944D01*
X012192Y018060D02*
X012659Y018060D01*
X011259Y018060D02*
X010792Y018060D01*
X010792Y018177D02*
X011026Y018411D01*
X011259Y018177D01*
X011259Y017710D01*
X010792Y017710D02*
X010792Y018177D01*
X009859Y018177D02*
X009743Y018177D01*
X009509Y017944D01*
X009276Y017944D02*
X009276Y018060D01*
X009160Y018177D01*
X008926Y018177D01*
X008809Y018060D01*
X008809Y017827D01*
X008926Y017710D01*
X009160Y017710D01*
X009276Y017944D02*
X008809Y017944D01*
X008576Y018177D02*
X008343Y018177D01*
X008460Y018294D02*
X008460Y017827D01*
X008576Y017710D01*
X008110Y017710D02*
X007876Y017710D01*
X007993Y017710D02*
X007993Y018411D01*
X007876Y018411D01*
X007527Y018411D02*
X007527Y018527D01*
X007177Y018411D02*
X006710Y018411D01*
X006710Y017710D01*
X006710Y018060D02*
X006944Y018060D01*
X007410Y018177D02*
X007527Y018177D01*
X007527Y017710D01*
X007643Y017710D02*
X007410Y017710D01*
X009509Y017710D02*
X009509Y018177D01*
D11*
X009530Y015680D02*
X008830Y015680D01*
X008830Y014680D02*
X009530Y014680D01*
X009530Y013680D02*
X008830Y013680D01*
X012330Y013680D02*
X013030Y013680D01*
X013030Y014680D02*
X012330Y014680D01*
X012330Y015680D02*
X013030Y015680D01*
D12*
X011680Y003574D03*
X011680Y002786D03*
X008180Y002786D03*
X008180Y003574D03*
D13*
X009680Y008680D03*
X010680Y008680D03*
X011680Y008680D03*
X012680Y008680D03*
X012680Y011680D03*
X011680Y011680D03*
X010680Y011680D03*
X009680Y011680D03*
D14*
X003682Y002400D02*
X002678Y002400D01*
X002678Y003960D02*
X003682Y003960D01*
X003682Y006900D02*
X002678Y006900D01*
X002678Y008460D02*
X003682Y008460D01*
X003682Y011400D02*
X002678Y011400D01*
X002678Y012960D02*
X003682Y012960D01*
X003682Y015900D02*
X002678Y015900D01*
X002678Y017460D02*
X003682Y017460D01*
X016178Y017460D02*
X017182Y017460D01*
X017182Y015900D02*
X016178Y015900D01*
X016178Y003960D02*
X017182Y003960D01*
X017182Y002400D02*
X016178Y002400D01*
D15*
X006180Y006680D03*
X006180Y008680D03*
X006180Y011180D03*
X006180Y013180D03*
M02*
