G75*
%MOIN*%
%OFA0B0*%
%FSLAX24Y24*%
%IPPOS*%
%LPD*%
%AMOC8*
5,1,8,0,0,1.08239X$1,22.5*
%
%ADD10C,0.0780*%
%ADD11C,0.0734*%
%ADD12C,0.0700*%
%ADD13C,0.1084*%
%ADD14OC8,0.0710*%
D10*
X008830Y013680D02*
X009530Y013680D01*
X009530Y014680D02*
X008830Y014680D01*
X008830Y015680D02*
X009530Y015680D01*
X012330Y015680D02*
X013030Y015680D01*
X013030Y014680D02*
X012330Y014680D01*
X012330Y013680D02*
X013030Y013680D01*
D11*
X011680Y003574D03*
X011680Y002786D03*
X008180Y002786D03*
X008180Y003574D03*
D12*
X009680Y008680D03*
X010680Y008680D03*
X011680Y008680D03*
X012680Y008680D03*
X012680Y011680D03*
X011680Y011680D03*
X010680Y011680D03*
X009680Y011680D03*
D13*
X003682Y002400D02*
X002678Y002400D01*
X002678Y003960D02*
X003682Y003960D01*
X003682Y006900D02*
X002678Y006900D01*
X002678Y008460D02*
X003682Y008460D01*
X003682Y011400D02*
X002678Y011400D01*
X002678Y012960D02*
X003682Y012960D01*
X003682Y015900D02*
X002678Y015900D01*
X002678Y017460D02*
X003682Y017460D01*
X016178Y017460D02*
X017182Y017460D01*
X017182Y015900D02*
X016178Y015900D01*
X016178Y003960D02*
X017182Y003960D01*
X017182Y002400D02*
X016178Y002400D01*
D14*
X006180Y006680D03*
X006180Y008680D03*
X006180Y011180D03*
X006180Y013180D03*
M02*
