G75*
%MOIN*%
%OFA0B0*%
%FSLAX24Y24*%
%IPPOS*%
%LPD*%
%AMOC8*
5,1,8,0,0,1.08239X$1,22.5*
%
%ADD10C,0.0000*%
%ADD11C,0.0060*%
%ADD12C,0.0050*%
%ADD13C,0.0080*%
%ADD14C,0.0010*%
%ADD15C,0.0040*%
%ADD16C,0.0120*%
D10*
X000180Y000180D02*
X000180Y019176D01*
X020050Y019176D01*
X020050Y000180D01*
X000180Y000180D01*
D11*
X005680Y006230D02*
X006680Y006230D01*
X006697Y006232D01*
X006714Y006236D01*
X006730Y006243D01*
X006744Y006253D01*
X006757Y006266D01*
X006767Y006280D01*
X006774Y006296D01*
X006778Y006313D01*
X006780Y006330D01*
X006780Y009030D01*
X006778Y009047D01*
X006774Y009064D01*
X006767Y009080D01*
X006757Y009094D01*
X006744Y009107D01*
X006730Y009117D01*
X006714Y009124D01*
X006697Y009128D01*
X006680Y009130D01*
X005680Y009130D01*
X005663Y009128D01*
X005646Y009124D01*
X005630Y009117D01*
X005616Y009107D01*
X005603Y009094D01*
X005593Y009080D01*
X005586Y009064D01*
X005582Y009047D01*
X005580Y009030D01*
X005580Y006330D01*
X005582Y006313D01*
X005586Y006296D01*
X005593Y006280D01*
X005603Y006266D01*
X005616Y006253D01*
X005630Y006243D01*
X005646Y006236D01*
X005663Y006232D01*
X005680Y006230D01*
X006180Y007080D02*
X006180Y007560D01*
X006180Y007810D02*
X006180Y008280D01*
X005680Y010730D02*
X006680Y010730D01*
X006697Y010732D01*
X006714Y010736D01*
X006730Y010743D01*
X006744Y010753D01*
X006757Y010766D01*
X006767Y010780D01*
X006774Y010796D01*
X006778Y010813D01*
X006780Y010830D01*
X006780Y013530D01*
X006778Y013547D01*
X006774Y013564D01*
X006767Y013580D01*
X006757Y013594D01*
X006744Y013607D01*
X006730Y013617D01*
X006714Y013624D01*
X006697Y013628D01*
X006680Y013630D01*
X005680Y013630D01*
X005663Y013628D01*
X005646Y013624D01*
X005630Y013617D01*
X005616Y013607D01*
X005603Y013594D01*
X005593Y013580D01*
X005586Y013564D01*
X005582Y013547D01*
X005580Y013530D01*
X005580Y010830D01*
X005582Y010813D01*
X005586Y010796D01*
X005593Y010780D01*
X005603Y010766D01*
X005616Y010753D01*
X005630Y010743D01*
X005646Y010736D01*
X005663Y010732D01*
X005680Y010730D01*
X006180Y011580D02*
X006180Y012060D01*
X006180Y012310D02*
X006180Y012780D01*
X008680Y013430D02*
X008930Y013180D01*
X009430Y013180D01*
X009680Y013430D01*
X009680Y013930D01*
X009430Y014180D01*
X009680Y014430D01*
X009680Y014930D01*
X009430Y015180D01*
X009680Y015430D01*
X009680Y015930D01*
X009430Y016180D01*
X008930Y016180D01*
X008680Y015930D01*
X008680Y015430D01*
X008930Y015180D01*
X008680Y014930D01*
X008680Y014430D01*
X008930Y014180D01*
X008680Y013930D01*
X008680Y013430D01*
X009180Y011330D02*
X009180Y009030D01*
X013180Y009030D01*
X013180Y009780D01*
X013141Y009782D01*
X013102Y009788D01*
X013064Y009797D01*
X013027Y009810D01*
X012991Y009827D01*
X012958Y009847D01*
X012926Y009871D01*
X012897Y009897D01*
X012871Y009926D01*
X012847Y009958D01*
X012827Y009991D01*
X012810Y010027D01*
X012797Y010064D01*
X012788Y010102D01*
X012782Y010141D01*
X012780Y010180D01*
X012782Y010219D01*
X012788Y010258D01*
X012797Y010296D01*
X012810Y010333D01*
X012827Y010369D01*
X012847Y010402D01*
X012871Y010434D01*
X012897Y010463D01*
X012926Y010489D01*
X012958Y010513D01*
X012991Y010533D01*
X013027Y010550D01*
X013064Y010563D01*
X013102Y010572D01*
X013141Y010578D01*
X013180Y010580D01*
X013180Y011330D01*
X009180Y011330D01*
X012180Y013430D02*
X012430Y013180D01*
X012930Y013180D01*
X013180Y013430D01*
X013180Y013930D01*
X012930Y014180D01*
X013180Y014430D01*
X013180Y014930D01*
X012930Y015180D01*
X013180Y015430D01*
X013180Y015930D01*
X012930Y016180D01*
X012430Y016180D01*
X012180Y015930D01*
X012180Y015430D01*
X012430Y015180D01*
X012180Y014930D01*
X012180Y014430D01*
X012430Y014180D01*
X012180Y013930D01*
X012180Y013430D01*
D12*
X012005Y013430D02*
X012005Y013280D01*
X011930Y013205D01*
X011780Y013280D02*
X011780Y013430D01*
X011855Y013505D01*
X011930Y013505D01*
X012005Y013430D01*
X011780Y013280D02*
X011705Y013205D01*
X011630Y013205D01*
X011555Y013280D01*
X011555Y013430D01*
X011630Y013505D01*
X011555Y013665D02*
X011855Y013665D01*
X012005Y013816D01*
X011855Y013966D01*
X011555Y013966D01*
X011705Y014126D02*
X011555Y014276D01*
X012005Y014276D01*
X012005Y014126D02*
X012005Y014426D01*
X012905Y013005D02*
X012905Y012705D01*
X012905Y012855D02*
X012455Y012855D01*
X012605Y012705D01*
X013305Y011045D02*
X013755Y011045D01*
X013755Y010895D02*
X013755Y011195D01*
X013455Y010895D02*
X013305Y011045D01*
X013380Y010734D02*
X013305Y010659D01*
X013305Y010509D01*
X013380Y010434D01*
X013680Y010434D01*
X013755Y010509D01*
X013755Y010659D01*
X013680Y010734D01*
X013755Y010277D02*
X013755Y010127D01*
X013755Y010202D02*
X013305Y010202D01*
X013305Y010127D02*
X013305Y010277D01*
X009405Y012705D02*
X009405Y013005D01*
X009405Y012855D02*
X008955Y012855D01*
X009105Y012705D01*
X008505Y013280D02*
X008430Y013205D01*
X008505Y013280D02*
X008505Y013430D01*
X008430Y013505D01*
X008355Y013505D01*
X008280Y013430D01*
X008280Y013280D01*
X008205Y013205D01*
X008130Y013205D01*
X008055Y013280D01*
X008055Y013430D01*
X008130Y013505D01*
X008055Y013665D02*
X008355Y013665D01*
X008505Y013816D01*
X008355Y013966D01*
X008055Y013966D01*
X008130Y014126D02*
X008055Y014201D01*
X008055Y014351D01*
X008130Y014426D01*
X008205Y014426D01*
X008505Y014126D01*
X008505Y014426D01*
X005455Y011966D02*
X005455Y011665D01*
X005155Y011966D01*
X005080Y011966D01*
X005005Y011891D01*
X005005Y011740D01*
X005080Y011665D01*
X005080Y011505D02*
X005005Y011430D01*
X005005Y011280D01*
X005080Y011205D01*
X005380Y011205D01*
X005455Y011280D01*
X005455Y011430D01*
X005380Y011505D01*
X005455Y007466D02*
X005455Y007165D01*
X005455Y007316D02*
X005005Y007316D01*
X005155Y007165D01*
X005080Y007005D02*
X005005Y006930D01*
X005005Y006780D01*
X005080Y006705D01*
X005380Y006705D01*
X005455Y006780D01*
X005455Y006930D01*
X005380Y007005D01*
D13*
X005129Y006889D02*
X004174Y006889D01*
X004174Y008461D01*
X005129Y008461D01*
X005129Y009170D01*
X001280Y009170D01*
X001280Y006180D01*
X005129Y006180D01*
X005129Y006889D01*
X005129Y008461D01*
X005129Y010680D02*
X001280Y010680D01*
X001280Y013670D01*
X005129Y013670D01*
X005129Y012961D01*
X004174Y012961D01*
X004174Y011389D01*
X005129Y011389D01*
X005129Y012961D01*
X005129Y011389D02*
X005129Y010680D01*
X005129Y015180D02*
X001280Y015180D01*
X001280Y018170D01*
X005129Y018170D01*
X005129Y017461D01*
X004174Y017461D01*
X004174Y015889D01*
X005129Y015889D01*
X005129Y017461D01*
X005129Y015889D02*
X005129Y015180D01*
X014731Y015190D02*
X018580Y015190D01*
X018580Y018180D01*
X014731Y018180D01*
X014731Y017471D01*
X015686Y017471D01*
X015686Y015899D01*
X014731Y015899D01*
X014731Y015190D01*
X014731Y015899D02*
X014731Y017471D01*
X014731Y004680D02*
X018580Y004680D01*
X018580Y001690D01*
X014731Y001690D01*
X014731Y002399D01*
X015686Y002399D01*
X015686Y003971D01*
X014731Y003971D01*
X014731Y002399D01*
X014731Y003971D02*
X014731Y004680D01*
X012015Y003928D02*
X012015Y003337D01*
X012014Y003337D02*
X011993Y003325D01*
X011974Y003310D01*
X011956Y003293D01*
X011942Y003273D01*
X011930Y003251D01*
X011922Y003228D01*
X011917Y003204D01*
X011915Y003180D01*
X011917Y003156D01*
X011922Y003132D01*
X011930Y003109D01*
X011942Y003087D01*
X011956Y003067D01*
X011974Y003050D01*
X011993Y003035D01*
X012014Y003023D01*
X012015Y003023D02*
X012015Y002432D01*
X011345Y002432D01*
X011345Y003023D01*
X011346Y003023D02*
X011367Y003035D01*
X011386Y003050D01*
X011404Y003067D01*
X011418Y003087D01*
X011430Y003109D01*
X011438Y003132D01*
X011443Y003156D01*
X011445Y003180D01*
X011443Y003204D01*
X011438Y003228D01*
X011430Y003251D01*
X011418Y003273D01*
X011404Y003293D01*
X011386Y003310D01*
X011367Y003325D01*
X011346Y003337D01*
X011345Y003337D02*
X011345Y003928D01*
X012015Y003928D01*
X008514Y003337D02*
X008493Y003325D01*
X008474Y003310D01*
X008456Y003293D01*
X008442Y003273D01*
X008430Y003251D01*
X008422Y003228D01*
X008417Y003204D01*
X008415Y003180D01*
X008417Y003156D01*
X008422Y003132D01*
X008430Y003109D01*
X008442Y003087D01*
X008456Y003067D01*
X008474Y003050D01*
X008493Y003035D01*
X008514Y003023D01*
X008515Y003023D02*
X008515Y002432D01*
X007845Y002432D01*
X007845Y003023D01*
X007846Y003023D02*
X007867Y003035D01*
X007886Y003050D01*
X007904Y003067D01*
X007918Y003087D01*
X007930Y003109D01*
X007938Y003132D01*
X007943Y003156D01*
X007945Y003180D01*
X007943Y003204D01*
X007938Y003228D01*
X007930Y003251D01*
X007918Y003273D01*
X007904Y003293D01*
X007886Y003310D01*
X007867Y003325D01*
X007846Y003337D01*
X007845Y003337D02*
X007845Y003928D01*
X008515Y003928D01*
X008515Y003337D01*
X005129Y003961D02*
X005129Y002389D01*
X004174Y002389D01*
X004174Y003961D01*
X005129Y003961D01*
X005129Y004670D01*
X001280Y004670D01*
X001280Y001680D01*
X005129Y001680D01*
X005129Y002389D01*
D14*
X008330Y003754D02*
X008404Y003754D01*
X008367Y003754D02*
X008367Y003864D01*
X008330Y003827D01*
X011429Y002569D02*
X011466Y002606D01*
X011466Y002496D01*
X011502Y002496D02*
X011429Y002496D01*
D15*
X011456Y002160D02*
X011763Y001700D01*
X011916Y001700D02*
X012223Y002007D01*
X012223Y002084D01*
X012146Y002160D01*
X011993Y002160D01*
X011916Y002084D01*
X011763Y002160D02*
X011456Y001700D01*
X011916Y001700D02*
X012223Y001700D01*
X008291Y004200D02*
X007984Y004200D01*
X008137Y004200D02*
X008137Y004660D01*
X007984Y004507D01*
X007830Y004660D02*
X007523Y004200D01*
X007830Y004200D02*
X007523Y004660D01*
X004366Y004964D02*
X004366Y005424D01*
X004059Y005424D02*
X004366Y004964D01*
X004059Y004964D02*
X004059Y005424D01*
X003905Y005424D02*
X003752Y005424D01*
X003829Y005424D02*
X003829Y004964D01*
X003905Y004964D02*
X003752Y004964D01*
X003598Y004887D02*
X003292Y004887D01*
X003138Y005041D02*
X003061Y004964D01*
X002908Y004964D01*
X002831Y005041D01*
X002678Y005041D02*
X002601Y004964D01*
X002448Y004964D01*
X002371Y005041D01*
X002448Y005194D02*
X002371Y005271D01*
X002371Y005347D01*
X002448Y005424D01*
X002601Y005424D01*
X002678Y005347D01*
X002831Y005347D02*
X002831Y005271D01*
X002908Y005194D01*
X003061Y005194D01*
X003138Y005117D01*
X003138Y005041D01*
X003138Y005347D02*
X003061Y005424D01*
X002908Y005424D01*
X002831Y005347D01*
X002601Y005194D02*
X002678Y005117D01*
X002678Y005041D01*
X002601Y005194D02*
X002448Y005194D01*
X002217Y005194D02*
X001910Y005194D01*
X001910Y005271D02*
X001910Y004964D01*
X001680Y005117D02*
X001450Y005117D01*
X001450Y004964D02*
X001450Y005424D01*
X001680Y005424D01*
X001757Y005347D01*
X001757Y005194D01*
X001680Y005117D01*
X001910Y005271D02*
X002064Y005424D01*
X002217Y005271D01*
X002217Y004964D01*
X002831Y009387D02*
X003138Y009387D01*
X003292Y009541D02*
X003368Y009464D01*
X003522Y009464D01*
X003598Y009541D01*
X003598Y009694D01*
X003522Y009771D01*
X003445Y009771D01*
X003292Y009694D01*
X003292Y009924D01*
X003598Y009924D01*
X003752Y009924D02*
X003752Y009617D01*
X003905Y009464D01*
X004059Y009617D01*
X004059Y009924D01*
X002678Y009847D02*
X002601Y009924D01*
X002448Y009924D01*
X002371Y009847D01*
X002371Y009541D01*
X002448Y009464D01*
X002601Y009464D01*
X002678Y009541D01*
X002217Y009541D02*
X002141Y009464D01*
X001987Y009464D01*
X001910Y009541D01*
X001910Y009847D01*
X001987Y009924D01*
X002141Y009924D01*
X002217Y009847D01*
X001757Y009924D02*
X001757Y009617D01*
X001603Y009464D01*
X001450Y009617D01*
X001450Y009924D01*
X001910Y013887D02*
X002217Y013887D01*
X002371Y013964D02*
X002371Y014424D01*
X002601Y014424D01*
X002678Y014347D01*
X002678Y014194D01*
X002601Y014117D01*
X002371Y014117D01*
X002524Y014117D02*
X002678Y013964D01*
X002831Y013964D02*
X003138Y013964D01*
X003292Y013964D02*
X003292Y014424D01*
X003598Y014424D01*
X003445Y014194D02*
X003292Y014194D01*
X003138Y014424D02*
X002831Y014424D01*
X002831Y013964D01*
X002831Y014194D02*
X002985Y014194D01*
X001757Y014117D02*
X001757Y014424D01*
X001450Y014424D02*
X001450Y014117D01*
X001603Y013964D01*
X001757Y014117D01*
X002831Y018387D02*
X003138Y018387D01*
X003292Y018464D02*
X003445Y018464D01*
X003368Y018464D02*
X003368Y018924D01*
X003292Y018924D02*
X003445Y018924D01*
X003598Y018924D02*
X003905Y018464D01*
X003905Y018924D01*
X003598Y018924D02*
X003598Y018464D01*
X002678Y018924D02*
X002371Y018924D01*
X002524Y018924D02*
X002524Y018464D01*
X002217Y018541D02*
X002141Y018464D01*
X001987Y018464D01*
X001910Y018541D01*
X001910Y018847D01*
X001987Y018924D01*
X002141Y018924D01*
X002217Y018847D01*
X001757Y018771D02*
X001757Y018464D01*
X001757Y018694D02*
X001450Y018694D01*
X001450Y018771D02*
X001603Y018924D01*
X001757Y018771D01*
X001450Y018771D02*
X001450Y018464D01*
X017529Y014897D02*
X017836Y014436D01*
X017990Y014513D02*
X017990Y014666D01*
X018220Y014666D01*
X018297Y014590D01*
X018297Y014513D01*
X018220Y014436D01*
X018066Y014436D01*
X017990Y014513D01*
X017990Y014666D02*
X018143Y014820D01*
X018297Y014897D01*
X017836Y014897D02*
X017529Y014436D01*
X017529Y001397D02*
X017836Y000936D01*
X017990Y000936D02*
X017990Y001013D01*
X018297Y001320D01*
X018297Y001397D01*
X017990Y001397D01*
X017836Y001397D02*
X017529Y000936D01*
D16*
X006430Y007560D02*
X006180Y007560D01*
X005930Y007560D01*
X005930Y007810D02*
X006180Y007810D01*
X006430Y007810D01*
X006430Y012060D02*
X006180Y012060D01*
X005930Y012060D01*
X005930Y012310D02*
X006180Y012310D01*
X006430Y012310D01*
M02*
