G75*
%MOIN*%
%OFA0B0*%
%FSLAX24Y24*%
%IPPOS*%
%LPD*%
%AMOC8*
5,1,8,0,0,1.08239X$1,22.5*
%
%ADD10OC8,0.0630*%
%ADD11OC8,0.0520*%
%ADD12C,0.0594*%
%ADD13C,0.1000*%
%ADD14OC8,0.1000*%
%ADD15OC8,0.0600*%
%ADD16C,0.0500*%
%ADD17C,0.0160*%
D10*
X014180Y008180D03*
X014180Y009180D03*
X014180Y010180D03*
X014180Y011180D03*
X017180Y011180D03*
X017180Y010180D03*
X017180Y009180D03*
X017180Y008180D03*
X025180Y008180D03*
X025180Y009180D03*
X025180Y010180D03*
X025180Y011180D03*
X028180Y011180D03*
X028180Y010180D03*
X028180Y009180D03*
X028180Y008180D03*
D11*
X025180Y006680D03*
X025180Y004680D03*
X029680Y010180D03*
X031680Y010180D03*
X031180Y013180D03*
X027180Y013180D03*
X026180Y013180D03*
X022180Y013180D03*
X019180Y012180D03*
X017680Y013180D03*
X013680Y013180D03*
X019180Y010180D03*
X012680Y008180D03*
X010680Y008180D03*
D12*
X003977Y009680D02*
X003383Y009680D01*
X003383Y010680D02*
X003977Y010680D01*
X003977Y004180D02*
X003383Y004180D01*
X003383Y003180D02*
X003977Y003180D01*
X019680Y005883D02*
X019680Y006477D01*
X020680Y006477D02*
X020680Y005883D01*
D13*
X015180Y004680D03*
X010180Y004680D03*
D14*
X010180Y002680D03*
X015180Y002680D03*
D15*
X012180Y011180D03*
X006180Y011180D03*
D16*
X005680Y010680D01*
X007180Y009180D01*
X014180Y009180D01*
X015180Y009180D02*
X015180Y004680D01*
X021180Y004680D01*
X023180Y006680D01*
X025180Y006680D01*
X025180Y008180D01*
X025180Y009180D02*
X025680Y009180D01*
X027680Y007180D01*
X030180Y007180D01*
X032680Y009680D01*
X032680Y013180D01*
X031680Y014180D01*
X028180Y014180D01*
X027180Y013180D01*
X026180Y013180D01*
X024680Y012180D02*
X021680Y015180D01*
X006180Y015180D01*
X002180Y011180D01*
X002180Y003680D01*
X002680Y003180D01*
X003680Y003180D01*
X004680Y002180D01*
X007680Y002180D01*
X010180Y004680D01*
X011680Y007180D02*
X006680Y007180D01*
X003680Y004180D01*
X011680Y007180D02*
X012680Y008180D01*
X014180Y008180D01*
X015180Y009180D01*
X015180Y012180D01*
X017180Y014180D01*
X018180Y014180D01*
X019180Y013180D01*
X022180Y013180D01*
X024680Y012180D02*
X030180Y012180D01*
X031180Y013180D01*
X030180Y012180D02*
X028180Y010180D01*
X029680Y010180D01*
X028180Y009180D02*
X026680Y009180D01*
X025680Y010180D01*
X025180Y010180D01*
X024680Y010180D01*
X022680Y008180D01*
X017180Y008180D01*
X016180Y008180D02*
X016180Y007680D01*
X017680Y006180D01*
X019680Y006180D01*
X017180Y009180D02*
X016180Y008180D01*
X017180Y010180D02*
X019180Y010180D01*
X022680Y010180D01*
X024680Y012180D01*
X017680Y011680D02*
X017180Y011180D01*
X017680Y011680D02*
X017680Y013180D01*
X014180Y011180D02*
X013680Y011680D01*
X013680Y013180D01*
X012180Y012180D02*
X011180Y012180D01*
X012180Y011180D01*
X012180Y012180D02*
X014180Y010180D01*
X011180Y012180D02*
X005180Y012180D01*
X003680Y010680D01*
X003680Y009680D02*
X004680Y009680D01*
X005680Y010680D01*
D17*
X000660Y016696D02*
X000660Y000660D01*
X034570Y000660D01*
X034570Y016696D01*
X000660Y016696D01*
X000660Y016664D02*
X034570Y016664D01*
X034570Y016506D02*
X000660Y016506D01*
X000660Y016347D02*
X034570Y016347D01*
X034570Y016189D02*
X000660Y016189D01*
X000660Y016030D02*
X034570Y016030D01*
X034570Y015872D02*
X000660Y015872D01*
X000660Y015713D02*
X034570Y015713D01*
X034570Y015555D02*
X021942Y015555D01*
X021935Y015561D02*
X021770Y015630D01*
X006090Y015630D01*
X005925Y015561D01*
X005799Y015435D01*
X001799Y011435D01*
X001730Y011270D01*
X001730Y003590D01*
X001799Y003425D01*
X001925Y003299D01*
X002425Y002799D01*
X002590Y002730D01*
X003171Y002730D01*
X003284Y002683D01*
X003540Y002683D01*
X004299Y001925D01*
X004425Y001799D01*
X004590Y001730D01*
X007770Y001730D01*
X007935Y001799D01*
X010116Y003980D01*
X010319Y003980D01*
X010577Y004087D01*
X010773Y004283D01*
X010880Y004541D01*
X010880Y004819D01*
X010773Y005077D01*
X010577Y005273D01*
X010319Y005380D01*
X010041Y005380D01*
X009783Y005273D01*
X009587Y005077D01*
X009480Y004819D01*
X009480Y004616D01*
X007494Y002630D01*
X004866Y002630D01*
X004457Y003040D01*
X004474Y003081D01*
X004474Y003279D01*
X004398Y003461D01*
X004258Y003601D01*
X004076Y003677D01*
X003284Y003677D01*
X003171Y003630D01*
X002866Y003630D01*
X002630Y003866D01*
X002630Y010994D01*
X006366Y014730D01*
X021494Y014730D01*
X024044Y012180D01*
X022494Y010630D01*
X019381Y010630D01*
X019371Y010640D01*
X018989Y010640D01*
X018979Y010630D01*
X017458Y010630D01*
X017408Y010680D01*
X017695Y010967D01*
X017695Y011059D01*
X018061Y011425D01*
X018130Y011590D01*
X018130Y012979D01*
X018140Y012989D01*
X018140Y013371D01*
X017871Y013640D01*
X017489Y013640D01*
X017220Y013371D01*
X017220Y012989D01*
X017230Y012979D01*
X017230Y011866D01*
X017059Y011695D01*
X016967Y011695D01*
X016665Y011393D01*
X016665Y010967D01*
X016952Y010680D01*
X016665Y010393D01*
X016665Y009967D01*
X016952Y009680D01*
X016665Y009393D01*
X016665Y009301D01*
X015799Y008435D01*
X015730Y008270D01*
X015730Y007590D01*
X015799Y007425D01*
X015925Y007299D01*
X017425Y005799D01*
X017590Y005730D01*
X019206Y005730D01*
X019259Y005602D01*
X019399Y005462D01*
X019581Y005386D01*
X019779Y005386D01*
X019961Y005462D01*
X020101Y005602D01*
X020177Y005784D01*
X020177Y006576D01*
X020101Y006758D01*
X019961Y006898D01*
X019779Y006974D01*
X019581Y006974D01*
X019399Y006898D01*
X019259Y006758D01*
X019206Y006630D01*
X017866Y006630D01*
X016630Y007866D01*
X016630Y007994D01*
X016665Y008029D01*
X016665Y007967D01*
X016967Y007665D01*
X017393Y007665D01*
X017458Y007730D01*
X022770Y007730D01*
X022935Y007799D01*
X024866Y009730D01*
X024902Y009730D01*
X024952Y009680D01*
X024665Y009393D01*
X024665Y008967D01*
X024952Y008680D01*
X024665Y008393D01*
X024665Y007967D01*
X024730Y007902D01*
X024730Y007130D01*
X023090Y007130D01*
X022925Y007061D01*
X020994Y005130D01*
X015720Y005130D01*
X015630Y005220D01*
X015630Y011994D01*
X017366Y013730D01*
X017994Y013730D01*
X018925Y012799D01*
X019090Y012730D01*
X021979Y012730D01*
X021989Y012720D01*
X022371Y012720D01*
X022640Y012989D01*
X022640Y013371D01*
X022371Y013640D01*
X021989Y013640D01*
X021979Y013630D01*
X019366Y013630D01*
X018561Y014435D01*
X018435Y014561D01*
X018270Y014630D01*
X017090Y014630D01*
X016925Y014561D01*
X014925Y012561D01*
X014799Y012435D01*
X014730Y012270D01*
X014730Y009366D01*
X014695Y009331D01*
X014695Y009393D01*
X014408Y009680D01*
X014695Y009967D01*
X014695Y010393D01*
X014408Y010680D01*
X014695Y010967D01*
X014695Y011393D01*
X014393Y011695D01*
X014301Y011695D01*
X014130Y011866D01*
X014130Y012979D01*
X014140Y012989D01*
X014140Y013371D01*
X013871Y013640D01*
X013489Y013640D01*
X013220Y013371D01*
X013220Y012989D01*
X013230Y012979D01*
X013230Y011766D01*
X012561Y012435D01*
X012435Y012561D01*
X012270Y012630D01*
X005090Y012630D01*
X004925Y012561D01*
X004799Y012435D01*
X003540Y011177D01*
X003284Y011177D01*
X003102Y011101D01*
X002962Y010961D01*
X002886Y010779D01*
X002886Y010581D01*
X002962Y010399D01*
X003102Y010259D01*
X003284Y010183D01*
X004076Y010183D01*
X004258Y010259D01*
X004398Y010399D01*
X004474Y010581D01*
X004474Y010779D01*
X004457Y010820D01*
X005366Y011730D01*
X010994Y011730D01*
X011680Y011044D01*
X011680Y010973D01*
X011973Y010680D01*
X012387Y010680D01*
X012680Y010973D01*
X012680Y011044D01*
X013665Y010059D01*
X013665Y009967D01*
X013952Y009680D01*
X013902Y009630D01*
X007366Y009630D01*
X006316Y010680D01*
X006387Y010680D01*
X006680Y010973D01*
X006680Y011387D01*
X006387Y011680D01*
X005973Y011680D01*
X005680Y011387D01*
X005680Y011316D01*
X005425Y011061D01*
X005299Y010935D01*
X004494Y010130D01*
X004189Y010130D01*
X004076Y010177D01*
X003284Y010177D01*
X003102Y010101D01*
X002962Y009961D01*
X002886Y009779D01*
X002886Y009581D01*
X002962Y009399D01*
X003102Y009259D01*
X003284Y009183D01*
X004076Y009183D01*
X004189Y009230D01*
X004770Y009230D01*
X004935Y009299D01*
X005680Y010044D01*
X006925Y008799D01*
X007090Y008730D01*
X013902Y008730D01*
X013952Y008680D01*
X013902Y008630D01*
X012881Y008630D01*
X012871Y008640D01*
X012489Y008640D01*
X012220Y008371D01*
X012220Y008356D01*
X011494Y007630D01*
X006590Y007630D01*
X006425Y007561D01*
X006299Y007435D01*
X003540Y004677D01*
X003284Y004677D01*
X003102Y004601D01*
X002962Y004461D01*
X002886Y004279D01*
X002886Y004081D01*
X002962Y003899D01*
X003102Y003759D01*
X003284Y003683D01*
X004076Y003683D01*
X004258Y003759D01*
X004398Y003899D01*
X004474Y004081D01*
X004474Y004279D01*
X004457Y004320D01*
X006866Y006730D01*
X011770Y006730D01*
X011935Y006799D01*
X012856Y007720D01*
X012871Y007720D01*
X012881Y007730D01*
X013902Y007730D01*
X013967Y007665D01*
X014393Y007665D01*
X014695Y007967D01*
X014695Y008059D01*
X014730Y008094D01*
X014730Y005220D01*
X014587Y005077D01*
X014480Y004819D01*
X014480Y004541D01*
X014587Y004283D01*
X014783Y004087D01*
X015041Y003980D01*
X015319Y003980D01*
X015577Y004087D01*
X015720Y004230D01*
X021270Y004230D01*
X021435Y004299D01*
X021561Y004425D01*
X023366Y006230D01*
X024979Y006230D01*
X024989Y006220D01*
X025371Y006220D01*
X025640Y006489D01*
X025640Y006871D01*
X025630Y006881D01*
X025630Y007902D01*
X025695Y007967D01*
X025695Y008393D01*
X025408Y008680D01*
X025458Y008730D01*
X025494Y008730D01*
X027299Y006925D01*
X027425Y006799D01*
X027590Y006730D01*
X030270Y006730D01*
X030435Y006799D01*
X032935Y009299D01*
X033061Y009425D01*
X033130Y009590D01*
X033130Y013270D01*
X033061Y013435D01*
X032061Y014435D01*
X031935Y014561D01*
X031770Y014630D01*
X028090Y014630D01*
X027925Y014561D01*
X027004Y013640D01*
X026989Y013640D01*
X026979Y013630D01*
X026381Y013630D01*
X026371Y013640D01*
X025989Y013640D01*
X025720Y013371D01*
X025720Y012989D01*
X025989Y012720D01*
X026371Y012720D01*
X026381Y012730D01*
X026979Y012730D01*
X026989Y012720D01*
X027371Y012720D01*
X027640Y012989D01*
X027640Y013004D01*
X028366Y013730D01*
X031494Y013730D01*
X032230Y012994D01*
X032230Y009866D01*
X029994Y007630D01*
X027866Y007630D01*
X026766Y008730D01*
X027902Y008730D01*
X027952Y008680D01*
X027665Y008393D01*
X027665Y007967D01*
X027967Y007665D01*
X028393Y007665D01*
X028695Y007967D01*
X028695Y008393D01*
X028408Y008680D01*
X028695Y008967D01*
X028695Y009393D01*
X028408Y009680D01*
X028458Y009730D01*
X029479Y009730D01*
X029489Y009720D01*
X029871Y009720D01*
X030140Y009989D01*
X030140Y010371D01*
X029871Y010640D01*
X029489Y010640D01*
X029479Y010630D01*
X029266Y010630D01*
X030435Y011799D01*
X030561Y011925D01*
X031356Y012720D01*
X031371Y012720D01*
X031640Y012989D01*
X031640Y013371D01*
X031371Y013640D01*
X030989Y013640D01*
X030720Y013371D01*
X030720Y013356D01*
X029994Y012630D01*
X024866Y012630D01*
X021935Y015561D01*
X022100Y015396D02*
X034570Y015396D01*
X034570Y015238D02*
X022259Y015238D01*
X022417Y015079D02*
X034570Y015079D01*
X034570Y014921D02*
X022576Y014921D01*
X022734Y014762D02*
X034570Y014762D01*
X034570Y014604D02*
X031833Y014604D01*
X032051Y014445D02*
X034570Y014445D01*
X034570Y014287D02*
X032210Y014287D01*
X032368Y014128D02*
X034570Y014128D01*
X034570Y013970D02*
X032527Y013970D01*
X032685Y013811D02*
X034570Y013811D01*
X034570Y013653D02*
X032844Y013653D01*
X033002Y013494D02*
X034570Y013494D01*
X034570Y013336D02*
X033103Y013336D01*
X033130Y013177D02*
X034570Y013177D01*
X034570Y013019D02*
X033130Y013019D01*
X033130Y012860D02*
X034570Y012860D01*
X034570Y012702D02*
X033130Y012702D01*
X033130Y012543D02*
X034570Y012543D01*
X034570Y012385D02*
X033130Y012385D01*
X033130Y012226D02*
X034570Y012226D01*
X034570Y012068D02*
X033130Y012068D01*
X033130Y011909D02*
X034570Y011909D01*
X034570Y011751D02*
X033130Y011751D01*
X033130Y011592D02*
X034570Y011592D01*
X034570Y011434D02*
X033130Y011434D01*
X033130Y011275D02*
X034570Y011275D01*
X034570Y011117D02*
X033130Y011117D01*
X033130Y010958D02*
X034570Y010958D01*
X034570Y010800D02*
X033130Y010800D01*
X033130Y010641D02*
X034570Y010641D01*
X034570Y010483D02*
X033130Y010483D01*
X033130Y010324D02*
X034570Y010324D01*
X034570Y010166D02*
X033130Y010166D01*
X033130Y010007D02*
X034570Y010007D01*
X034570Y009849D02*
X033130Y009849D01*
X033130Y009690D02*
X034570Y009690D01*
X034570Y009532D02*
X033106Y009532D01*
X033009Y009373D02*
X034570Y009373D01*
X034570Y009215D02*
X032851Y009215D01*
X032692Y009056D02*
X034570Y009056D01*
X034570Y008898D02*
X032534Y008898D01*
X032375Y008739D02*
X034570Y008739D01*
X034570Y008581D02*
X032217Y008581D01*
X032058Y008422D02*
X034570Y008422D01*
X034570Y008264D02*
X031900Y008264D01*
X031741Y008105D02*
X034570Y008105D01*
X034570Y007947D02*
X031583Y007947D01*
X031424Y007788D02*
X034570Y007788D01*
X034570Y007630D02*
X031266Y007630D01*
X031107Y007471D02*
X034570Y007471D01*
X034570Y007313D02*
X030949Y007313D01*
X030790Y007154D02*
X034570Y007154D01*
X034570Y006996D02*
X030632Y006996D01*
X030473Y006837D02*
X034570Y006837D01*
X034570Y006679D02*
X025640Y006679D01*
X025640Y006837D02*
X027387Y006837D01*
X027228Y006996D02*
X025630Y006996D01*
X025630Y007154D02*
X027070Y007154D01*
X026911Y007313D02*
X025630Y007313D01*
X025630Y007471D02*
X026753Y007471D01*
X026594Y007630D02*
X025630Y007630D01*
X025630Y007788D02*
X026436Y007788D01*
X026277Y007947D02*
X025675Y007947D01*
X025695Y008105D02*
X026119Y008105D01*
X025960Y008264D02*
X025695Y008264D01*
X025666Y008422D02*
X025802Y008422D01*
X025643Y008581D02*
X025508Y008581D01*
X024893Y008739D02*
X023875Y008739D01*
X023717Y008581D02*
X024852Y008581D01*
X024694Y008422D02*
X023558Y008422D01*
X023400Y008264D02*
X024665Y008264D01*
X024665Y008105D02*
X023241Y008105D01*
X023083Y007947D02*
X024685Y007947D01*
X024730Y007788D02*
X022910Y007788D01*
X022859Y006996D02*
X017501Y006996D01*
X017342Y007154D02*
X024730Y007154D01*
X024730Y007313D02*
X017184Y007313D01*
X017025Y007471D02*
X024730Y007471D01*
X024730Y007630D02*
X016867Y007630D01*
X016844Y007788D02*
X016708Y007788D01*
X016685Y007947D02*
X016630Y007947D01*
X015730Y007947D02*
X015630Y007947D01*
X015630Y008105D02*
X015730Y008105D01*
X015730Y008264D02*
X015630Y008264D01*
X015630Y008422D02*
X015793Y008422D01*
X015944Y008581D02*
X015630Y008581D01*
X015630Y008739D02*
X016103Y008739D01*
X016261Y008898D02*
X015630Y008898D01*
X015630Y009056D02*
X016420Y009056D01*
X016578Y009215D02*
X015630Y009215D01*
X015630Y009373D02*
X016665Y009373D01*
X016803Y009532D02*
X015630Y009532D01*
X015630Y009690D02*
X016942Y009690D01*
X016783Y009849D02*
X015630Y009849D01*
X015630Y010007D02*
X016665Y010007D01*
X016665Y010166D02*
X015630Y010166D01*
X015630Y010324D02*
X016665Y010324D01*
X016754Y010483D02*
X015630Y010483D01*
X015630Y010641D02*
X016913Y010641D01*
X016832Y010800D02*
X015630Y010800D01*
X015630Y010958D02*
X016674Y010958D01*
X016665Y011117D02*
X015630Y011117D01*
X015630Y011275D02*
X016665Y011275D01*
X016705Y011434D02*
X015630Y011434D01*
X015630Y011592D02*
X016864Y011592D01*
X017114Y011751D02*
X015630Y011751D01*
X015630Y011909D02*
X017230Y011909D01*
X017230Y012068D02*
X015704Y012068D01*
X015862Y012226D02*
X017230Y012226D01*
X017230Y012385D02*
X016021Y012385D01*
X016179Y012543D02*
X017230Y012543D01*
X017230Y012702D02*
X016338Y012702D01*
X016496Y012860D02*
X017230Y012860D01*
X017220Y013019D02*
X016655Y013019D01*
X016813Y013177D02*
X017220Y013177D01*
X017220Y013336D02*
X016972Y013336D01*
X017130Y013494D02*
X017343Y013494D01*
X017289Y013653D02*
X018071Y013653D01*
X018017Y013494D02*
X018230Y013494D01*
X018140Y013336D02*
X018388Y013336D01*
X018547Y013177D02*
X018140Y013177D01*
X018140Y013019D02*
X018705Y013019D01*
X018864Y012860D02*
X018130Y012860D01*
X018130Y012702D02*
X023522Y012702D01*
X023364Y012860D02*
X022511Y012860D01*
X022640Y013019D02*
X023205Y013019D01*
X023047Y013177D02*
X022640Y013177D01*
X022640Y013336D02*
X022888Y013336D01*
X022730Y013494D02*
X022517Y013494D01*
X022571Y013653D02*
X019344Y013653D01*
X019185Y013811D02*
X022413Y013811D01*
X022254Y013970D02*
X019027Y013970D01*
X018868Y014128D02*
X022096Y014128D01*
X021937Y014287D02*
X018710Y014287D01*
X018551Y014445D02*
X021779Y014445D01*
X021620Y014604D02*
X018333Y014604D01*
X017027Y014604D02*
X006240Y014604D01*
X006081Y014445D02*
X016809Y014445D01*
X016650Y014287D02*
X005923Y014287D01*
X005764Y014128D02*
X016492Y014128D01*
X016333Y013970D02*
X005606Y013970D01*
X005447Y013811D02*
X016175Y013811D01*
X016016Y013653D02*
X005289Y013653D01*
X005130Y013494D02*
X013343Y013494D01*
X013220Y013336D02*
X004972Y013336D01*
X004813Y013177D02*
X013220Y013177D01*
X013220Y013019D02*
X004655Y013019D01*
X004496Y012860D02*
X013230Y012860D01*
X013230Y012702D02*
X004338Y012702D01*
X004179Y012543D02*
X004907Y012543D01*
X004748Y012385D02*
X004021Y012385D01*
X003862Y012226D02*
X004590Y012226D01*
X004431Y012068D02*
X003704Y012068D01*
X003545Y011909D02*
X004273Y011909D01*
X004114Y011751D02*
X003387Y011751D01*
X003228Y011592D02*
X003956Y011592D01*
X003797Y011434D02*
X003070Y011434D01*
X002911Y011275D02*
X003639Y011275D01*
X003139Y011117D02*
X002753Y011117D01*
X002630Y010958D02*
X002961Y010958D01*
X002895Y010800D02*
X002630Y010800D01*
X002630Y010641D02*
X002886Y010641D01*
X002927Y010483D02*
X002630Y010483D01*
X002630Y010324D02*
X003036Y010324D01*
X003257Y010166D02*
X002630Y010166D01*
X002630Y010007D02*
X003008Y010007D01*
X002915Y009849D02*
X002630Y009849D01*
X002630Y009690D02*
X002886Y009690D01*
X002907Y009532D02*
X002630Y009532D01*
X002630Y009373D02*
X002987Y009373D01*
X003209Y009215D02*
X002630Y009215D01*
X002630Y009056D02*
X006668Y009056D01*
X006826Y008898D02*
X002630Y008898D01*
X002630Y008739D02*
X007069Y008739D01*
X006509Y009215D02*
X004151Y009215D01*
X005009Y009373D02*
X006351Y009373D01*
X006192Y009532D02*
X005168Y009532D01*
X005326Y009690D02*
X006034Y009690D01*
X005875Y009849D02*
X005485Y009849D01*
X005643Y010007D02*
X005717Y010007D01*
X006672Y010324D02*
X013400Y010324D01*
X013558Y010166D02*
X006831Y010166D01*
X006989Y010007D02*
X013665Y010007D01*
X013783Y009849D02*
X007148Y009849D01*
X007306Y009690D02*
X013942Y009690D01*
X014418Y009690D02*
X014730Y009690D01*
X014730Y009532D02*
X014557Y009532D01*
X014695Y009373D02*
X014730Y009373D01*
X014730Y009849D02*
X014577Y009849D01*
X014695Y010007D02*
X014730Y010007D01*
X014730Y010166D02*
X014695Y010166D01*
X014695Y010324D02*
X014730Y010324D01*
X014730Y010483D02*
X014606Y010483D01*
X014730Y010641D02*
X014447Y010641D01*
X014528Y010800D02*
X014730Y010800D01*
X014730Y010958D02*
X014686Y010958D01*
X014695Y011117D02*
X014730Y011117D01*
X014730Y011275D02*
X014695Y011275D01*
X014730Y011434D02*
X014655Y011434D01*
X014730Y011592D02*
X014496Y011592D01*
X014730Y011751D02*
X014246Y011751D01*
X014130Y011909D02*
X014730Y011909D01*
X014730Y012068D02*
X014130Y012068D01*
X014130Y012226D02*
X014730Y012226D01*
X014778Y012385D02*
X014130Y012385D01*
X014130Y012543D02*
X014907Y012543D01*
X015065Y012702D02*
X014130Y012702D01*
X014130Y012860D02*
X015224Y012860D01*
X015382Y013019D02*
X014140Y013019D01*
X014140Y013177D02*
X015541Y013177D01*
X015699Y013336D02*
X014140Y013336D01*
X014017Y013494D02*
X015858Y013494D01*
X018130Y012543D02*
X018921Y012543D01*
X018998Y012620D02*
X018740Y012362D01*
X018740Y012180D01*
X019180Y012180D01*
X019180Y012180D01*
X019180Y012620D01*
X019362Y012620D01*
X019620Y012362D01*
X019620Y012180D01*
X019180Y012180D01*
X019180Y012180D01*
X019180Y012180D01*
X019180Y012620D01*
X018998Y012620D01*
X019180Y012543D02*
X019180Y012543D01*
X019180Y012385D02*
X019180Y012385D01*
X019180Y012226D02*
X019180Y012226D01*
X019180Y012180D02*
X018740Y012180D01*
X018740Y011998D01*
X018998Y011740D01*
X019180Y011740D01*
X019362Y011740D01*
X019620Y011998D01*
X019620Y012180D01*
X019180Y012180D01*
X019180Y011740D01*
X019180Y012180D01*
X019180Y012180D01*
X019180Y012068D02*
X019180Y012068D01*
X019180Y011909D02*
X019180Y011909D01*
X019180Y011751D02*
X019180Y011751D01*
X019373Y011751D02*
X023614Y011751D01*
X023773Y011909D02*
X019531Y011909D01*
X019620Y012068D02*
X023931Y012068D01*
X023998Y012226D02*
X019620Y012226D01*
X019598Y012385D02*
X023839Y012385D01*
X023681Y012543D02*
X019439Y012543D01*
X018762Y012385D02*
X018130Y012385D01*
X018130Y012226D02*
X018740Y012226D01*
X018740Y012068D02*
X018130Y012068D01*
X018130Y011909D02*
X018829Y011909D01*
X018987Y011751D02*
X018130Y011751D01*
X018130Y011592D02*
X023456Y011592D01*
X023297Y011434D02*
X018065Y011434D01*
X017911Y011275D02*
X023139Y011275D01*
X022980Y011117D02*
X017753Y011117D01*
X017686Y010958D02*
X022822Y010958D01*
X022663Y010800D02*
X017528Y010800D01*
X017447Y010641D02*
X022505Y010641D01*
X024668Y009532D02*
X024803Y009532D01*
X024826Y009690D02*
X024942Y009690D01*
X024665Y009373D02*
X024509Y009373D01*
X024665Y009215D02*
X024351Y009215D01*
X024192Y009056D02*
X024665Y009056D01*
X024734Y008898D02*
X024034Y008898D01*
X026916Y008581D02*
X027852Y008581D01*
X027694Y008422D02*
X027074Y008422D01*
X027233Y008264D02*
X027665Y008264D01*
X027665Y008105D02*
X027391Y008105D01*
X027550Y007947D02*
X027685Y007947D01*
X027708Y007788D02*
X027844Y007788D01*
X028516Y007788D02*
X030152Y007788D01*
X030310Y007947D02*
X028675Y007947D01*
X028695Y008105D02*
X030469Y008105D01*
X030627Y008264D02*
X028695Y008264D01*
X028666Y008422D02*
X030786Y008422D01*
X030944Y008581D02*
X028508Y008581D01*
X028467Y008739D02*
X031103Y008739D01*
X031261Y008898D02*
X028626Y008898D01*
X028695Y009056D02*
X031420Y009056D01*
X031578Y009215D02*
X028695Y009215D01*
X028695Y009373D02*
X031737Y009373D01*
X031895Y009532D02*
X028557Y009532D01*
X028418Y009690D02*
X032054Y009690D01*
X031971Y009849D02*
X032212Y009849D01*
X032230Y010007D02*
X032120Y010007D01*
X032120Y009998D02*
X032120Y010180D01*
X032120Y010362D01*
X031862Y010620D01*
X031680Y010620D01*
X031680Y010180D01*
X032120Y010180D01*
X031680Y010180D01*
X031680Y010180D01*
X031680Y010180D01*
X031680Y009740D01*
X031862Y009740D01*
X032120Y009998D01*
X032120Y010166D02*
X032230Y010166D01*
X032230Y010324D02*
X032120Y010324D01*
X032230Y010483D02*
X032000Y010483D01*
X032230Y010641D02*
X029277Y010641D01*
X029436Y010800D02*
X032230Y010800D01*
X032230Y010958D02*
X029594Y010958D01*
X029753Y011117D02*
X032230Y011117D01*
X032230Y011275D02*
X029911Y011275D01*
X030070Y011434D02*
X032230Y011434D01*
X032230Y011592D02*
X030228Y011592D01*
X030387Y011751D02*
X032230Y011751D01*
X032230Y011909D02*
X030545Y011909D01*
X030435Y011799D02*
X030435Y011799D01*
X030704Y012068D02*
X032230Y012068D01*
X032230Y012226D02*
X030862Y012226D01*
X031021Y012385D02*
X032230Y012385D01*
X032230Y012543D02*
X031179Y012543D01*
X031338Y012702D02*
X032230Y012702D01*
X032230Y012860D02*
X031511Y012860D01*
X031640Y013019D02*
X032205Y013019D01*
X032047Y013177D02*
X031640Y013177D01*
X031640Y013336D02*
X031888Y013336D01*
X031730Y013494D02*
X031517Y013494D01*
X031571Y013653D02*
X028289Y013653D01*
X028130Y013494D02*
X030843Y013494D01*
X030699Y013336D02*
X027972Y013336D01*
X027813Y013177D02*
X030541Y013177D01*
X030382Y013019D02*
X027655Y013019D01*
X027511Y012860D02*
X030224Y012860D01*
X030065Y012702D02*
X024795Y012702D01*
X024636Y012860D02*
X025849Y012860D01*
X025720Y013019D02*
X024478Y013019D01*
X024319Y013177D02*
X025720Y013177D01*
X025720Y013336D02*
X024161Y013336D01*
X024002Y013494D02*
X025843Y013494D01*
X027016Y013653D02*
X023844Y013653D01*
X023685Y013811D02*
X027175Y013811D01*
X027333Y013970D02*
X023527Y013970D01*
X023368Y014128D02*
X027492Y014128D01*
X027650Y014287D02*
X023210Y014287D01*
X023051Y014445D02*
X027809Y014445D01*
X028027Y014604D02*
X022893Y014604D01*
X030028Y010483D02*
X031360Y010483D01*
X031240Y010362D02*
X031240Y010180D01*
X031680Y010180D01*
X031680Y010180D01*
X031680Y010180D01*
X031680Y010620D01*
X031498Y010620D01*
X031240Y010362D01*
X031240Y010324D02*
X030140Y010324D01*
X030140Y010166D02*
X031240Y010166D01*
X031240Y010180D02*
X031240Y009998D01*
X031498Y009740D01*
X031680Y009740D01*
X031680Y010180D01*
X031240Y010180D01*
X031240Y010007D02*
X030140Y010007D01*
X029999Y009849D02*
X031389Y009849D01*
X031680Y009849D02*
X031680Y009849D01*
X031680Y010007D02*
X031680Y010007D01*
X031680Y010166D02*
X031680Y010166D01*
X031680Y010324D02*
X031680Y010324D01*
X031680Y010483D02*
X031680Y010483D01*
X034570Y006520D02*
X025640Y006520D01*
X025512Y006362D02*
X034570Y006362D01*
X034570Y006203D02*
X023339Y006203D01*
X023181Y006045D02*
X034570Y006045D01*
X034570Y005886D02*
X023022Y005886D01*
X022864Y005728D02*
X034570Y005728D01*
X034570Y005569D02*
X022705Y005569D01*
X022547Y005411D02*
X034570Y005411D01*
X034570Y005252D02*
X022388Y005252D01*
X022230Y005094D02*
X024971Y005094D01*
X024998Y005120D02*
X024740Y004862D01*
X024740Y004680D01*
X025180Y004680D01*
X025180Y004680D01*
X025180Y005120D01*
X025362Y005120D01*
X025620Y004862D01*
X025620Y004680D01*
X025180Y004680D01*
X025180Y004680D01*
X025180Y004680D01*
X025180Y005120D01*
X024998Y005120D01*
X025180Y005094D02*
X025180Y005094D01*
X025180Y004935D02*
X025180Y004935D01*
X025180Y004777D02*
X025180Y004777D01*
X025180Y004680D02*
X024740Y004680D01*
X024740Y004498D01*
X024998Y004240D01*
X025180Y004240D01*
X025362Y004240D01*
X025620Y004498D01*
X025620Y004680D01*
X025180Y004680D01*
X025180Y004240D01*
X025180Y004680D01*
X025180Y004680D01*
X025180Y004618D02*
X025180Y004618D01*
X025180Y004460D02*
X025180Y004460D01*
X025180Y004301D02*
X025180Y004301D01*
X025423Y004301D02*
X034570Y004301D01*
X034570Y004143D02*
X015632Y004143D01*
X015329Y003984D02*
X034570Y003984D01*
X034570Y003826D02*
X009962Y003826D01*
X009803Y003667D02*
X034570Y003667D01*
X034570Y003509D02*
X009645Y003509D01*
X009486Y003350D02*
X009888Y003350D01*
X009898Y003360D02*
X009500Y002962D01*
X009500Y002700D01*
X010160Y002700D01*
X010160Y003360D01*
X009898Y003360D01*
X009730Y003192D02*
X009328Y003192D01*
X009169Y003033D02*
X009571Y003033D01*
X009500Y002875D02*
X009011Y002875D01*
X008852Y002716D02*
X009500Y002716D01*
X009500Y002660D02*
X009500Y002398D01*
X009898Y002000D01*
X010160Y002000D01*
X010160Y002660D01*
X009500Y002660D01*
X009500Y002558D02*
X008694Y002558D01*
X008535Y002399D02*
X009500Y002399D01*
X009658Y002241D02*
X008377Y002241D01*
X008218Y002082D02*
X009816Y002082D01*
X010160Y002082D02*
X010200Y002082D01*
X010200Y002000D02*
X010462Y002000D01*
X010860Y002398D01*
X010860Y002660D01*
X010200Y002660D01*
X010200Y002700D01*
X010160Y002700D01*
X010160Y002660D01*
X010200Y002660D01*
X010200Y002000D01*
X010200Y002241D02*
X010160Y002241D01*
X010160Y002399D02*
X010200Y002399D01*
X010200Y002558D02*
X010160Y002558D01*
X010200Y002700D02*
X010860Y002700D01*
X010860Y002962D01*
X010462Y003360D01*
X010200Y003360D01*
X010200Y002700D01*
X010200Y002716D02*
X010160Y002716D01*
X010160Y002875D02*
X010200Y002875D01*
X010200Y003033D02*
X010160Y003033D01*
X010160Y003192D02*
X010200Y003192D01*
X010200Y003350D02*
X010160Y003350D01*
X010472Y003350D02*
X014888Y003350D01*
X014898Y003360D02*
X014500Y002962D01*
X014500Y002700D01*
X015160Y002700D01*
X015160Y003360D01*
X014898Y003360D01*
X014730Y003192D02*
X010630Y003192D01*
X010789Y003033D02*
X014571Y003033D01*
X014500Y002875D02*
X010860Y002875D01*
X010860Y002716D02*
X014500Y002716D01*
X014500Y002660D02*
X014500Y002398D01*
X014898Y002000D01*
X015160Y002000D01*
X015160Y002660D01*
X014500Y002660D01*
X014500Y002558D02*
X010860Y002558D01*
X010860Y002399D02*
X014500Y002399D01*
X014658Y002241D02*
X010702Y002241D01*
X010544Y002082D02*
X014816Y002082D01*
X015160Y002082D02*
X015200Y002082D01*
X015200Y002000D02*
X015462Y002000D01*
X015860Y002398D01*
X015860Y002660D01*
X015200Y002660D01*
X015200Y002700D01*
X015160Y002700D01*
X015160Y002660D01*
X015200Y002660D01*
X015200Y002000D01*
X015200Y002241D02*
X015160Y002241D01*
X015160Y002399D02*
X015200Y002399D01*
X015200Y002558D02*
X015160Y002558D01*
X015200Y002700D02*
X015860Y002700D01*
X015860Y002962D01*
X015462Y003360D01*
X015200Y003360D01*
X015200Y002700D01*
X015200Y002716D02*
X015160Y002716D01*
X015160Y002875D02*
X015200Y002875D01*
X015200Y003033D02*
X015160Y003033D01*
X015160Y003192D02*
X015200Y003192D01*
X015200Y003350D02*
X015160Y003350D01*
X015472Y003350D02*
X034570Y003350D01*
X034570Y003192D02*
X015630Y003192D01*
X015789Y003033D02*
X034570Y003033D01*
X034570Y002875D02*
X015860Y002875D01*
X015860Y002716D02*
X034570Y002716D01*
X034570Y002558D02*
X015860Y002558D01*
X015860Y002399D02*
X034570Y002399D01*
X034570Y002241D02*
X015702Y002241D01*
X015544Y002082D02*
X034570Y002082D01*
X034570Y001924D02*
X008060Y001924D01*
X007854Y001765D02*
X034570Y001765D01*
X034570Y001607D02*
X000660Y001607D01*
X000660Y001765D02*
X004506Y001765D01*
X004300Y001924D02*
X000660Y001924D01*
X000660Y002082D02*
X004142Y002082D01*
X003983Y002241D02*
X000660Y002241D01*
X000660Y002399D02*
X003825Y002399D01*
X003666Y002558D02*
X000660Y002558D01*
X000660Y002716D02*
X003205Y002716D01*
X002349Y002875D02*
X000660Y002875D01*
X000660Y003033D02*
X002191Y003033D01*
X002032Y003192D02*
X000660Y003192D01*
X000660Y003350D02*
X001874Y003350D01*
X001764Y003509D02*
X000660Y003509D01*
X000660Y003667D02*
X001730Y003667D01*
X001730Y003826D02*
X000660Y003826D01*
X000660Y003984D02*
X001730Y003984D01*
X001730Y004143D02*
X000660Y004143D01*
X000660Y004301D02*
X001730Y004301D01*
X001730Y004460D02*
X000660Y004460D01*
X000660Y004618D02*
X001730Y004618D01*
X001730Y004777D02*
X000660Y004777D01*
X000660Y004935D02*
X001730Y004935D01*
X001730Y005094D02*
X000660Y005094D01*
X000660Y005252D02*
X001730Y005252D01*
X001730Y005411D02*
X000660Y005411D01*
X000660Y005569D02*
X001730Y005569D01*
X001730Y005728D02*
X000660Y005728D01*
X000660Y005886D02*
X001730Y005886D01*
X001730Y006045D02*
X000660Y006045D01*
X000660Y006203D02*
X001730Y006203D01*
X001730Y006362D02*
X000660Y006362D01*
X000660Y006520D02*
X001730Y006520D01*
X001730Y006679D02*
X000660Y006679D01*
X000660Y006837D02*
X001730Y006837D01*
X001730Y006996D02*
X000660Y006996D01*
X000660Y007154D02*
X001730Y007154D01*
X001730Y007313D02*
X000660Y007313D01*
X000660Y007471D02*
X001730Y007471D01*
X001730Y007630D02*
X000660Y007630D01*
X000660Y007788D02*
X001730Y007788D01*
X001730Y007947D02*
X000660Y007947D01*
X000660Y008105D02*
X001730Y008105D01*
X001730Y008264D02*
X000660Y008264D01*
X000660Y008422D02*
X001730Y008422D01*
X001730Y008581D02*
X000660Y008581D01*
X000660Y008739D02*
X001730Y008739D01*
X001730Y008898D02*
X000660Y008898D01*
X000660Y009056D02*
X001730Y009056D01*
X001730Y009215D02*
X000660Y009215D01*
X000660Y009373D02*
X001730Y009373D01*
X001730Y009532D02*
X000660Y009532D01*
X000660Y009690D02*
X001730Y009690D01*
X001730Y009849D02*
X000660Y009849D01*
X000660Y010007D02*
X001730Y010007D01*
X001730Y010166D02*
X000660Y010166D01*
X000660Y010324D02*
X001730Y010324D01*
X001730Y010483D02*
X000660Y010483D01*
X000660Y010641D02*
X001730Y010641D01*
X001730Y010800D02*
X000660Y010800D01*
X000660Y010958D02*
X001730Y010958D01*
X001730Y011117D02*
X000660Y011117D01*
X000660Y011275D02*
X001732Y011275D01*
X001798Y011434D02*
X000660Y011434D01*
X000660Y011592D02*
X001956Y011592D01*
X002114Y011751D02*
X000660Y011751D01*
X000660Y011909D02*
X002273Y011909D01*
X002431Y012068D02*
X000660Y012068D01*
X000660Y012226D02*
X002590Y012226D01*
X002748Y012385D02*
X000660Y012385D01*
X000660Y012543D02*
X002907Y012543D01*
X003065Y012702D02*
X000660Y012702D01*
X000660Y012860D02*
X003224Y012860D01*
X003382Y013019D02*
X000660Y013019D01*
X000660Y013177D02*
X003541Y013177D01*
X003699Y013336D02*
X000660Y013336D01*
X000660Y013494D02*
X003858Y013494D01*
X004016Y013653D02*
X000660Y013653D01*
X000660Y013811D02*
X004175Y013811D01*
X004333Y013970D02*
X000660Y013970D01*
X000660Y014128D02*
X004492Y014128D01*
X004650Y014287D02*
X000660Y014287D01*
X000660Y014445D02*
X004809Y014445D01*
X004967Y014604D02*
X000660Y014604D01*
X000660Y014762D02*
X005126Y014762D01*
X005284Y014921D02*
X000660Y014921D01*
X000660Y015079D02*
X005443Y015079D01*
X005601Y015238D02*
X000660Y015238D01*
X000660Y015396D02*
X005760Y015396D01*
X005918Y015555D02*
X000660Y015555D01*
X005228Y011592D02*
X005885Y011592D01*
X005726Y011434D02*
X005070Y011434D01*
X004911Y011275D02*
X005639Y011275D01*
X005480Y011117D02*
X004753Y011117D01*
X004594Y010958D02*
X005322Y010958D01*
X005163Y010800D02*
X004465Y010800D01*
X004474Y010641D02*
X005005Y010641D01*
X004846Y010483D02*
X004433Y010483D01*
X004324Y010324D02*
X004688Y010324D01*
X004529Y010166D02*
X004103Y010166D01*
X006355Y010641D02*
X013083Y010641D01*
X013241Y010483D02*
X006514Y010483D01*
X006507Y010800D02*
X011853Y010800D01*
X011695Y010958D02*
X006665Y010958D01*
X006680Y011117D02*
X011607Y011117D01*
X011449Y011275D02*
X006680Y011275D01*
X006634Y011434D02*
X011290Y011434D01*
X011132Y011592D02*
X006475Y011592D01*
X002630Y008581D02*
X010458Y008581D01*
X010498Y008620D02*
X010240Y008362D01*
X010240Y008180D01*
X010680Y008180D01*
X011120Y008180D01*
X011120Y008362D01*
X010862Y008620D01*
X010680Y008620D01*
X010680Y008180D01*
X010680Y008180D01*
X010680Y008180D01*
X011120Y008180D01*
X011120Y007998D01*
X010862Y007740D01*
X010680Y007740D01*
X010680Y008180D01*
X010680Y008180D01*
X010680Y008180D01*
X010680Y008620D01*
X010498Y008620D01*
X010680Y008581D02*
X010680Y008581D01*
X010680Y008422D02*
X010680Y008422D01*
X010680Y008264D02*
X010680Y008264D01*
X010680Y008180D02*
X010240Y008180D01*
X010240Y007998D01*
X010498Y007740D01*
X010680Y007740D01*
X010680Y008180D01*
X010680Y008105D02*
X010680Y008105D01*
X010680Y007947D02*
X010680Y007947D01*
X010680Y007788D02*
X010680Y007788D01*
X010910Y007788D02*
X011652Y007788D01*
X011810Y007947D02*
X011069Y007947D01*
X011120Y008105D02*
X011969Y008105D01*
X012127Y008264D02*
X011120Y008264D01*
X011060Y008422D02*
X012271Y008422D01*
X012430Y008581D02*
X010902Y008581D01*
X010300Y008422D02*
X002630Y008422D01*
X002630Y008264D02*
X010240Y008264D01*
X010240Y008105D02*
X002630Y008105D01*
X002630Y007947D02*
X010291Y007947D01*
X010450Y007788D02*
X002630Y007788D01*
X002630Y007630D02*
X006589Y007630D01*
X006335Y007471D02*
X002630Y007471D01*
X002630Y007313D02*
X006176Y007313D01*
X006018Y007154D02*
X002630Y007154D01*
X002630Y006996D02*
X005859Y006996D01*
X005701Y006837D02*
X002630Y006837D01*
X002630Y006679D02*
X005542Y006679D01*
X005384Y006520D02*
X002630Y006520D01*
X002630Y006362D02*
X005225Y006362D01*
X005067Y006203D02*
X002630Y006203D01*
X002630Y006045D02*
X004908Y006045D01*
X004750Y005886D02*
X002630Y005886D01*
X002630Y005728D02*
X004591Y005728D01*
X004433Y005569D02*
X002630Y005569D01*
X002630Y005411D02*
X004274Y005411D01*
X004116Y005252D02*
X002630Y005252D01*
X002630Y005094D02*
X003957Y005094D01*
X003799Y004935D02*
X002630Y004935D01*
X002630Y004777D02*
X003640Y004777D01*
X003142Y004618D02*
X002630Y004618D01*
X002630Y004460D02*
X002961Y004460D01*
X002895Y004301D02*
X002630Y004301D01*
X002630Y004143D02*
X002886Y004143D01*
X002927Y003984D02*
X002630Y003984D01*
X002671Y003826D02*
X003035Y003826D01*
X002829Y003667D02*
X003261Y003667D01*
X004099Y003667D02*
X008531Y003667D01*
X008689Y003826D02*
X004325Y003826D01*
X004433Y003984D02*
X008848Y003984D01*
X009006Y004143D02*
X004474Y004143D01*
X004465Y004301D02*
X009165Y004301D01*
X009323Y004460D02*
X004596Y004460D01*
X004754Y004618D02*
X009480Y004618D01*
X009480Y004777D02*
X004913Y004777D01*
X005071Y004935D02*
X009528Y004935D01*
X009604Y005094D02*
X005230Y005094D01*
X005388Y005252D02*
X009762Y005252D01*
X010598Y005252D02*
X014730Y005252D01*
X014730Y005411D02*
X005547Y005411D01*
X005705Y005569D02*
X014730Y005569D01*
X014730Y005728D02*
X005864Y005728D01*
X006022Y005886D02*
X014730Y005886D01*
X014730Y006045D02*
X006181Y006045D01*
X006339Y006203D02*
X014730Y006203D01*
X014730Y006362D02*
X006498Y006362D01*
X006656Y006520D02*
X014730Y006520D01*
X014730Y006679D02*
X006815Y006679D01*
X010756Y005094D02*
X014604Y005094D01*
X014528Y004935D02*
X010832Y004935D01*
X010880Y004777D02*
X014480Y004777D01*
X014480Y004618D02*
X010880Y004618D01*
X010846Y004460D02*
X014514Y004460D01*
X014579Y004301D02*
X010781Y004301D01*
X010632Y004143D02*
X014728Y004143D01*
X015031Y003984D02*
X010329Y003984D01*
X008372Y003509D02*
X004351Y003509D01*
X004444Y003350D02*
X008214Y003350D01*
X008055Y003192D02*
X004474Y003192D01*
X004463Y003033D02*
X007897Y003033D01*
X007738Y002875D02*
X004622Y002875D01*
X004780Y002716D02*
X007580Y002716D01*
X000660Y001448D02*
X034570Y001448D01*
X034570Y001290D02*
X000660Y001290D01*
X000660Y001131D02*
X034570Y001131D01*
X034570Y000973D02*
X000660Y000973D01*
X000660Y000814D02*
X034570Y000814D01*
X034570Y004460D02*
X025582Y004460D01*
X025620Y004618D02*
X034570Y004618D01*
X034570Y004777D02*
X025620Y004777D01*
X025547Y004935D02*
X034570Y004935D01*
X034570Y005094D02*
X025389Y005094D01*
X024813Y004935D02*
X022071Y004935D01*
X021913Y004777D02*
X024740Y004777D01*
X024740Y004618D02*
X021754Y004618D01*
X021596Y004460D02*
X024778Y004460D01*
X024937Y004301D02*
X021437Y004301D01*
X021561Y004425D02*
X021561Y004425D01*
X021116Y005252D02*
X015630Y005252D01*
X015630Y005411D02*
X019523Y005411D01*
X019291Y005569D02*
X015630Y005569D01*
X015630Y005728D02*
X019207Y005728D01*
X019837Y005411D02*
X020616Y005411D01*
X020642Y005406D02*
X020662Y005406D01*
X020662Y006162D01*
X020698Y006162D01*
X020698Y006198D01*
X021157Y006198D01*
X021157Y006514D01*
X021145Y006589D01*
X021122Y006660D01*
X021088Y006727D01*
X021044Y006787D01*
X020991Y006841D01*
X020930Y006885D01*
X020863Y006919D01*
X020792Y006942D01*
X020718Y006954D01*
X020698Y006954D01*
X020698Y006198D01*
X020662Y006198D01*
X020662Y006162D01*
X020203Y006162D01*
X020203Y005846D01*
X020215Y005771D01*
X020238Y005700D01*
X020272Y005633D01*
X020316Y005573D01*
X020369Y005519D01*
X020430Y005475D01*
X020497Y005441D01*
X020568Y005418D01*
X020642Y005406D01*
X020662Y005411D02*
X020698Y005411D01*
X020698Y005406D02*
X020718Y005406D01*
X020792Y005418D01*
X020863Y005441D01*
X020930Y005475D01*
X020991Y005519D01*
X021044Y005573D01*
X021088Y005633D01*
X021122Y005700D01*
X021145Y005771D01*
X021157Y005846D01*
X021157Y006162D01*
X020698Y006162D01*
X020698Y005406D01*
X020744Y005411D02*
X021274Y005411D01*
X021433Y005569D02*
X021040Y005569D01*
X021131Y005728D02*
X021591Y005728D01*
X021750Y005886D02*
X021157Y005886D01*
X021157Y006045D02*
X021908Y006045D01*
X022067Y006203D02*
X021157Y006203D01*
X021157Y006362D02*
X022225Y006362D01*
X022384Y006520D02*
X021156Y006520D01*
X021112Y006679D02*
X022542Y006679D01*
X022701Y006837D02*
X020994Y006837D01*
X020698Y006837D02*
X020662Y006837D01*
X020662Y006954D02*
X020642Y006954D01*
X020568Y006942D01*
X020497Y006919D01*
X020430Y006885D01*
X020369Y006841D01*
X020316Y006787D01*
X020272Y006727D01*
X020238Y006660D01*
X020215Y006589D01*
X020203Y006514D01*
X020203Y006198D01*
X020662Y006198D01*
X020662Y006954D01*
X020366Y006837D02*
X020022Y006837D01*
X020134Y006679D02*
X020248Y006679D01*
X020204Y006520D02*
X020177Y006520D01*
X020177Y006362D02*
X020203Y006362D01*
X020203Y006203D02*
X020177Y006203D01*
X020177Y006045D02*
X020203Y006045D01*
X020203Y005886D02*
X020177Y005886D01*
X020153Y005728D02*
X020229Y005728D01*
X020320Y005569D02*
X020069Y005569D01*
X020662Y005569D02*
X020698Y005569D01*
X020698Y005728D02*
X020662Y005728D01*
X020662Y005886D02*
X020698Y005886D01*
X020698Y006045D02*
X020662Y006045D01*
X020662Y006203D02*
X020698Y006203D01*
X020698Y006362D02*
X020662Y006362D01*
X020662Y006520D02*
X020698Y006520D01*
X020698Y006679D02*
X020662Y006679D01*
X019338Y006837D02*
X017659Y006837D01*
X017818Y006679D02*
X019226Y006679D01*
X017338Y005886D02*
X015630Y005886D01*
X015630Y006045D02*
X017179Y006045D01*
X017021Y006203D02*
X015630Y006203D01*
X015630Y006362D02*
X016862Y006362D01*
X016704Y006520D02*
X015630Y006520D01*
X015630Y006679D02*
X016545Y006679D01*
X016387Y006837D02*
X015630Y006837D01*
X015630Y006996D02*
X016228Y006996D01*
X016070Y007154D02*
X015630Y007154D01*
X015630Y007313D02*
X015911Y007313D01*
X015779Y007471D02*
X015630Y007471D01*
X015630Y007630D02*
X015730Y007630D01*
X015730Y007788D02*
X015630Y007788D01*
X014730Y007788D02*
X014516Y007788D01*
X014675Y007947D02*
X014730Y007947D01*
X014730Y007630D02*
X012766Y007630D01*
X012607Y007471D02*
X014730Y007471D01*
X014730Y007313D02*
X012449Y007313D01*
X012290Y007154D02*
X014730Y007154D01*
X014730Y006996D02*
X012132Y006996D01*
X011973Y006837D02*
X014730Y006837D01*
X012924Y010800D02*
X012507Y010800D01*
X012665Y010958D02*
X012766Y010958D01*
X013087Y011909D02*
X013230Y011909D01*
X013230Y012068D02*
X012929Y012068D01*
X012770Y012226D02*
X013230Y012226D01*
X013230Y012385D02*
X012612Y012385D01*
X012453Y012543D02*
X013230Y012543D01*
M02*
