G75*
%MOIN*%
%OFA0B0*%
%FSLAX24Y24*%
%IPPOS*%
%LPD*%
%AMOC8*
5,1,8,0,0,1.08239X$1,22.5*
%
%ADD10OC8,0.0630*%
%ADD11OC8,0.0520*%
%ADD12C,0.0594*%
%ADD13C,0.1000*%
%ADD14OC8,0.1000*%
%ADD15OC8,0.0600*%
D10*
X014180Y008180D03*
X014180Y009180D03*
X014180Y010180D03*
X014180Y011180D03*
X017180Y011180D03*
X017180Y010180D03*
X017180Y009180D03*
X017180Y008180D03*
X025180Y008180D03*
X025180Y009180D03*
X025180Y010180D03*
X025180Y011180D03*
X028180Y011180D03*
X028180Y010180D03*
X028180Y009180D03*
X028180Y008180D03*
D11*
X025180Y006680D03*
X025180Y004680D03*
X029680Y010180D03*
X031680Y010180D03*
X031180Y013180D03*
X027180Y013180D03*
X026180Y013180D03*
X022180Y013180D03*
X019180Y012180D03*
X017680Y013180D03*
X013680Y013180D03*
X019180Y010180D03*
X012680Y008180D03*
X010680Y008180D03*
D12*
X003977Y003180D02*
X003383Y003180D01*
X003383Y004180D02*
X003977Y004180D01*
X003977Y009680D02*
X003383Y009680D01*
X003383Y010680D02*
X003977Y010680D01*
X019680Y006477D02*
X019680Y005883D01*
X020680Y005883D02*
X020680Y006477D01*
D13*
X015180Y004680D03*
X010180Y004680D03*
D14*
X010180Y002680D03*
X015180Y002680D03*
D15*
X012180Y011180D03*
X006180Y011180D03*
M02*
