G75*
%MOIN*%
%OFA0B0*%
%FSLAX24Y24*%
%IPPOS*%
%LPD*%
%AMOC8*
5,1,8,0,0,1.08239X$1,22.5*
%
%ADD10OC8,0.0630*%
%ADD11OC8,0.0520*%
%ADD12C,0.0594*%
%ADD13C,0.1000*%
%ADD14OC8,0.1000*%
%ADD15OC8,0.0600*%
%ADD16C,0.0554*%
%ADD17C,0.0500*%
%ADD18C,0.0160*%
D10*
X014180Y008180D03*
X014180Y009180D03*
X014180Y010180D03*
X014180Y011180D03*
X017180Y011180D03*
X017180Y010180D03*
X017180Y009180D03*
X017180Y008180D03*
X025180Y008180D03*
X025180Y009180D03*
X025180Y010180D03*
X025180Y011180D03*
X028180Y011180D03*
X028180Y010180D03*
X028180Y009180D03*
X028180Y008180D03*
D11*
X025180Y006680D03*
X025180Y004680D03*
X029680Y010180D03*
X031680Y010180D03*
X031180Y013180D03*
X027180Y013180D03*
X026180Y013180D03*
X022180Y013180D03*
X019180Y012180D03*
X017680Y013180D03*
X017680Y015180D03*
X015680Y015180D03*
X014180Y015180D03*
X012180Y015180D03*
X010680Y015180D03*
X008680Y015180D03*
X007680Y013680D03*
X003680Y013680D03*
X013680Y013180D03*
X019180Y010180D03*
X012680Y008180D03*
X010680Y008180D03*
X007680Y007180D03*
X003680Y007180D03*
D12*
X003977Y009680D02*
X003383Y009680D01*
X003383Y010680D02*
X003977Y010680D01*
X003977Y004180D02*
X003383Y004180D01*
X003383Y003180D02*
X003977Y003180D01*
X019680Y005883D02*
X019680Y006477D01*
X020680Y006477D02*
X020680Y005883D01*
D13*
X015180Y004680D03*
X010180Y004680D03*
D14*
X010180Y002680D03*
X015180Y002680D03*
D15*
X012180Y011180D03*
X006180Y011180D03*
D16*
X022180Y003574D03*
X022180Y002786D03*
X029180Y002786D03*
X029180Y003574D03*
D17*
X024180Y001180D02*
X033180Y010180D01*
X033180Y013680D01*
X031680Y015180D01*
X026680Y015180D01*
X025180Y013680D01*
X025180Y012180D01*
X024680Y012180D01*
X022680Y010180D01*
X019180Y010180D01*
X017180Y010180D01*
X017180Y009180D02*
X016180Y008180D01*
X016180Y007680D01*
X017680Y006180D01*
X019680Y006180D01*
X021180Y004680D02*
X015180Y004680D01*
X015180Y009180D01*
X014180Y008180D01*
X012680Y008180D01*
X012180Y008180D01*
X009180Y005180D01*
X004680Y005180D01*
X003680Y004180D01*
X003680Y003180D02*
X004680Y002180D01*
X007680Y002180D01*
X010180Y004680D01*
X013680Y001180D01*
X024180Y001180D01*
X021180Y004680D02*
X023180Y006680D01*
X025180Y006680D01*
X025180Y008180D01*
X025180Y009180D02*
X025680Y009180D01*
X027680Y007180D01*
X028680Y007180D01*
X030680Y009180D01*
X030680Y010180D01*
X032180Y011680D01*
X032180Y013680D01*
X031680Y014180D01*
X028180Y014180D01*
X027180Y013180D01*
X026180Y013180D01*
X025180Y012180D02*
X030180Y012180D01*
X031180Y013180D01*
X030180Y012180D02*
X028180Y010180D01*
X029680Y010180D01*
X028180Y009180D02*
X026680Y009180D01*
X025680Y010180D01*
X025180Y010180D01*
X024680Y010180D01*
X022680Y008180D01*
X017180Y008180D01*
X015180Y009180D02*
X015180Y012180D01*
X017180Y014180D01*
X018180Y014180D01*
X019180Y013180D01*
X022180Y013180D01*
X017680Y013180D02*
X017680Y011680D01*
X017180Y011180D01*
X014180Y011180D02*
X013680Y011680D01*
X013680Y013180D01*
X016180Y014180D02*
X010180Y014180D01*
X014180Y010180D01*
X014180Y009180D02*
X009680Y009180D01*
X007680Y007180D01*
X006680Y006180D01*
X003180Y006180D01*
X002180Y007180D01*
X002180Y013680D01*
X004680Y016180D01*
X009680Y016180D01*
X010680Y015180D01*
X012180Y015180D01*
X010180Y014180D02*
X008180Y014180D01*
X007680Y013680D01*
X008180Y014180D02*
X008680Y014680D01*
X008680Y015180D01*
X003680Y013680D02*
X003680Y012180D01*
X006680Y012180D01*
X007680Y011180D01*
X012180Y011180D01*
X016180Y014180D02*
X017180Y015180D01*
X017680Y015180D01*
X006180Y011180D02*
X006180Y010180D01*
X003680Y007680D01*
X003680Y007180D01*
X003680Y007680D02*
X003680Y009680D01*
X003680Y010680D02*
X003680Y012180D01*
D18*
X000660Y016696D02*
X000660Y000660D01*
X034570Y000660D01*
X034570Y016696D01*
X000660Y016696D01*
X000660Y016664D02*
X034570Y016664D01*
X034570Y016506D02*
X009991Y016506D01*
X009935Y016561D02*
X009770Y016630D01*
X004590Y016630D01*
X004425Y016561D01*
X001925Y014061D01*
X001799Y013935D01*
X001730Y013770D01*
X001730Y007090D01*
X001799Y006925D01*
X002799Y005925D01*
X002925Y005799D01*
X003090Y005730D01*
X006770Y005730D01*
X006935Y005799D01*
X007856Y006720D01*
X007871Y006720D01*
X008140Y006989D01*
X008140Y007004D01*
X009866Y008730D01*
X013902Y008730D01*
X013952Y008680D01*
X013902Y008630D01*
X012881Y008630D01*
X012871Y008640D01*
X012489Y008640D01*
X012479Y008630D01*
X012090Y008630D01*
X011925Y008561D01*
X011799Y008435D01*
X008994Y005630D01*
X004590Y005630D01*
X004425Y005561D01*
X004299Y005435D01*
X003540Y004677D01*
X003284Y004677D01*
X003102Y004601D01*
X002962Y004461D01*
X002886Y004279D01*
X002886Y004081D01*
X002962Y003899D01*
X003102Y003759D01*
X003284Y003683D01*
X004076Y003683D01*
X004258Y003759D01*
X004398Y003899D01*
X004474Y004081D01*
X004474Y004279D01*
X004457Y004320D01*
X004866Y004730D01*
X009270Y004730D01*
X009435Y004799D01*
X009497Y004861D01*
X009480Y004819D01*
X009480Y004616D01*
X007494Y002630D01*
X004866Y002630D01*
X004457Y003040D01*
X004474Y003081D01*
X004474Y003279D01*
X004398Y003461D01*
X004258Y003601D01*
X004076Y003677D01*
X003284Y003677D01*
X003102Y003601D01*
X002962Y003461D01*
X002886Y003279D01*
X002886Y003081D01*
X002962Y002899D01*
X003102Y002759D01*
X003284Y002683D01*
X003540Y002683D01*
X004299Y001925D01*
X004425Y001799D01*
X004590Y001730D01*
X007770Y001730D01*
X007935Y001799D01*
X010116Y003980D01*
X010244Y003980D01*
X013299Y000925D01*
X013425Y000799D01*
X013590Y000730D01*
X024270Y000730D01*
X024435Y000799D01*
X033435Y009799D01*
X033561Y009925D01*
X033630Y010090D01*
X033630Y013770D01*
X033561Y013935D01*
X032061Y015435D01*
X031935Y015561D01*
X031770Y015630D01*
X026590Y015630D01*
X026425Y015561D01*
X024925Y014061D01*
X024799Y013935D01*
X024730Y013770D01*
X024730Y012630D01*
X024590Y012630D01*
X024425Y012561D01*
X022494Y010630D01*
X019381Y010630D01*
X019371Y010640D01*
X018989Y010640D01*
X018979Y010630D01*
X017458Y010630D01*
X017408Y010680D01*
X017695Y010967D01*
X017695Y011059D01*
X018061Y011425D01*
X018130Y011590D01*
X018130Y012979D01*
X018140Y012989D01*
X018140Y013371D01*
X017871Y013640D01*
X017489Y013640D01*
X017220Y013371D01*
X017220Y012989D01*
X017230Y012979D01*
X017230Y011866D01*
X017059Y011695D01*
X016967Y011695D01*
X016665Y011393D01*
X016665Y010967D01*
X016952Y010680D01*
X016665Y010393D01*
X016665Y009967D01*
X016952Y009680D01*
X016665Y009393D01*
X016665Y009301D01*
X015799Y008435D01*
X015730Y008270D01*
X015730Y007590D01*
X015799Y007425D01*
X015925Y007299D01*
X017425Y005799D01*
X017590Y005730D01*
X019206Y005730D01*
X019259Y005602D01*
X019399Y005462D01*
X019581Y005386D01*
X019779Y005386D01*
X019961Y005462D01*
X020101Y005602D01*
X020177Y005784D01*
X020177Y006576D01*
X020101Y006758D01*
X019961Y006898D01*
X019779Y006974D01*
X019581Y006974D01*
X019399Y006898D01*
X019259Y006758D01*
X019206Y006630D01*
X017866Y006630D01*
X016630Y007866D01*
X016630Y007994D01*
X016665Y008029D01*
X016665Y007967D01*
X016967Y007665D01*
X017393Y007665D01*
X017458Y007730D01*
X022770Y007730D01*
X022935Y007799D01*
X024866Y009730D01*
X024902Y009730D01*
X024952Y009680D01*
X024665Y009393D01*
X024665Y008967D01*
X024952Y008680D01*
X024665Y008393D01*
X024665Y007967D01*
X024730Y007902D01*
X024730Y007130D01*
X023090Y007130D01*
X022925Y007061D01*
X020994Y005130D01*
X015720Y005130D01*
X015630Y005220D01*
X015630Y011994D01*
X017366Y013730D01*
X017994Y013730D01*
X018925Y012799D01*
X019090Y012730D01*
X021979Y012730D01*
X021989Y012720D01*
X022371Y012720D01*
X022640Y012989D01*
X022640Y013371D01*
X022371Y013640D01*
X021989Y013640D01*
X021979Y013630D01*
X019366Y013630D01*
X018561Y014435D01*
X018435Y014561D01*
X018270Y014630D01*
X017266Y014630D01*
X017366Y014730D01*
X017479Y014730D01*
X017489Y014720D01*
X017871Y014720D01*
X018140Y014989D01*
X018140Y015371D01*
X017871Y015640D01*
X017489Y015640D01*
X017479Y015630D01*
X017090Y015630D01*
X016925Y015561D01*
X015994Y014630D01*
X009130Y014630D01*
X009130Y014979D01*
X009140Y014989D01*
X009140Y015371D01*
X008871Y015640D01*
X008489Y015640D01*
X008220Y015371D01*
X008220Y014989D01*
X008230Y014979D01*
X008230Y014866D01*
X007925Y014561D01*
X007799Y014435D01*
X007504Y014140D01*
X007489Y014140D01*
X007220Y013871D01*
X007220Y013489D01*
X007489Y013220D01*
X007871Y013220D01*
X008140Y013489D01*
X008140Y013504D01*
X008366Y013730D01*
X009994Y013730D01*
X012044Y011680D01*
X011973Y011680D01*
X011923Y011630D01*
X007866Y011630D01*
X007061Y012435D01*
X006935Y012561D01*
X006770Y012630D01*
X004130Y012630D01*
X004130Y013479D01*
X004140Y013489D01*
X004140Y013871D01*
X003871Y014140D01*
X003489Y014140D01*
X003220Y013871D01*
X003220Y013489D01*
X003230Y013479D01*
X003230Y011154D01*
X003102Y011101D01*
X002962Y010961D01*
X002886Y010779D01*
X002886Y010581D01*
X002962Y010399D01*
X003102Y010259D01*
X003284Y010183D01*
X004076Y010183D01*
X004258Y010259D01*
X004398Y010399D01*
X004474Y010581D01*
X004474Y010779D01*
X004398Y010961D01*
X004258Y011101D01*
X004130Y011154D01*
X004130Y011730D01*
X006494Y011730D01*
X007425Y010799D01*
X007590Y010730D01*
X011923Y010730D01*
X011973Y010680D01*
X012387Y010680D01*
X012680Y010973D01*
X012680Y011044D01*
X013665Y010059D01*
X013665Y009967D01*
X013952Y009680D01*
X013902Y009630D01*
X009590Y009630D01*
X009425Y009561D01*
X009299Y009435D01*
X007504Y007640D01*
X007489Y007640D01*
X007220Y007371D01*
X007220Y007356D01*
X006494Y006630D01*
X003366Y006630D01*
X002630Y007366D01*
X002630Y013494D01*
X004866Y015730D01*
X009494Y015730D01*
X010220Y015004D01*
X010220Y014989D01*
X010489Y014720D01*
X010871Y014720D01*
X010881Y014730D01*
X011979Y014730D01*
X011989Y014720D01*
X012371Y014720D01*
X012640Y014989D01*
X012640Y015371D01*
X012371Y015640D01*
X011989Y015640D01*
X011979Y015630D01*
X010881Y015630D01*
X010871Y015640D01*
X010856Y015640D01*
X010061Y016435D01*
X009935Y016561D01*
X010149Y016347D02*
X034570Y016347D01*
X034570Y016189D02*
X010308Y016189D01*
X010466Y016030D02*
X034570Y016030D01*
X034570Y015872D02*
X010625Y015872D01*
X010783Y015713D02*
X034570Y015713D01*
X034570Y015555D02*
X031942Y015555D01*
X032100Y015396D02*
X034570Y015396D01*
X034570Y015238D02*
X032259Y015238D01*
X032417Y015079D02*
X034570Y015079D01*
X034570Y014921D02*
X032576Y014921D01*
X032734Y014762D02*
X034570Y014762D01*
X034570Y014604D02*
X032893Y014604D01*
X033051Y014445D02*
X034570Y014445D01*
X034570Y014287D02*
X033210Y014287D01*
X033368Y014128D02*
X034570Y014128D01*
X034570Y013970D02*
X033527Y013970D01*
X033613Y013811D02*
X034570Y013811D01*
X034570Y013653D02*
X033630Y013653D01*
X033630Y013494D02*
X034570Y013494D01*
X034570Y013336D02*
X033630Y013336D01*
X033630Y013177D02*
X034570Y013177D01*
X034570Y013019D02*
X033630Y013019D01*
X033630Y012860D02*
X034570Y012860D01*
X034570Y012702D02*
X033630Y012702D01*
X033630Y012543D02*
X034570Y012543D01*
X034570Y012385D02*
X033630Y012385D01*
X033630Y012226D02*
X034570Y012226D01*
X034570Y012068D02*
X033630Y012068D01*
X033630Y011909D02*
X034570Y011909D01*
X034570Y011751D02*
X033630Y011751D01*
X033630Y011592D02*
X034570Y011592D01*
X034570Y011434D02*
X033630Y011434D01*
X033630Y011275D02*
X034570Y011275D01*
X034570Y011117D02*
X033630Y011117D01*
X033630Y010958D02*
X034570Y010958D01*
X034570Y010800D02*
X033630Y010800D01*
X033630Y010641D02*
X034570Y010641D01*
X034570Y010483D02*
X033630Y010483D01*
X033630Y010324D02*
X034570Y010324D01*
X034570Y010166D02*
X033630Y010166D01*
X033595Y010007D02*
X034570Y010007D01*
X034570Y009849D02*
X033485Y009849D01*
X033326Y009690D02*
X034570Y009690D01*
X034570Y009532D02*
X033168Y009532D01*
X033009Y009373D02*
X034570Y009373D01*
X034570Y009215D02*
X032851Y009215D01*
X032692Y009056D02*
X034570Y009056D01*
X034570Y008898D02*
X032534Y008898D01*
X032375Y008739D02*
X034570Y008739D01*
X034570Y008581D02*
X032217Y008581D01*
X032058Y008422D02*
X034570Y008422D01*
X034570Y008264D02*
X031900Y008264D01*
X031741Y008105D02*
X034570Y008105D01*
X034570Y007947D02*
X031583Y007947D01*
X031424Y007788D02*
X034570Y007788D01*
X034570Y007630D02*
X031266Y007630D01*
X031107Y007471D02*
X034570Y007471D01*
X034570Y007313D02*
X030949Y007313D01*
X030790Y007154D02*
X034570Y007154D01*
X034570Y006996D02*
X030632Y006996D01*
X030473Y006837D02*
X034570Y006837D01*
X034570Y006679D02*
X030315Y006679D01*
X030156Y006520D02*
X034570Y006520D01*
X034570Y006362D02*
X029998Y006362D01*
X029839Y006203D02*
X034570Y006203D01*
X034570Y006045D02*
X029681Y006045D01*
X029522Y005886D02*
X034570Y005886D01*
X034570Y005728D02*
X029364Y005728D01*
X029205Y005569D02*
X034570Y005569D01*
X034570Y005411D02*
X029047Y005411D01*
X028888Y005252D02*
X034570Y005252D01*
X034570Y005094D02*
X028730Y005094D01*
X028571Y004935D02*
X034570Y004935D01*
X034570Y004777D02*
X028413Y004777D01*
X028254Y004618D02*
X034570Y004618D01*
X034570Y004460D02*
X028096Y004460D01*
X027937Y004301D02*
X034570Y004301D01*
X034570Y004143D02*
X027779Y004143D01*
X027620Y003984D02*
X028924Y003984D01*
X028910Y003978D02*
X028775Y003844D01*
X028703Y003669D01*
X028703Y003479D01*
X028775Y003303D01*
X028899Y003180D01*
X028775Y003057D01*
X028703Y002881D01*
X028703Y002691D01*
X028775Y002516D01*
X028910Y002382D01*
X029085Y002309D01*
X029275Y002309D01*
X029450Y002382D01*
X029585Y002516D01*
X029657Y002691D01*
X029657Y002881D01*
X029585Y003057D01*
X029461Y003180D01*
X029585Y003303D01*
X029657Y003479D01*
X029657Y003669D01*
X029585Y003844D01*
X029450Y003978D01*
X029275Y004051D01*
X029085Y004051D01*
X028910Y003978D01*
X028768Y003826D02*
X027462Y003826D01*
X027303Y003667D02*
X028703Y003667D01*
X028703Y003509D02*
X027145Y003509D01*
X026986Y003350D02*
X028756Y003350D01*
X028887Y003192D02*
X026828Y003192D01*
X026669Y003033D02*
X028766Y003033D01*
X028703Y002875D02*
X026511Y002875D01*
X026352Y002716D02*
X028703Y002716D01*
X028758Y002558D02*
X026194Y002558D01*
X026035Y002399D02*
X028892Y002399D01*
X029468Y002399D02*
X034570Y002399D01*
X034570Y002241D02*
X025877Y002241D01*
X025718Y002082D02*
X034570Y002082D01*
X034570Y001924D02*
X025560Y001924D01*
X025401Y001765D02*
X034570Y001765D01*
X034570Y001607D02*
X025243Y001607D01*
X025084Y001448D02*
X034570Y001448D01*
X034570Y001290D02*
X024926Y001290D01*
X024767Y001131D02*
X034570Y001131D01*
X034570Y000973D02*
X024609Y000973D01*
X024450Y000814D02*
X034570Y000814D01*
X034570Y002558D02*
X029602Y002558D01*
X029657Y002716D02*
X034570Y002716D01*
X034570Y002875D02*
X029657Y002875D01*
X029594Y003033D02*
X034570Y003033D01*
X034570Y003192D02*
X029473Y003192D01*
X029604Y003350D02*
X034570Y003350D01*
X034570Y003509D02*
X029657Y003509D01*
X029657Y003667D02*
X034570Y003667D01*
X034570Y003826D02*
X029592Y003826D01*
X029436Y003984D02*
X034570Y003984D01*
X029042Y006679D02*
X025640Y006679D01*
X025640Y006837D02*
X027387Y006837D01*
X027425Y006799D02*
X027590Y006730D01*
X028770Y006730D01*
X028935Y006799D01*
X030935Y008799D01*
X031061Y008925D01*
X031130Y009090D01*
X031130Y009994D01*
X031240Y010104D01*
X031240Y009998D01*
X031498Y009740D01*
X031680Y009740D01*
X031862Y009740D01*
X032120Y009998D01*
X032120Y010180D01*
X032120Y010362D01*
X031862Y010620D01*
X031756Y010620D01*
X032435Y011299D01*
X032561Y011425D01*
X032630Y011590D01*
X032630Y013594D01*
X032730Y013494D01*
X032730Y010366D01*
X023994Y001630D01*
X013866Y001630D01*
X010880Y004616D01*
X010880Y004819D01*
X010773Y005077D01*
X010577Y005273D01*
X010319Y005380D01*
X010041Y005380D01*
X009999Y005363D01*
X012366Y007730D01*
X012479Y007730D01*
X012489Y007720D01*
X012871Y007720D01*
X012881Y007730D01*
X013902Y007730D01*
X013967Y007665D01*
X014393Y007665D01*
X014695Y007967D01*
X014695Y008059D01*
X014730Y008094D01*
X014730Y005220D01*
X014587Y005077D01*
X014480Y004819D01*
X014480Y004541D01*
X014587Y004283D01*
X014783Y004087D01*
X015041Y003980D01*
X015319Y003980D01*
X015577Y004087D01*
X015720Y004230D01*
X021270Y004230D01*
X021435Y004299D01*
X021561Y004425D01*
X023366Y006230D01*
X024979Y006230D01*
X024989Y006220D01*
X025371Y006220D01*
X025640Y006489D01*
X025640Y006871D01*
X025630Y006881D01*
X025630Y007902D01*
X025695Y007967D01*
X025695Y008393D01*
X025408Y008680D01*
X025458Y008730D01*
X025494Y008730D01*
X027299Y006925D01*
X027425Y006799D01*
X027228Y006996D02*
X025630Y006996D01*
X025630Y007154D02*
X027070Y007154D01*
X026911Y007313D02*
X025630Y007313D01*
X025630Y007471D02*
X026753Y007471D01*
X026594Y007630D02*
X025630Y007630D01*
X025630Y007788D02*
X026436Y007788D01*
X026277Y007947D02*
X025675Y007947D01*
X025695Y008105D02*
X026119Y008105D01*
X025960Y008264D02*
X025695Y008264D01*
X025666Y008422D02*
X025802Y008422D01*
X025643Y008581D02*
X025508Y008581D01*
X024893Y008739D02*
X023875Y008739D01*
X023717Y008581D02*
X024852Y008581D01*
X024694Y008422D02*
X023558Y008422D01*
X023400Y008264D02*
X024665Y008264D01*
X024665Y008105D02*
X023241Y008105D01*
X023083Y007947D02*
X024685Y007947D01*
X024730Y007788D02*
X022910Y007788D01*
X022859Y006996D02*
X017501Y006996D01*
X017342Y007154D02*
X024730Y007154D01*
X024730Y007313D02*
X017184Y007313D01*
X017025Y007471D02*
X024730Y007471D01*
X024730Y007630D02*
X016867Y007630D01*
X016844Y007788D02*
X016708Y007788D01*
X016685Y007947D02*
X016630Y007947D01*
X015730Y007947D02*
X015630Y007947D01*
X015630Y008105D02*
X015730Y008105D01*
X015730Y008264D02*
X015630Y008264D01*
X015630Y008422D02*
X015793Y008422D01*
X015944Y008581D02*
X015630Y008581D01*
X015630Y008739D02*
X016103Y008739D01*
X016261Y008898D02*
X015630Y008898D01*
X015630Y009056D02*
X016420Y009056D01*
X016578Y009215D02*
X015630Y009215D01*
X015630Y009373D02*
X016665Y009373D01*
X016803Y009532D02*
X015630Y009532D01*
X015630Y009690D02*
X016942Y009690D01*
X016783Y009849D02*
X015630Y009849D01*
X015630Y010007D02*
X016665Y010007D01*
X016665Y010166D02*
X015630Y010166D01*
X015630Y010324D02*
X016665Y010324D01*
X016754Y010483D02*
X015630Y010483D01*
X015630Y010641D02*
X016913Y010641D01*
X016832Y010800D02*
X015630Y010800D01*
X015630Y010958D02*
X016674Y010958D01*
X016665Y011117D02*
X015630Y011117D01*
X015630Y011275D02*
X016665Y011275D01*
X016705Y011434D02*
X015630Y011434D01*
X015630Y011592D02*
X016864Y011592D01*
X017114Y011751D02*
X015630Y011751D01*
X015630Y011909D02*
X017230Y011909D01*
X017230Y012068D02*
X015704Y012068D01*
X015862Y012226D02*
X017230Y012226D01*
X017230Y012385D02*
X016021Y012385D01*
X016179Y012543D02*
X017230Y012543D01*
X017230Y012702D02*
X016338Y012702D01*
X016496Y012860D02*
X017230Y012860D01*
X017220Y013019D02*
X016655Y013019D01*
X016813Y013177D02*
X017220Y013177D01*
X017220Y013336D02*
X016972Y013336D01*
X017130Y013494D02*
X017343Y013494D01*
X017289Y013653D02*
X018071Y013653D01*
X018017Y013494D02*
X018230Y013494D01*
X018140Y013336D02*
X018388Y013336D01*
X018547Y013177D02*
X018140Y013177D01*
X018140Y013019D02*
X018705Y013019D01*
X018864Y012860D02*
X018130Y012860D01*
X018130Y012702D02*
X024730Y012702D01*
X024730Y012860D02*
X022511Y012860D01*
X022640Y013019D02*
X024730Y013019D01*
X024730Y013177D02*
X022640Y013177D01*
X022640Y013336D02*
X024730Y013336D01*
X024730Y013494D02*
X022517Y013494D01*
X024248Y012385D02*
X019598Y012385D01*
X019620Y012362D02*
X019362Y012620D01*
X019180Y012620D01*
X019180Y012180D01*
X019180Y012180D01*
X019620Y012180D01*
X019620Y012362D01*
X019620Y012226D02*
X024090Y012226D01*
X023931Y012068D02*
X019620Y012068D01*
X019620Y011998D02*
X019620Y012180D01*
X019180Y012180D01*
X019180Y012180D01*
X019180Y012180D01*
X018740Y012180D01*
X018740Y012362D01*
X018998Y012620D01*
X019180Y012620D01*
X019180Y012180D01*
X019180Y011740D01*
X019362Y011740D01*
X019620Y011998D01*
X019531Y011909D02*
X023773Y011909D01*
X023614Y011751D02*
X019373Y011751D01*
X019180Y011751D02*
X019180Y011751D01*
X019180Y011740D02*
X019180Y012180D01*
X019180Y012180D01*
X018740Y012180D01*
X018740Y011998D01*
X018998Y011740D01*
X019180Y011740D01*
X019180Y011909D02*
X019180Y011909D01*
X019180Y012068D02*
X019180Y012068D01*
X019180Y012226D02*
X019180Y012226D01*
X019180Y012385D02*
X019180Y012385D01*
X019180Y012543D02*
X019180Y012543D01*
X019439Y012543D02*
X024407Y012543D01*
X024730Y013653D02*
X019344Y013653D01*
X019185Y013811D02*
X024747Y013811D01*
X024833Y013970D02*
X019027Y013970D01*
X018868Y014128D02*
X024992Y014128D01*
X025150Y014287D02*
X018710Y014287D01*
X018561Y014435D02*
X018561Y014435D01*
X018551Y014445D02*
X025309Y014445D01*
X025467Y014604D02*
X018333Y014604D01*
X018071Y014921D02*
X025784Y014921D01*
X025943Y015079D02*
X018140Y015079D01*
X018140Y015238D02*
X026101Y015238D01*
X026260Y015396D02*
X018115Y015396D01*
X017956Y015555D02*
X026418Y015555D01*
X025626Y014762D02*
X017913Y014762D01*
X016760Y015396D02*
X016086Y015396D01*
X016120Y015362D02*
X015862Y015620D01*
X015680Y015620D01*
X015680Y015180D01*
X016120Y015180D01*
X016120Y015362D01*
X016120Y015238D02*
X016601Y015238D01*
X016443Y015079D02*
X016120Y015079D01*
X016120Y014998D02*
X016120Y015180D01*
X015680Y015180D01*
X015680Y015180D01*
X015680Y015180D01*
X015680Y014740D01*
X015862Y014740D01*
X016120Y014998D01*
X016043Y014921D02*
X016284Y014921D01*
X016126Y014762D02*
X015884Y014762D01*
X015680Y014762D02*
X015680Y014762D01*
X015680Y014740D02*
X015498Y014740D01*
X015240Y014998D01*
X015240Y015180D01*
X015680Y015180D01*
X015680Y015180D01*
X015680Y015180D01*
X015680Y015620D01*
X015498Y015620D01*
X015240Y015362D01*
X015240Y015180D01*
X015680Y015180D01*
X015680Y014740D01*
X015680Y014921D02*
X015680Y014921D01*
X015680Y015079D02*
X015680Y015079D01*
X015680Y015238D02*
X015680Y015238D01*
X015680Y015396D02*
X015680Y015396D01*
X015680Y015555D02*
X015680Y015555D01*
X015928Y015555D02*
X016918Y015555D01*
X015432Y015555D02*
X014428Y015555D01*
X014362Y015620D02*
X014180Y015620D01*
X014180Y015180D01*
X014620Y015180D01*
X014620Y015362D01*
X014362Y015620D01*
X014180Y015620D02*
X013998Y015620D01*
X013740Y015362D01*
X013740Y015180D01*
X014180Y015180D01*
X014180Y015180D01*
X014180Y015180D01*
X014620Y015180D01*
X014620Y014998D01*
X014362Y014740D01*
X014180Y014740D01*
X014180Y015180D01*
X014180Y015180D01*
X014180Y015180D01*
X014180Y015620D01*
X014180Y015555D02*
X014180Y015555D01*
X014180Y015396D02*
X014180Y015396D01*
X014180Y015238D02*
X014180Y015238D01*
X014180Y015180D02*
X013740Y015180D01*
X013740Y014998D01*
X013998Y014740D01*
X014180Y014740D01*
X014180Y015180D01*
X014180Y015079D02*
X014180Y015079D01*
X014180Y014921D02*
X014180Y014921D01*
X014180Y014762D02*
X014180Y014762D01*
X014384Y014762D02*
X015476Y014762D01*
X015317Y014921D02*
X014543Y014921D01*
X014620Y015079D02*
X015240Y015079D01*
X015240Y015238D02*
X014620Y015238D01*
X014586Y015396D02*
X015274Y015396D01*
X013932Y015555D02*
X012456Y015555D01*
X012615Y015396D02*
X013774Y015396D01*
X013740Y015238D02*
X012640Y015238D01*
X012640Y015079D02*
X013740Y015079D01*
X013817Y014921D02*
X012571Y014921D01*
X012413Y014762D02*
X013976Y014762D01*
X010447Y014762D02*
X009130Y014762D01*
X009130Y014921D02*
X010289Y014921D01*
X010145Y015079D02*
X009140Y015079D01*
X009140Y015238D02*
X009986Y015238D01*
X009828Y015396D02*
X009115Y015396D01*
X008956Y015555D02*
X009669Y015555D01*
X009511Y015713D02*
X004849Y015713D01*
X004691Y015555D02*
X008404Y015555D01*
X008245Y015396D02*
X004532Y015396D01*
X004374Y015238D02*
X008220Y015238D01*
X008220Y015079D02*
X004215Y015079D01*
X004057Y014921D02*
X008230Y014921D01*
X008126Y014762D02*
X003898Y014762D01*
X003740Y014604D02*
X007967Y014604D01*
X007809Y014445D02*
X003581Y014445D01*
X003423Y014287D02*
X007650Y014287D01*
X007477Y014128D02*
X003883Y014128D01*
X004041Y013970D02*
X007319Y013970D01*
X007220Y013811D02*
X004140Y013811D01*
X004140Y013653D02*
X007220Y013653D01*
X007220Y013494D02*
X004140Y013494D01*
X004130Y013336D02*
X007374Y013336D01*
X007986Y013336D02*
X010388Y013336D01*
X010230Y013494D02*
X008140Y013494D01*
X008289Y013653D02*
X010071Y013653D01*
X010547Y013177D02*
X004130Y013177D01*
X004130Y013019D02*
X010705Y013019D01*
X010864Y012860D02*
X004130Y012860D01*
X004130Y012702D02*
X011022Y012702D01*
X011181Y012543D02*
X006953Y012543D01*
X007112Y012385D02*
X011339Y012385D01*
X011498Y012226D02*
X007270Y012226D01*
X007429Y012068D02*
X011656Y012068D01*
X011815Y011909D02*
X007587Y011909D01*
X007746Y011751D02*
X011973Y011751D01*
X012665Y010958D02*
X012766Y010958D01*
X012924Y010800D02*
X012507Y010800D01*
X013083Y010641D02*
X006630Y010641D01*
X006630Y010483D02*
X013241Y010483D01*
X013400Y010324D02*
X006630Y010324D01*
X006630Y010166D02*
X013558Y010166D01*
X013665Y010007D02*
X006595Y010007D01*
X006561Y009925D02*
X006630Y010090D01*
X006630Y010923D01*
X006680Y010973D01*
X006680Y011387D01*
X006387Y011680D01*
X005973Y011680D01*
X005680Y011387D01*
X005680Y010973D01*
X005730Y010923D01*
X005730Y010366D01*
X004130Y008766D01*
X004130Y009206D01*
X004258Y009259D01*
X004398Y009399D01*
X004474Y009581D01*
X004474Y009779D01*
X004398Y009961D01*
X004258Y010101D01*
X004076Y010177D01*
X003284Y010177D01*
X003102Y010101D01*
X002962Y009961D01*
X002886Y009779D01*
X002886Y009581D01*
X002962Y009399D01*
X003102Y009259D01*
X003230Y009206D01*
X003230Y007381D01*
X003220Y007371D01*
X003220Y006989D01*
X003489Y006720D01*
X003871Y006720D01*
X004140Y006989D01*
X004140Y007371D01*
X004130Y007381D01*
X004130Y007494D01*
X006561Y009925D01*
X006485Y009849D02*
X013783Y009849D01*
X013942Y009690D02*
X006326Y009690D01*
X006168Y009532D02*
X009395Y009532D01*
X009237Y009373D02*
X006009Y009373D01*
X005851Y009215D02*
X009078Y009215D01*
X008920Y009056D02*
X005692Y009056D01*
X005534Y008898D02*
X008761Y008898D01*
X008603Y008739D02*
X005375Y008739D01*
X005217Y008581D02*
X008444Y008581D01*
X008286Y008422D02*
X005058Y008422D01*
X004900Y008264D02*
X008127Y008264D01*
X007969Y008105D02*
X004741Y008105D01*
X004583Y007947D02*
X007810Y007947D01*
X007652Y007788D02*
X004424Y007788D01*
X004266Y007630D02*
X007479Y007630D01*
X007320Y007471D02*
X004130Y007471D01*
X004140Y007313D02*
X007176Y007313D01*
X007018Y007154D02*
X004140Y007154D01*
X004140Y006996D02*
X006859Y006996D01*
X006701Y006837D02*
X003988Y006837D01*
X003372Y006837D02*
X003159Y006837D01*
X003220Y006996D02*
X003001Y006996D01*
X002842Y007154D02*
X003220Y007154D01*
X003220Y007313D02*
X002684Y007313D01*
X002630Y007471D02*
X003230Y007471D01*
X003230Y007630D02*
X002630Y007630D01*
X002630Y007788D02*
X003230Y007788D01*
X003230Y007947D02*
X002630Y007947D01*
X002630Y008105D02*
X003230Y008105D01*
X003230Y008264D02*
X002630Y008264D01*
X002630Y008422D02*
X003230Y008422D01*
X003230Y008581D02*
X002630Y008581D01*
X002630Y008739D02*
X003230Y008739D01*
X003230Y008898D02*
X002630Y008898D01*
X002630Y009056D02*
X003230Y009056D01*
X003209Y009215D02*
X002630Y009215D01*
X002630Y009373D02*
X002987Y009373D01*
X002907Y009532D02*
X002630Y009532D01*
X002630Y009690D02*
X002886Y009690D01*
X002915Y009849D02*
X002630Y009849D01*
X002630Y010007D02*
X003008Y010007D01*
X003257Y010166D02*
X002630Y010166D01*
X002630Y010324D02*
X003036Y010324D01*
X002927Y010483D02*
X002630Y010483D01*
X002630Y010641D02*
X002886Y010641D01*
X002895Y010800D02*
X002630Y010800D01*
X002630Y010958D02*
X002961Y010958D01*
X003139Y011117D02*
X002630Y011117D01*
X002630Y011275D02*
X003230Y011275D01*
X003230Y011434D02*
X002630Y011434D01*
X002630Y011592D02*
X003230Y011592D01*
X003230Y011751D02*
X002630Y011751D01*
X002630Y011909D02*
X003230Y011909D01*
X003230Y012068D02*
X002630Y012068D01*
X002630Y012226D02*
X003230Y012226D01*
X003230Y012385D02*
X002630Y012385D01*
X002630Y012543D02*
X003230Y012543D01*
X003230Y012702D02*
X002630Y012702D01*
X002630Y012860D02*
X003230Y012860D01*
X003230Y013019D02*
X002630Y013019D01*
X002630Y013177D02*
X003230Y013177D01*
X003230Y013336D02*
X002630Y013336D01*
X002630Y013494D02*
X003220Y013494D01*
X003220Y013653D02*
X002789Y013653D01*
X002947Y013811D02*
X003220Y013811D01*
X003319Y013970D02*
X003106Y013970D01*
X003264Y014128D02*
X003477Y014128D01*
X002467Y014604D02*
X000660Y014604D01*
X000660Y014762D02*
X002626Y014762D01*
X002784Y014921D02*
X000660Y014921D01*
X000660Y015079D02*
X002943Y015079D01*
X003101Y015238D02*
X000660Y015238D01*
X000660Y015396D02*
X003260Y015396D01*
X003418Y015555D02*
X000660Y015555D01*
X000660Y015713D02*
X003577Y015713D01*
X003735Y015872D02*
X000660Y015872D01*
X000660Y016030D02*
X003894Y016030D01*
X004052Y016189D02*
X000660Y016189D01*
X000660Y016347D02*
X004211Y016347D01*
X004369Y016506D02*
X000660Y016506D01*
X000660Y014445D02*
X002309Y014445D01*
X002150Y014287D02*
X000660Y014287D01*
X000660Y014128D02*
X001992Y014128D01*
X001833Y013970D02*
X000660Y013970D01*
X000660Y013811D02*
X001747Y013811D01*
X001730Y013653D02*
X000660Y013653D01*
X000660Y013494D02*
X001730Y013494D01*
X001730Y013336D02*
X000660Y013336D01*
X000660Y013177D02*
X001730Y013177D01*
X001730Y013019D02*
X000660Y013019D01*
X000660Y012860D02*
X001730Y012860D01*
X001730Y012702D02*
X000660Y012702D01*
X000660Y012543D02*
X001730Y012543D01*
X001730Y012385D02*
X000660Y012385D01*
X000660Y012226D02*
X001730Y012226D01*
X001730Y012068D02*
X000660Y012068D01*
X000660Y011909D02*
X001730Y011909D01*
X001730Y011751D02*
X000660Y011751D01*
X000660Y011592D02*
X001730Y011592D01*
X001730Y011434D02*
X000660Y011434D01*
X000660Y011275D02*
X001730Y011275D01*
X001730Y011117D02*
X000660Y011117D01*
X000660Y010958D02*
X001730Y010958D01*
X001730Y010800D02*
X000660Y010800D01*
X000660Y010641D02*
X001730Y010641D01*
X001730Y010483D02*
X000660Y010483D01*
X000660Y010324D02*
X001730Y010324D01*
X001730Y010166D02*
X000660Y010166D01*
X000660Y010007D02*
X001730Y010007D01*
X001730Y009849D02*
X000660Y009849D01*
X000660Y009690D02*
X001730Y009690D01*
X001730Y009532D02*
X000660Y009532D01*
X000660Y009373D02*
X001730Y009373D01*
X001730Y009215D02*
X000660Y009215D01*
X000660Y009056D02*
X001730Y009056D01*
X001730Y008898D02*
X000660Y008898D01*
X000660Y008739D02*
X001730Y008739D01*
X001730Y008581D02*
X000660Y008581D01*
X000660Y008422D02*
X001730Y008422D01*
X001730Y008264D02*
X000660Y008264D01*
X000660Y008105D02*
X001730Y008105D01*
X001730Y007947D02*
X000660Y007947D01*
X000660Y007788D02*
X001730Y007788D01*
X001730Y007630D02*
X000660Y007630D01*
X000660Y007471D02*
X001730Y007471D01*
X001730Y007313D02*
X000660Y007313D01*
X000660Y007154D02*
X001730Y007154D01*
X001769Y006996D02*
X000660Y006996D01*
X000660Y006837D02*
X001887Y006837D01*
X002045Y006679D02*
X000660Y006679D01*
X000660Y006520D02*
X002204Y006520D01*
X002362Y006362D02*
X000660Y006362D01*
X000660Y006203D02*
X002521Y006203D01*
X002679Y006045D02*
X000660Y006045D01*
X000660Y005886D02*
X002838Y005886D01*
X004116Y005252D02*
X000660Y005252D01*
X000660Y005094D02*
X003957Y005094D01*
X003799Y004935D02*
X000660Y004935D01*
X000660Y004777D02*
X003640Y004777D01*
X003142Y004618D02*
X000660Y004618D01*
X000660Y004460D02*
X002961Y004460D01*
X002895Y004301D02*
X000660Y004301D01*
X000660Y004143D02*
X002886Y004143D01*
X002927Y003984D02*
X000660Y003984D01*
X000660Y003826D02*
X003035Y003826D01*
X003261Y003667D02*
X000660Y003667D01*
X000660Y003509D02*
X003009Y003509D01*
X002916Y003350D02*
X000660Y003350D01*
X000660Y003192D02*
X002886Y003192D01*
X002906Y003033D02*
X000660Y003033D01*
X000660Y002875D02*
X002986Y002875D01*
X003205Y002716D02*
X000660Y002716D01*
X000660Y002558D02*
X003666Y002558D01*
X003825Y002399D02*
X000660Y002399D01*
X000660Y002241D02*
X003983Y002241D01*
X004142Y002082D02*
X000660Y002082D01*
X000660Y001924D02*
X004300Y001924D01*
X004506Y001765D02*
X000660Y001765D01*
X000660Y001607D02*
X012617Y001607D01*
X012459Y001765D02*
X007854Y001765D01*
X008060Y001924D02*
X012300Y001924D01*
X012142Y002082D02*
X010544Y002082D01*
X010462Y002000D02*
X010860Y002398D01*
X010860Y002660D01*
X010200Y002660D01*
X010200Y002700D01*
X010160Y002700D01*
X010160Y003360D01*
X009898Y003360D01*
X009500Y002962D01*
X009500Y002700D01*
X010160Y002700D01*
X010160Y002660D01*
X009500Y002660D01*
X009500Y002398D01*
X009898Y002000D01*
X010160Y002000D01*
X010160Y002660D01*
X010200Y002660D01*
X010200Y002000D01*
X010462Y002000D01*
X010200Y002082D02*
X010160Y002082D01*
X010160Y002241D02*
X010200Y002241D01*
X010200Y002399D02*
X010160Y002399D01*
X010160Y002558D02*
X010200Y002558D01*
X010200Y002700D02*
X010860Y002700D01*
X010860Y002962D01*
X010462Y003360D01*
X010200Y003360D01*
X010200Y002700D01*
X010200Y002716D02*
X010160Y002716D01*
X010160Y002875D02*
X010200Y002875D01*
X010200Y003033D02*
X010160Y003033D01*
X010160Y003192D02*
X010200Y003192D01*
X010200Y003350D02*
X010160Y003350D01*
X009888Y003350D02*
X009486Y003350D01*
X009328Y003192D02*
X009730Y003192D01*
X009571Y003033D02*
X009169Y003033D01*
X009011Y002875D02*
X009500Y002875D01*
X009500Y002716D02*
X008852Y002716D01*
X008694Y002558D02*
X009500Y002558D01*
X009500Y002399D02*
X008535Y002399D01*
X008377Y002241D02*
X009658Y002241D01*
X009816Y002082D02*
X008218Y002082D01*
X007580Y002716D02*
X004780Y002716D01*
X004622Y002875D02*
X007738Y002875D01*
X007897Y003033D02*
X004463Y003033D01*
X004474Y003192D02*
X008055Y003192D01*
X008214Y003350D02*
X004444Y003350D01*
X004351Y003509D02*
X008372Y003509D01*
X008531Y003667D02*
X004099Y003667D01*
X004325Y003826D02*
X008689Y003826D01*
X008848Y003984D02*
X004433Y003984D01*
X004474Y004143D02*
X009006Y004143D01*
X009165Y004301D02*
X004465Y004301D01*
X004596Y004460D02*
X009323Y004460D01*
X009480Y004618D02*
X004754Y004618D01*
X004274Y005411D02*
X000660Y005411D01*
X000660Y005569D02*
X004443Y005569D01*
X003318Y006679D02*
X006542Y006679D01*
X007339Y006203D02*
X009567Y006203D01*
X009725Y006362D02*
X007498Y006362D01*
X007656Y006520D02*
X009884Y006520D01*
X010042Y006679D02*
X007815Y006679D01*
X007988Y006837D02*
X010201Y006837D01*
X010359Y006996D02*
X008140Y006996D01*
X008290Y007154D02*
X010518Y007154D01*
X010676Y007313D02*
X008449Y007313D01*
X008607Y007471D02*
X010835Y007471D01*
X010993Y007630D02*
X008766Y007630D01*
X008924Y007788D02*
X010450Y007788D01*
X010498Y007740D02*
X010680Y007740D01*
X010862Y007740D01*
X011120Y007998D01*
X011120Y008180D01*
X011120Y008362D01*
X010862Y008620D01*
X010680Y008620D01*
X010680Y008180D01*
X011120Y008180D01*
X010680Y008180D01*
X010680Y008180D01*
X010680Y008180D01*
X010680Y007740D01*
X010680Y008180D01*
X010680Y008180D01*
X010680Y008180D01*
X010240Y008180D01*
X010240Y008362D01*
X010498Y008620D01*
X010680Y008620D01*
X010680Y008180D01*
X010240Y008180D01*
X010240Y007998D01*
X010498Y007740D01*
X010680Y007788D02*
X010680Y007788D01*
X010680Y007947D02*
X010680Y007947D01*
X010680Y008105D02*
X010680Y008105D01*
X010680Y008264D02*
X010680Y008264D01*
X010680Y008422D02*
X010680Y008422D01*
X010680Y008581D02*
X010680Y008581D01*
X010902Y008581D02*
X011971Y008581D01*
X011786Y008422D02*
X011060Y008422D01*
X011120Y008264D02*
X011627Y008264D01*
X011469Y008105D02*
X011120Y008105D01*
X011069Y007947D02*
X011310Y007947D01*
X011152Y007788D02*
X010910Y007788D01*
X010291Y007947D02*
X009083Y007947D01*
X009241Y008105D02*
X010240Y008105D01*
X010240Y008264D02*
X009400Y008264D01*
X009558Y008422D02*
X010300Y008422D01*
X010458Y008581D02*
X009717Y008581D01*
X011949Y007313D02*
X014730Y007313D01*
X014730Y007471D02*
X012107Y007471D01*
X012266Y007630D02*
X014730Y007630D01*
X014730Y007788D02*
X014516Y007788D01*
X014675Y007947D02*
X014730Y007947D01*
X015630Y007788D02*
X015730Y007788D01*
X015730Y007630D02*
X015630Y007630D01*
X015630Y007471D02*
X015779Y007471D01*
X015911Y007313D02*
X015630Y007313D01*
X015630Y007154D02*
X016070Y007154D01*
X016228Y006996D02*
X015630Y006996D01*
X015630Y006837D02*
X016387Y006837D01*
X016545Y006679D02*
X015630Y006679D01*
X015630Y006520D02*
X016704Y006520D01*
X016862Y006362D02*
X015630Y006362D01*
X015630Y006203D02*
X017021Y006203D01*
X017179Y006045D02*
X015630Y006045D01*
X015630Y005886D02*
X017338Y005886D01*
X017818Y006679D02*
X019226Y006679D01*
X019338Y006837D02*
X017659Y006837D01*
X019207Y005728D02*
X015630Y005728D01*
X015630Y005569D02*
X019291Y005569D01*
X019523Y005411D02*
X015630Y005411D01*
X015630Y005252D02*
X021116Y005252D01*
X021274Y005411D02*
X020744Y005411D01*
X020718Y005406D02*
X020792Y005418D01*
X020863Y005441D01*
X020930Y005475D01*
X020991Y005519D01*
X021044Y005573D01*
X021088Y005633D01*
X021122Y005700D01*
X021145Y005771D01*
X021157Y005846D01*
X021157Y006162D01*
X020698Y006162D01*
X020698Y006198D01*
X021157Y006198D01*
X021157Y006514D01*
X021145Y006589D01*
X021122Y006660D01*
X021088Y006727D01*
X021044Y006787D01*
X020991Y006841D01*
X020930Y006885D01*
X020863Y006919D01*
X020792Y006942D01*
X020718Y006954D01*
X020698Y006954D01*
X020698Y006198D01*
X020662Y006198D01*
X020662Y006162D01*
X020698Y006162D01*
X020698Y005406D01*
X020718Y005406D01*
X020698Y005411D02*
X020662Y005411D01*
X020662Y005406D02*
X020662Y006162D01*
X020203Y006162D01*
X020203Y005846D01*
X020215Y005771D01*
X020238Y005700D01*
X020272Y005633D01*
X020316Y005573D01*
X020369Y005519D01*
X020430Y005475D01*
X020497Y005441D01*
X020568Y005418D01*
X020642Y005406D01*
X020662Y005406D01*
X020616Y005411D02*
X019837Y005411D01*
X020069Y005569D02*
X020320Y005569D01*
X020229Y005728D02*
X020153Y005728D01*
X020177Y005886D02*
X020203Y005886D01*
X020203Y006045D02*
X020177Y006045D01*
X020203Y006198D02*
X020662Y006198D01*
X020662Y006954D01*
X020642Y006954D01*
X020568Y006942D01*
X020497Y006919D01*
X020430Y006885D01*
X020369Y006841D01*
X020316Y006787D01*
X020272Y006727D01*
X020238Y006660D01*
X020215Y006589D01*
X020203Y006514D01*
X020203Y006198D01*
X020203Y006203D02*
X020177Y006203D01*
X020177Y006362D02*
X020203Y006362D01*
X020204Y006520D02*
X020177Y006520D01*
X020134Y006679D02*
X020248Y006679D01*
X020366Y006837D02*
X020022Y006837D01*
X020662Y006837D02*
X020698Y006837D01*
X020698Y006679D02*
X020662Y006679D01*
X020662Y006520D02*
X020698Y006520D01*
X020698Y006362D02*
X020662Y006362D01*
X020662Y006203D02*
X020698Y006203D01*
X020698Y006045D02*
X020662Y006045D01*
X020662Y005886D02*
X020698Y005886D01*
X020698Y005728D02*
X020662Y005728D01*
X020662Y005569D02*
X020698Y005569D01*
X021040Y005569D02*
X021433Y005569D01*
X021591Y005728D02*
X021131Y005728D01*
X021157Y005886D02*
X021750Y005886D01*
X021908Y006045D02*
X021157Y006045D01*
X021157Y006203D02*
X022067Y006203D01*
X022225Y006362D02*
X021157Y006362D01*
X021156Y006520D02*
X022384Y006520D01*
X022542Y006679D02*
X021112Y006679D01*
X020994Y006837D02*
X022701Y006837D01*
X023339Y006203D02*
X028567Y006203D01*
X028725Y006362D02*
X025512Y006362D01*
X025640Y006520D02*
X028884Y006520D01*
X028973Y006837D02*
X029201Y006837D01*
X029132Y006996D02*
X029359Y006996D01*
X029290Y007154D02*
X029518Y007154D01*
X029449Y007313D02*
X029676Y007313D01*
X029607Y007471D02*
X029835Y007471D01*
X029766Y007630D02*
X029993Y007630D01*
X029924Y007788D02*
X030152Y007788D01*
X030083Y007947D02*
X030310Y007947D01*
X030241Y008105D02*
X030469Y008105D01*
X030400Y008264D02*
X030627Y008264D01*
X030558Y008422D02*
X030786Y008422D01*
X030717Y008581D02*
X030944Y008581D01*
X030875Y008739D02*
X031103Y008739D01*
X031034Y008898D02*
X031261Y008898D01*
X031116Y009056D02*
X031420Y009056D01*
X031578Y009215D02*
X031130Y009215D01*
X031130Y009373D02*
X031737Y009373D01*
X031895Y009532D02*
X031130Y009532D01*
X031130Y009690D02*
X032054Y009690D01*
X031971Y009849D02*
X032212Y009849D01*
X032120Y010007D02*
X032371Y010007D01*
X032529Y010166D02*
X032120Y010166D01*
X032120Y010180D02*
X031680Y010180D01*
X032120Y010180D01*
X032120Y010324D02*
X032688Y010324D01*
X032730Y010483D02*
X032000Y010483D01*
X031777Y010641D02*
X032730Y010641D01*
X032730Y010800D02*
X031936Y010800D01*
X032094Y010958D02*
X032730Y010958D01*
X032730Y011117D02*
X032253Y011117D01*
X032411Y011275D02*
X032730Y011275D01*
X032730Y011434D02*
X032565Y011434D01*
X032630Y011592D02*
X032730Y011592D01*
X032730Y011751D02*
X032630Y011751D01*
X032630Y011909D02*
X032730Y011909D01*
X032730Y012068D02*
X032630Y012068D01*
X032630Y012226D02*
X032730Y012226D01*
X032730Y012385D02*
X032630Y012385D01*
X032630Y012543D02*
X032730Y012543D01*
X032730Y012702D02*
X032630Y012702D01*
X032630Y012860D02*
X032730Y012860D01*
X032730Y013019D02*
X032630Y013019D01*
X032630Y013177D02*
X032730Y013177D01*
X032730Y013336D02*
X032630Y013336D01*
X032630Y013494D02*
X032730Y013494D01*
X031680Y010180D02*
X031680Y010180D01*
X031680Y009740D01*
X031680Y010180D01*
X031680Y010180D01*
X031680Y010166D02*
X031680Y010166D01*
X031680Y010007D02*
X031680Y010007D01*
X031680Y009849D02*
X031680Y009849D01*
X031389Y009849D02*
X031130Y009849D01*
X031143Y010007D02*
X031240Y010007D01*
X024942Y009690D02*
X024826Y009690D01*
X024803Y009532D02*
X024668Y009532D01*
X024665Y009373D02*
X024509Y009373D01*
X024665Y009215D02*
X024351Y009215D01*
X024192Y009056D02*
X024665Y009056D01*
X024734Y008898D02*
X024034Y008898D01*
X022505Y010641D02*
X017447Y010641D01*
X017528Y010800D02*
X022663Y010800D01*
X022822Y010958D02*
X017686Y010958D01*
X017753Y011117D02*
X022980Y011117D01*
X023139Y011275D02*
X017911Y011275D01*
X018065Y011434D02*
X023297Y011434D01*
X023456Y011592D02*
X018130Y011592D01*
X018130Y011751D02*
X018987Y011751D01*
X018829Y011909D02*
X018130Y011909D01*
X018130Y012068D02*
X018740Y012068D01*
X018740Y012226D02*
X018130Y012226D01*
X018130Y012385D02*
X018762Y012385D01*
X018921Y012543D02*
X018130Y012543D01*
X014730Y007154D02*
X011790Y007154D01*
X011632Y006996D02*
X014730Y006996D01*
X014730Y006837D02*
X011473Y006837D01*
X011315Y006679D02*
X014730Y006679D01*
X014730Y006520D02*
X011156Y006520D01*
X010998Y006362D02*
X014730Y006362D01*
X014730Y006203D02*
X010839Y006203D01*
X010681Y006045D02*
X014730Y006045D01*
X014730Y005886D02*
X010522Y005886D01*
X010364Y005728D02*
X014730Y005728D01*
X014730Y005569D02*
X010205Y005569D01*
X010047Y005411D02*
X014730Y005411D01*
X014730Y005252D02*
X010598Y005252D01*
X010756Y005094D02*
X014604Y005094D01*
X014528Y004935D02*
X010832Y004935D01*
X010880Y004777D02*
X014480Y004777D01*
X014480Y004618D02*
X010880Y004618D01*
X011037Y004460D02*
X014514Y004460D01*
X014579Y004301D02*
X011195Y004301D01*
X011354Y004143D02*
X014728Y004143D01*
X015031Y003984D02*
X011512Y003984D01*
X011671Y003826D02*
X021768Y003826D01*
X021775Y003844D02*
X021703Y003669D01*
X021703Y003479D01*
X021775Y003303D01*
X021899Y003180D01*
X021775Y003057D01*
X021703Y002881D01*
X021703Y002691D01*
X021775Y002516D01*
X021910Y002382D01*
X022085Y002309D01*
X022275Y002309D01*
X022450Y002382D01*
X022585Y002516D01*
X022657Y002691D01*
X022657Y002881D01*
X022585Y003057D01*
X022461Y003180D01*
X022585Y003303D01*
X022657Y003479D01*
X022657Y003669D01*
X022585Y003844D01*
X022450Y003978D01*
X022275Y004051D01*
X022085Y004051D01*
X021910Y003978D01*
X021775Y003844D01*
X021703Y003667D02*
X011829Y003667D01*
X011988Y003509D02*
X021703Y003509D01*
X021756Y003350D02*
X015472Y003350D01*
X015462Y003360D02*
X015200Y003360D01*
X015200Y002700D01*
X015160Y002700D01*
X015160Y003360D01*
X014898Y003360D01*
X014500Y002962D01*
X014500Y002700D01*
X015160Y002700D01*
X015160Y002660D01*
X014500Y002660D01*
X014500Y002398D01*
X014898Y002000D01*
X015160Y002000D01*
X015160Y002660D01*
X015200Y002660D01*
X015200Y002700D01*
X015860Y002700D01*
X015860Y002962D01*
X015462Y003360D01*
X015630Y003192D02*
X021887Y003192D01*
X021766Y003033D02*
X015789Y003033D01*
X015860Y002875D02*
X021703Y002875D01*
X021703Y002716D02*
X015860Y002716D01*
X015860Y002660D02*
X015200Y002660D01*
X015200Y002000D01*
X015462Y002000D01*
X015860Y002398D01*
X015860Y002660D01*
X015860Y002558D02*
X021758Y002558D01*
X021892Y002399D02*
X015860Y002399D01*
X015702Y002241D02*
X024604Y002241D01*
X024763Y002399D02*
X022468Y002399D01*
X022602Y002558D02*
X024921Y002558D01*
X025080Y002716D02*
X022657Y002716D01*
X022657Y002875D02*
X025238Y002875D01*
X025397Y003033D02*
X022594Y003033D01*
X022473Y003192D02*
X025555Y003192D01*
X025714Y003350D02*
X022604Y003350D01*
X022657Y003509D02*
X025872Y003509D01*
X026031Y003667D02*
X022657Y003667D01*
X022592Y003826D02*
X026189Y003826D01*
X026348Y003984D02*
X022436Y003984D01*
X021924Y003984D02*
X015329Y003984D01*
X015632Y004143D02*
X026506Y004143D01*
X026665Y004301D02*
X025423Y004301D01*
X025362Y004240D02*
X025620Y004498D01*
X025620Y004680D01*
X025620Y004862D01*
X025362Y005120D01*
X025180Y005120D01*
X025180Y004680D01*
X025180Y004680D01*
X025620Y004680D01*
X025180Y004680D01*
X025180Y004680D01*
X025180Y004680D01*
X024740Y004680D01*
X024740Y004862D01*
X024998Y005120D01*
X025180Y005120D01*
X025180Y004680D01*
X025180Y004240D01*
X025362Y004240D01*
X025180Y004240D02*
X025180Y004680D01*
X025180Y004680D01*
X024740Y004680D01*
X024740Y004498D01*
X024998Y004240D01*
X025180Y004240D01*
X025180Y004301D02*
X025180Y004301D01*
X025180Y004460D02*
X025180Y004460D01*
X025180Y004618D02*
X025180Y004618D01*
X025180Y004777D02*
X025180Y004777D01*
X025180Y004935D02*
X025180Y004935D01*
X025180Y005094D02*
X025180Y005094D01*
X025389Y005094D02*
X027457Y005094D01*
X027616Y005252D02*
X022388Y005252D01*
X022230Y005094D02*
X024971Y005094D01*
X024813Y004935D02*
X022071Y004935D01*
X021913Y004777D02*
X024740Y004777D01*
X024740Y004618D02*
X021754Y004618D01*
X021596Y004460D02*
X024778Y004460D01*
X024937Y004301D02*
X021437Y004301D01*
X022547Y005411D02*
X027774Y005411D01*
X027933Y005569D02*
X022705Y005569D01*
X022864Y005728D02*
X028091Y005728D01*
X028250Y005886D02*
X023022Y005886D01*
X023181Y006045D02*
X028408Y006045D01*
X027299Y004935D02*
X025547Y004935D01*
X025620Y004777D02*
X027140Y004777D01*
X026982Y004618D02*
X025620Y004618D01*
X025582Y004460D02*
X026823Y004460D01*
X024446Y002082D02*
X015544Y002082D01*
X015200Y002082D02*
X015160Y002082D01*
X015160Y002241D02*
X015200Y002241D01*
X015200Y002399D02*
X015160Y002399D01*
X015160Y002558D02*
X015200Y002558D01*
X015200Y002716D02*
X015160Y002716D01*
X015160Y002875D02*
X015200Y002875D01*
X015200Y003033D02*
X015160Y003033D01*
X015160Y003192D02*
X015200Y003192D01*
X015200Y003350D02*
X015160Y003350D01*
X014888Y003350D02*
X012146Y003350D01*
X012305Y003192D02*
X014730Y003192D01*
X014571Y003033D02*
X012463Y003033D01*
X012622Y002875D02*
X014500Y002875D01*
X014500Y002716D02*
X012780Y002716D01*
X012939Y002558D02*
X014500Y002558D01*
X014500Y002399D02*
X013097Y002399D01*
X013256Y002241D02*
X014658Y002241D01*
X014816Y002082D02*
X013414Y002082D01*
X013573Y001924D02*
X024287Y001924D01*
X024129Y001765D02*
X013731Y001765D01*
X012776Y001448D02*
X000660Y001448D01*
X000660Y001290D02*
X012934Y001290D01*
X013093Y001131D02*
X000660Y001131D01*
X000660Y000973D02*
X013251Y000973D01*
X013299Y000925D02*
X013299Y000925D01*
X013410Y000814D02*
X000660Y000814D01*
X009382Y004777D02*
X009480Y004777D01*
X009091Y005728D02*
X000660Y005728D01*
X007022Y005886D02*
X009250Y005886D01*
X009408Y006045D02*
X007181Y006045D01*
X009962Y003826D02*
X010398Y003826D01*
X010557Y003667D02*
X009803Y003667D01*
X009645Y003509D02*
X010715Y003509D01*
X010874Y003350D02*
X010472Y003350D01*
X010630Y003192D02*
X011032Y003192D01*
X011191Y003033D02*
X010789Y003033D01*
X010860Y002875D02*
X011349Y002875D01*
X011508Y002716D02*
X010860Y002716D01*
X010860Y002558D02*
X011666Y002558D01*
X011825Y002399D02*
X010860Y002399D01*
X010702Y002241D02*
X011983Y002241D01*
X004261Y008898D02*
X004130Y008898D01*
X004130Y009056D02*
X004420Y009056D01*
X004578Y009215D02*
X004151Y009215D01*
X004373Y009373D02*
X004737Y009373D01*
X004895Y009532D02*
X004453Y009532D01*
X004474Y009690D02*
X005054Y009690D01*
X005212Y009849D02*
X004445Y009849D01*
X004352Y010007D02*
X005371Y010007D01*
X005529Y010166D02*
X004103Y010166D01*
X004324Y010324D02*
X005688Y010324D01*
X005730Y010483D02*
X004433Y010483D01*
X004474Y010641D02*
X005730Y010641D01*
X005730Y010800D02*
X004465Y010800D01*
X004399Y010958D02*
X005695Y010958D01*
X005680Y011117D02*
X004221Y011117D01*
X004130Y011275D02*
X005680Y011275D01*
X005726Y011434D02*
X004130Y011434D01*
X004130Y011592D02*
X005885Y011592D01*
X006475Y011592D02*
X006632Y011592D01*
X006634Y011434D02*
X006790Y011434D01*
X006680Y011275D02*
X006949Y011275D01*
X007107Y011117D02*
X006680Y011117D01*
X006665Y010958D02*
X007266Y010958D01*
X007424Y010800D02*
X006630Y010800D01*
M02*
