G75*
%MOIN*%
%OFA0B0*%
%FSLAX24Y24*%
%IPPOS*%
%LPD*%
%AMOC8*
5,1,8,0,0,1.08239X$1,22.5*
%
%ADD10C,0.0120*%
%ADD11C,0.0060*%
%ADD12C,0.0660*%
%ADD13C,0.0520*%
%ADD14C,0.0594*%
%ADD15OC8,0.0520*%
D10*
X008700Y005220D02*
X008700Y006141D01*
X008240Y005681D02*
X009161Y005681D01*
X014740Y003181D02*
X015661Y003181D01*
X015200Y003641D02*
X015200Y002720D01*
D11*
X015137Y009710D02*
X015137Y010137D01*
X014924Y010351D01*
X014710Y010137D01*
X014710Y009710D01*
X014710Y010030D02*
X015137Y010030D01*
X015355Y009924D02*
X015675Y009924D01*
X015782Y010030D01*
X015782Y010244D01*
X015675Y010351D01*
X015355Y010351D01*
X015355Y009710D01*
X015999Y009710D02*
X015999Y010137D01*
X016213Y010351D01*
X016426Y010137D01*
X016426Y009710D01*
X016426Y010030D02*
X015999Y010030D01*
X016213Y010760D02*
X016213Y011401D01*
X016426Y011401D02*
X015999Y011401D01*
X015782Y011401D02*
X015355Y011401D01*
X015355Y010760D01*
X015782Y010760D01*
X015568Y011080D02*
X015355Y011080D01*
X015137Y011401D02*
X014710Y011401D01*
X014710Y010760D01*
X014710Y011080D02*
X014924Y011080D01*
X017288Y010351D02*
X017288Y009710D01*
X017715Y009710D02*
X017715Y010351D01*
X017502Y010137D01*
X017288Y010351D01*
X017933Y010351D02*
X017933Y009710D01*
X017933Y009924D02*
X018253Y010137D01*
X018470Y010351D02*
X018683Y010351D01*
X018577Y010351D02*
X018577Y009710D01*
X018683Y009710D02*
X018470Y009710D01*
X018253Y009710D02*
X017933Y009924D01*
X018900Y009710D02*
X019113Y009710D01*
X019006Y009710D02*
X019006Y010351D01*
X018900Y010351D02*
X019113Y010351D01*
X019329Y010351D02*
X019543Y010351D01*
X019436Y010351D02*
X019436Y009710D01*
X019329Y009710D02*
X019543Y009710D01*
D12*
X010010Y010180D02*
X009350Y010180D01*
X009350Y009180D02*
X010010Y009180D01*
X010010Y008180D02*
X009350Y008180D01*
D13*
X006180Y006440D02*
X006180Y005920D01*
X006180Y002440D02*
X006180Y001920D01*
X016180Y006420D02*
X016180Y006940D01*
X017180Y006940D02*
X017180Y006420D01*
X018180Y006420D02*
X018180Y006940D01*
D14*
X003180Y003477D02*
X003180Y002883D01*
X004180Y002883D02*
X004180Y003477D01*
X008680Y003477D02*
X008680Y002883D01*
X009680Y002883D02*
X009680Y003477D01*
X016680Y003477D02*
X016680Y002883D01*
X017680Y002883D02*
X017680Y003477D01*
D15*
X014180Y004180D03*
X012180Y004180D03*
X012180Y008180D03*
X014180Y008180D03*
M02*
