G75*
%MOIN*%
%OFA0B0*%
%FSLAX24Y24*%
%IPPOS*%
%LPD*%
%AMOC8*
5,1,8,0,0,1.08239X$1,22.5*
%
%ADD10C,0.0660*%
%ADD11C,0.0520*%
%ADD12C,0.0594*%
%ADD13OC8,0.0520*%
%ADD14C,0.0160*%
%ADD15C,0.0600*%
D10*
X009350Y008180D02*
X010010Y008180D01*
X010010Y009180D02*
X009350Y009180D01*
X009350Y010180D02*
X010010Y010180D01*
D11*
X006180Y006440D02*
X006180Y005920D01*
X006180Y002440D02*
X006180Y001920D01*
X016180Y006420D02*
X016180Y006940D01*
X017180Y006940D02*
X017180Y006420D01*
X018180Y006420D02*
X018180Y006940D01*
D12*
X017680Y003477D02*
X017680Y002883D01*
X016680Y002883D02*
X016680Y003477D01*
X009680Y003477D02*
X009680Y002883D01*
X008680Y002883D02*
X008680Y003477D01*
X004180Y003477D02*
X004180Y002883D01*
X003180Y002883D02*
X003180Y003477D01*
D13*
X012180Y004180D03*
X014180Y004180D03*
X014180Y008180D03*
X012180Y008180D03*
D14*
X000660Y012196D02*
X000660Y000660D01*
X007738Y000660D01*
X006898Y001500D01*
X006665Y001500D01*
X006543Y001377D01*
X006307Y001280D01*
X006242Y001280D01*
X006065Y001104D01*
X005815Y001000D01*
X003545Y001000D01*
X003295Y001104D01*
X003104Y001295D01*
X002604Y001795D01*
X002500Y002045D01*
X002500Y003315D01*
X002503Y003323D01*
X002503Y003611D01*
X002606Y003860D01*
X002797Y004051D01*
X003045Y004154D01*
X003315Y004154D01*
X003563Y004051D01*
X003680Y003934D01*
X003797Y004051D01*
X004045Y004154D01*
X004315Y004154D01*
X004500Y004077D01*
X004500Y004898D01*
X004104Y005295D01*
X004000Y005545D01*
X004000Y007315D01*
X004104Y007565D01*
X004295Y007756D01*
X006295Y009756D01*
X006545Y009860D01*
X008952Y009860D01*
X008914Y009913D01*
X008877Y009984D01*
X008853Y010061D01*
X008840Y010140D01*
X008840Y010150D01*
X009650Y010150D01*
X009650Y010210D01*
X009650Y010690D01*
X009310Y010690D01*
X009231Y010677D01*
X009154Y010653D01*
X009083Y010616D01*
X009018Y010569D01*
X008961Y010512D01*
X008914Y010447D01*
X008877Y010376D01*
X008853Y010299D01*
X008840Y010220D01*
X008840Y010210D01*
X009650Y010210D01*
X009710Y010210D01*
X009710Y010690D01*
X010050Y010690D01*
X010129Y010677D01*
X010206Y010653D01*
X010277Y010616D01*
X010342Y010569D01*
X010399Y010512D01*
X010446Y010447D01*
X010483Y010376D01*
X010507Y010299D01*
X010520Y010220D01*
X010520Y010210D01*
X009710Y010210D01*
X009710Y010150D01*
X010520Y010150D01*
X010520Y010140D01*
X010507Y010061D01*
X010483Y009984D01*
X010446Y009913D01*
X010399Y009848D01*
X010356Y009805D01*
X010412Y009782D01*
X010612Y009582D01*
X010720Y009321D01*
X010720Y009039D01*
X010646Y008860D01*
X013898Y008860D01*
X014295Y009256D01*
X014545Y009360D01*
X016315Y009360D01*
X016565Y009256D01*
X016756Y009065D01*
X017756Y008065D01*
X017860Y007815D01*
X017860Y007242D01*
X017893Y007276D01*
X017949Y007316D01*
X018011Y007348D01*
X018077Y007369D01*
X018145Y007380D01*
X018180Y007380D01*
X018180Y006680D01*
X018180Y006680D01*
X018620Y006680D01*
X018620Y006975D01*
X018609Y007043D01*
X018588Y007109D01*
X018556Y007171D01*
X018516Y007227D01*
X018467Y007276D01*
X018411Y007316D01*
X018349Y007348D01*
X018283Y007369D01*
X018215Y007380D01*
X018180Y007380D01*
X018180Y006680D01*
X018180Y006680D01*
X018620Y006680D01*
X018620Y006385D01*
X018609Y006317D01*
X018588Y006251D01*
X018556Y006189D01*
X018516Y006133D01*
X018467Y006084D01*
X018411Y006044D01*
X018349Y006012D01*
X018283Y005991D01*
X018215Y005980D01*
X018180Y005980D01*
X018180Y006680D01*
X018180Y006680D01*
X018180Y005980D01*
X018145Y005980D01*
X018077Y005991D01*
X018011Y006012D01*
X017949Y006044D01*
X017893Y006084D01*
X017844Y006133D01*
X017804Y006189D01*
X017789Y006218D01*
X017723Y006057D01*
X017543Y005877D01*
X017307Y005780D01*
X017053Y005780D01*
X016860Y005860D01*
X016860Y004135D01*
X017063Y004051D01*
X017254Y003860D01*
X017296Y003759D01*
X017316Y003787D01*
X017369Y003841D01*
X017430Y003885D01*
X017497Y003919D01*
X017568Y003942D01*
X017642Y003954D01*
X017662Y003954D01*
X017662Y003198D01*
X017698Y003198D01*
X017698Y003954D01*
X017718Y003954D01*
X017792Y003942D01*
X017863Y003919D01*
X017930Y003885D01*
X017991Y003841D01*
X018044Y003787D01*
X018088Y003727D01*
X018122Y003660D01*
X018145Y003589D01*
X018157Y003514D01*
X018157Y003198D01*
X017698Y003198D01*
X017698Y003162D01*
X018157Y003162D01*
X018157Y002846D01*
X018145Y002771D01*
X018122Y002700D01*
X018088Y002633D01*
X018044Y002573D01*
X017991Y002519D01*
X017930Y002475D01*
X017863Y002441D01*
X017792Y002418D01*
X017718Y002406D01*
X017698Y002406D01*
X017698Y003162D01*
X017662Y003162D01*
X017662Y002406D01*
X017642Y002406D01*
X017568Y002418D01*
X017497Y002441D01*
X017430Y002475D01*
X017369Y002519D01*
X017316Y002573D01*
X017296Y002601D01*
X017254Y002500D01*
X017063Y002309D01*
X016815Y002206D01*
X016545Y002206D01*
X016297Y002309D01*
X016106Y002500D01*
X016003Y002749D01*
X016003Y002895D01*
X015604Y003295D01*
X015500Y003545D01*
X015500Y006815D01*
X015540Y006912D01*
X015540Y007067D01*
X015637Y007303D01*
X015817Y007483D01*
X016053Y007580D01*
X016307Y007580D01*
X016326Y007572D01*
X015898Y008000D01*
X014962Y008000D01*
X014565Y007604D01*
X014469Y007564D01*
X014445Y007540D01*
X014412Y007540D01*
X014315Y007500D01*
X010224Y007500D01*
X010151Y007470D01*
X009209Y007470D01*
X008948Y007578D01*
X008748Y007778D01*
X008640Y008039D01*
X008640Y008321D01*
X008714Y008500D01*
X006962Y008500D01*
X005360Y006898D01*
X005360Y006322D01*
X005540Y006502D01*
X005540Y006567D01*
X005637Y006803D01*
X005817Y006983D01*
X006053Y007080D01*
X006307Y007080D01*
X006543Y006983D01*
X006723Y006803D01*
X006820Y006567D01*
X006820Y006412D01*
X006860Y006315D01*
X006860Y006045D01*
X006820Y005948D01*
X006820Y005793D01*
X006723Y005557D01*
X006543Y005377D01*
X006307Y005280D01*
X006242Y005280D01*
X005860Y004898D01*
X005860Y003545D01*
X005756Y003295D01*
X005256Y002795D01*
X005065Y002604D01*
X004815Y002500D01*
X004754Y002500D01*
X004754Y002500D01*
X004614Y002360D01*
X005398Y002360D01*
X005540Y002502D01*
X005540Y002567D01*
X005637Y002803D01*
X005817Y002983D01*
X006053Y003080D01*
X006307Y003080D01*
X006543Y002983D01*
X006665Y002860D01*
X006898Y002860D01*
X007604Y003565D01*
X007795Y003756D01*
X008045Y003860D01*
X008106Y003860D01*
X008106Y003860D01*
X008297Y004051D01*
X008545Y004154D01*
X008815Y004154D01*
X009063Y004051D01*
X009254Y003860D01*
X009296Y003759D01*
X009316Y003787D01*
X009369Y003841D01*
X009430Y003885D01*
X009497Y003919D01*
X009568Y003942D01*
X009642Y003954D01*
X009662Y003954D01*
X009662Y003198D01*
X009698Y003198D01*
X009698Y003954D01*
X009718Y003954D01*
X009792Y003942D01*
X009863Y003919D01*
X009930Y003885D01*
X009991Y003841D01*
X010044Y003787D01*
X010088Y003727D01*
X010122Y003660D01*
X010145Y003589D01*
X010157Y003514D01*
X010157Y003198D01*
X009698Y003198D01*
X009698Y003162D01*
X010157Y003162D01*
X010157Y002846D01*
X010145Y002771D01*
X010122Y002700D01*
X010088Y002633D01*
X010044Y002573D01*
X009991Y002519D01*
X009930Y002475D01*
X009863Y002441D01*
X009792Y002418D01*
X009718Y002406D01*
X009698Y002406D01*
X009698Y003162D01*
X009662Y003162D01*
X009662Y002406D01*
X009642Y002406D01*
X009568Y002418D01*
X009497Y002441D01*
X009430Y002475D01*
X009369Y002519D01*
X009316Y002573D01*
X009296Y002601D01*
X009254Y002500D01*
X009063Y002309D01*
X008815Y002206D01*
X008545Y002206D01*
X008297Y002309D01*
X008284Y002322D01*
X008142Y002180D01*
X008462Y001860D01*
X009398Y001860D01*
X010500Y002962D01*
X010500Y003315D01*
X010604Y003565D01*
X010795Y003756D01*
X011795Y004756D01*
X011891Y004796D01*
X011915Y004820D01*
X011948Y004820D01*
X012045Y004860D01*
X012315Y004860D01*
X012412Y004820D01*
X012445Y004820D01*
X012469Y004796D01*
X012565Y004756D01*
X012756Y004565D01*
X012796Y004469D01*
X012820Y004445D01*
X012820Y004412D01*
X012860Y004315D01*
X012860Y004045D01*
X012820Y003948D01*
X012820Y003915D01*
X012796Y003891D01*
X012756Y003795D01*
X011860Y002898D01*
X011860Y002545D01*
X011756Y002295D01*
X010256Y000795D01*
X010122Y000660D01*
X020070Y000660D01*
X020070Y012196D01*
X000660Y012196D01*
X000660Y012068D02*
X020070Y012068D01*
X020070Y011909D02*
X000660Y011909D01*
X000660Y011751D02*
X020070Y011751D01*
X020070Y011592D02*
X000660Y011592D01*
X000660Y011434D02*
X020070Y011434D01*
X020070Y011275D02*
X000660Y011275D01*
X000660Y011117D02*
X020070Y011117D01*
X020070Y010958D02*
X000660Y010958D01*
X000660Y010800D02*
X002140Y010800D01*
X002112Y010792D02*
X001718Y010564D01*
X001396Y010242D01*
X001168Y009848D01*
X001050Y009408D01*
X001050Y008952D01*
X001168Y008512D01*
X001396Y008118D01*
X001718Y007796D01*
X002112Y007568D01*
X002552Y007450D01*
X003008Y007450D01*
X003448Y007568D01*
X003842Y007796D01*
X004164Y008118D01*
X004392Y008512D01*
X004510Y008952D01*
X004510Y009408D01*
X004392Y009848D01*
X004164Y010242D01*
X003842Y010564D01*
X003448Y010792D01*
X003008Y010910D01*
X002552Y010910D01*
X002112Y010792D01*
X001851Y010641D02*
X000660Y010641D01*
X000660Y010483D02*
X001636Y010483D01*
X001477Y010324D02*
X000660Y010324D01*
X000660Y010166D02*
X001351Y010166D01*
X001260Y010007D02*
X000660Y010007D01*
X000660Y009849D02*
X001168Y009849D01*
X001126Y009690D02*
X000660Y009690D01*
X000660Y009532D02*
X001083Y009532D01*
X001050Y009373D02*
X000660Y009373D01*
X000660Y009215D02*
X001050Y009215D01*
X001050Y009056D02*
X000660Y009056D01*
X000660Y008898D02*
X001065Y008898D01*
X001107Y008739D02*
X000660Y008739D01*
X000660Y008581D02*
X001150Y008581D01*
X001220Y008422D02*
X000660Y008422D01*
X000660Y008264D02*
X001312Y008264D01*
X001408Y008105D02*
X000660Y008105D01*
X000660Y007947D02*
X001567Y007947D01*
X001731Y007788D02*
X000660Y007788D01*
X000660Y007630D02*
X002006Y007630D01*
X002474Y007471D02*
X000660Y007471D01*
X000660Y007313D02*
X004000Y007313D01*
X004000Y007154D02*
X000660Y007154D01*
X000660Y006996D02*
X004000Y006996D01*
X004000Y006837D02*
X000660Y006837D01*
X000660Y006679D02*
X004000Y006679D01*
X004000Y006520D02*
X000660Y006520D01*
X000660Y006362D02*
X004000Y006362D01*
X004000Y006203D02*
X000660Y006203D01*
X000660Y006045D02*
X004000Y006045D01*
X004000Y005886D02*
X000660Y005886D01*
X000660Y005728D02*
X004000Y005728D01*
X004000Y005569D02*
X000660Y005569D01*
X000660Y005411D02*
X004056Y005411D01*
X004146Y005252D02*
X000660Y005252D01*
X000660Y005094D02*
X004305Y005094D01*
X004463Y004935D02*
X000660Y004935D01*
X000660Y004777D02*
X004500Y004777D01*
X004500Y004618D02*
X000660Y004618D01*
X000660Y004460D02*
X004500Y004460D01*
X004500Y004301D02*
X000660Y004301D01*
X000660Y004143D02*
X003018Y004143D01*
X003342Y004143D02*
X004018Y004143D01*
X004342Y004143D02*
X004500Y004143D01*
X003730Y003984D02*
X003630Y003984D01*
X002730Y003984D02*
X000660Y003984D01*
X000660Y003826D02*
X002592Y003826D01*
X002526Y003667D02*
X000660Y003667D01*
X000660Y003509D02*
X002503Y003509D01*
X002503Y003350D02*
X000660Y003350D01*
X000660Y003192D02*
X002500Y003192D01*
X002500Y003033D02*
X000660Y003033D01*
X000660Y002875D02*
X002500Y002875D01*
X002500Y002716D02*
X000660Y002716D01*
X000660Y002558D02*
X002500Y002558D01*
X002500Y002399D02*
X000660Y002399D01*
X000660Y002241D02*
X002500Y002241D01*
X002500Y002082D02*
X000660Y002082D01*
X000660Y001924D02*
X002550Y001924D01*
X002633Y001765D02*
X000660Y001765D01*
X000660Y001607D02*
X002792Y001607D01*
X002950Y001448D02*
X000660Y001448D01*
X000660Y001290D02*
X003109Y001290D01*
X003267Y001131D02*
X000660Y001131D01*
X000660Y000973D02*
X007426Y000973D01*
X007267Y001131D02*
X006093Y001131D01*
X006330Y001290D02*
X007109Y001290D01*
X006950Y001448D02*
X006613Y001448D01*
X007584Y000814D02*
X000660Y000814D01*
X004653Y002399D02*
X005437Y002399D01*
X005540Y002558D02*
X004954Y002558D01*
X005178Y002716D02*
X005602Y002716D01*
X005709Y002875D02*
X005336Y002875D01*
X005495Y003033D02*
X005939Y003033D01*
X005653Y003192D02*
X007230Y003192D01*
X007071Y003033D02*
X006421Y003033D01*
X006651Y002875D02*
X006913Y002875D01*
X007388Y003350D02*
X005779Y003350D01*
X005845Y003509D02*
X007547Y003509D01*
X007705Y003667D02*
X005860Y003667D01*
X005860Y003826D02*
X007961Y003826D01*
X008230Y003984D02*
X005860Y003984D01*
X005860Y004143D02*
X008518Y004143D01*
X008842Y004143D02*
X011181Y004143D01*
X011339Y004301D02*
X005860Y004301D01*
X005860Y004460D02*
X011498Y004460D01*
X011656Y004618D02*
X005860Y004618D01*
X005860Y004777D02*
X011843Y004777D01*
X012517Y004777D02*
X015500Y004777D01*
X015500Y004935D02*
X005897Y004935D01*
X006055Y005094D02*
X015500Y005094D01*
X015500Y005252D02*
X006214Y005252D01*
X006576Y005411D02*
X015500Y005411D01*
X015500Y005569D02*
X006727Y005569D01*
X006793Y005728D02*
X015500Y005728D01*
X015500Y005886D02*
X006820Y005886D01*
X006860Y006045D02*
X015500Y006045D01*
X015500Y006203D02*
X006860Y006203D01*
X006841Y006362D02*
X015500Y006362D01*
X015500Y006520D02*
X006820Y006520D01*
X006774Y006679D02*
X015500Y006679D01*
X015509Y006837D02*
X006688Y006837D01*
X006511Y006996D02*
X015540Y006996D01*
X015576Y007154D02*
X005616Y007154D01*
X005774Y007313D02*
X015647Y007313D01*
X015806Y007471D02*
X010154Y007471D01*
X009206Y007471D02*
X005933Y007471D01*
X006091Y007630D02*
X008896Y007630D01*
X008744Y007788D02*
X006250Y007788D01*
X006408Y007947D02*
X008678Y007947D01*
X008640Y008105D02*
X006567Y008105D01*
X006725Y008264D02*
X008640Y008264D01*
X008682Y008422D02*
X006884Y008422D01*
X005753Y009215D02*
X004510Y009215D01*
X004510Y009373D02*
X005911Y009373D01*
X006070Y009532D02*
X004477Y009532D01*
X004434Y009690D02*
X006228Y009690D01*
X006517Y009849D02*
X004392Y009849D01*
X004300Y010007D02*
X008870Y010007D01*
X008861Y010324D02*
X004083Y010324D01*
X004209Y010166D02*
X009650Y010166D01*
X009710Y010166D02*
X020070Y010166D01*
X020070Y010324D02*
X010499Y010324D01*
X010421Y010483D02*
X020070Y010483D01*
X020070Y010641D02*
X010229Y010641D01*
X009710Y010641D02*
X009650Y010641D01*
X009650Y010483D02*
X009710Y010483D01*
X009710Y010324D02*
X009650Y010324D01*
X009131Y010641D02*
X003709Y010641D01*
X003924Y010483D02*
X008939Y010483D01*
X010400Y009849D02*
X020070Y009849D01*
X020070Y010007D02*
X010490Y010007D01*
X010504Y009690D02*
X020070Y009690D01*
X020070Y009532D02*
X010633Y009532D01*
X010699Y009373D02*
X020070Y009373D01*
X020070Y009215D02*
X016607Y009215D01*
X016766Y009056D02*
X020070Y009056D01*
X020070Y008898D02*
X016924Y008898D01*
X017083Y008739D02*
X020070Y008739D01*
X020070Y008581D02*
X017241Y008581D01*
X017400Y008422D02*
X020070Y008422D01*
X020070Y008264D02*
X017558Y008264D01*
X017717Y008105D02*
X020070Y008105D01*
X020070Y007947D02*
X017806Y007947D01*
X017860Y007788D02*
X020070Y007788D01*
X020070Y007630D02*
X017860Y007630D01*
X017860Y007471D02*
X020070Y007471D01*
X020070Y007313D02*
X018416Y007313D01*
X018565Y007154D02*
X020070Y007154D01*
X020070Y006996D02*
X018617Y006996D01*
X018620Y006837D02*
X020070Y006837D01*
X020070Y006679D02*
X018620Y006679D01*
X018620Y006520D02*
X020070Y006520D01*
X020070Y006362D02*
X018616Y006362D01*
X018563Y006203D02*
X020070Y006203D01*
X020070Y006045D02*
X018412Y006045D01*
X018180Y006045D02*
X018180Y006045D01*
X018180Y006203D02*
X018180Y006203D01*
X018180Y006362D02*
X018180Y006362D01*
X018180Y006520D02*
X018180Y006520D01*
X018180Y006679D02*
X018180Y006679D01*
X018180Y006837D02*
X018180Y006837D01*
X018180Y006996D02*
X018180Y006996D01*
X018180Y007154D02*
X018180Y007154D01*
X018180Y007313D02*
X018180Y007313D01*
X017944Y007313D02*
X017860Y007313D01*
X017797Y006203D02*
X017783Y006203D01*
X017710Y006045D02*
X017948Y006045D01*
X017551Y005886D02*
X020070Y005886D01*
X020070Y005728D02*
X016860Y005728D01*
X016860Y005569D02*
X020070Y005569D01*
X020070Y005411D02*
X016860Y005411D01*
X016860Y005252D02*
X020070Y005252D01*
X020070Y005094D02*
X016860Y005094D01*
X016860Y004935D02*
X020070Y004935D01*
X020070Y004777D02*
X016860Y004777D01*
X016860Y004618D02*
X020070Y004618D01*
X020070Y004460D02*
X016860Y004460D01*
X016860Y004301D02*
X020070Y004301D01*
X020070Y004143D02*
X016860Y004143D01*
X017130Y003984D02*
X020070Y003984D01*
X020070Y003826D02*
X018006Y003826D01*
X018118Y003667D02*
X020070Y003667D01*
X020070Y003509D02*
X018157Y003509D01*
X018157Y003350D02*
X020070Y003350D01*
X020070Y003192D02*
X017698Y003192D01*
X017698Y003033D02*
X017662Y003033D01*
X017662Y002875D02*
X017698Y002875D01*
X017698Y002716D02*
X017662Y002716D01*
X017662Y002558D02*
X017698Y002558D01*
X017331Y002558D02*
X017278Y002558D01*
X017153Y002399D02*
X020070Y002399D01*
X020070Y002241D02*
X016897Y002241D01*
X016463Y002241D02*
X011702Y002241D01*
X011800Y002399D02*
X016207Y002399D01*
X016082Y002558D02*
X011860Y002558D01*
X011860Y002716D02*
X016017Y002716D01*
X016003Y002875D02*
X011860Y002875D01*
X011995Y003033D02*
X015865Y003033D01*
X015707Y003192D02*
X012153Y003192D01*
X012312Y003350D02*
X015581Y003350D01*
X015515Y003509D02*
X012470Y003509D01*
X012629Y003667D02*
X015500Y003667D01*
X015500Y003826D02*
X014448Y003826D01*
X014362Y003740D02*
X014620Y003998D01*
X014620Y004180D01*
X014620Y004362D01*
X014362Y004620D01*
X014180Y004620D01*
X014180Y004180D01*
X014180Y004180D01*
X014620Y004180D01*
X014180Y004180D01*
X014180Y004180D01*
X014180Y004180D01*
X013740Y004180D01*
X013740Y004362D01*
X013998Y004620D01*
X014180Y004620D01*
X014180Y004180D01*
X014180Y003740D01*
X014362Y003740D01*
X014180Y003740D02*
X014180Y004180D01*
X014180Y004180D01*
X013740Y004180D01*
X013740Y003998D01*
X013998Y003740D01*
X014180Y003740D01*
X014180Y003826D02*
X014180Y003826D01*
X014180Y003984D02*
X014180Y003984D01*
X013912Y003826D02*
X012769Y003826D01*
X012835Y003984D02*
X013754Y003984D01*
X013740Y004143D02*
X012860Y004143D01*
X012860Y004301D02*
X013740Y004301D01*
X013837Y004460D02*
X012806Y004460D01*
X012704Y004618D02*
X013996Y004618D01*
X014180Y004618D02*
X014180Y004618D01*
X014180Y004460D02*
X014180Y004460D01*
X014180Y004301D02*
X014180Y004301D01*
X014180Y004143D02*
X014180Y004143D01*
X014523Y004460D02*
X015500Y004460D01*
X015500Y004618D02*
X014364Y004618D01*
X014620Y004301D02*
X015500Y004301D01*
X015500Y004143D02*
X014620Y004143D01*
X014606Y003984D02*
X015500Y003984D01*
X017268Y003826D02*
X017354Y003826D01*
X017662Y003826D02*
X017698Y003826D01*
X017698Y003667D02*
X017662Y003667D01*
X017662Y003509D02*
X017698Y003509D01*
X017698Y003350D02*
X017662Y003350D01*
X018157Y003033D02*
X020070Y003033D01*
X020070Y002875D02*
X018157Y002875D01*
X018127Y002716D02*
X020070Y002716D01*
X020070Y002558D02*
X018029Y002558D01*
X020070Y002082D02*
X011544Y002082D01*
X011385Y001924D02*
X020070Y001924D01*
X020070Y001765D02*
X011227Y001765D01*
X011068Y001607D02*
X020070Y001607D01*
X020070Y001448D02*
X010910Y001448D01*
X010751Y001290D02*
X020070Y001290D01*
X020070Y001131D02*
X010593Y001131D01*
X010434Y000973D02*
X020070Y000973D01*
X020070Y000814D02*
X010276Y000814D01*
X009462Y001924D02*
X008398Y001924D01*
X008240Y002082D02*
X009620Y002082D01*
X009779Y002241D02*
X008897Y002241D01*
X009153Y002399D02*
X009937Y002399D01*
X010029Y002558D02*
X010096Y002558D01*
X010127Y002716D02*
X010254Y002716D01*
X010157Y002875D02*
X010413Y002875D01*
X010500Y003033D02*
X010157Y003033D01*
X010500Y003192D02*
X009698Y003192D01*
X009698Y003033D02*
X009662Y003033D01*
X009662Y002875D02*
X009698Y002875D01*
X009698Y002716D02*
X009662Y002716D01*
X009662Y002558D02*
X009698Y002558D01*
X009331Y002558D02*
X009278Y002558D01*
X008463Y002241D02*
X008202Y002241D01*
X009662Y003350D02*
X009698Y003350D01*
X009698Y003509D02*
X009662Y003509D01*
X009662Y003667D02*
X009698Y003667D01*
X009698Y003826D02*
X009662Y003826D01*
X010006Y003826D02*
X010864Y003826D01*
X011022Y003984D02*
X009130Y003984D01*
X009268Y003826D02*
X009354Y003826D01*
X010118Y003667D02*
X010705Y003667D01*
X010580Y003509D02*
X010157Y003509D01*
X010157Y003350D02*
X010514Y003350D01*
X005540Y006520D02*
X005360Y006520D01*
X005360Y006362D02*
X005400Y006362D01*
X005360Y006679D02*
X005586Y006679D01*
X005672Y006837D02*
X005360Y006837D01*
X005457Y006996D02*
X005849Y006996D01*
X004485Y007947D02*
X003993Y007947D01*
X003829Y007788D02*
X004326Y007788D01*
X004168Y007630D02*
X003554Y007630D01*
X003086Y007471D02*
X004065Y007471D01*
X004152Y008105D02*
X004643Y008105D01*
X004802Y008264D02*
X004248Y008264D01*
X004340Y008422D02*
X004960Y008422D01*
X005119Y008581D02*
X004410Y008581D01*
X004453Y008739D02*
X005277Y008739D01*
X005436Y008898D02*
X004495Y008898D01*
X004510Y009056D02*
X005594Y009056D01*
X003420Y010800D02*
X020070Y010800D01*
X015952Y007947D02*
X014908Y007947D01*
X014750Y007788D02*
X016110Y007788D01*
X016269Y007630D02*
X014591Y007630D01*
X013936Y008898D02*
X010661Y008898D01*
X010720Y009056D02*
X014094Y009056D01*
X014253Y009215D02*
X010720Y009215D01*
D15*
X009680Y009180D02*
X006680Y009180D01*
X004680Y007180D01*
X004680Y005680D01*
X005180Y005180D01*
X005180Y003680D01*
X004680Y003180D01*
X004180Y003180D01*
X003180Y003180D02*
X003180Y002180D01*
X003680Y001680D01*
X005680Y001680D01*
X006180Y002180D01*
X007180Y002180D01*
X008180Y001180D01*
X009680Y001180D01*
X011180Y002680D01*
X011180Y003180D01*
X012180Y004180D01*
X008680Y003180D02*
X008180Y003180D01*
X007180Y002180D01*
X005180Y005180D02*
X006180Y006180D01*
X009680Y008180D02*
X012180Y008180D01*
X014180Y008180D01*
X014680Y008680D01*
X016180Y008680D01*
X017180Y007680D01*
X017180Y006680D01*
X016180Y006680D02*
X016180Y003680D01*
X016680Y003180D01*
M02*
