G75*
%MOIN*%
%OFA0B0*%
%FSLAX24Y24*%
%IPPOS*%
%LPD*%
%AMOC8*
5,1,8,0,0,1.08239X$1,22.5*
%
%ADD10C,0.0474*%
%ADD11C,0.0600*%
%ADD12C,0.0674*%
%ADD13OC8,0.0600*%
%ADD14C,0.0600*%
%ADD15C,0.1080*%
%ADD16OC8,0.1080*%
%ADD17C,0.0634*%
%ADD18C,0.0680*%
D10*
X001680Y001680D03*
X001680Y016180D03*
X023180Y016180D03*
X023680Y001680D03*
D11*
X013440Y007680D02*
X012920Y007680D01*
X012920Y008680D02*
X013440Y008680D01*
X013440Y009680D02*
X012920Y009680D01*
X012920Y010680D02*
X013440Y010680D01*
X013440Y011680D02*
X012920Y011680D01*
X012920Y012680D02*
X013440Y012680D01*
X013440Y013680D02*
X012920Y013680D01*
X012920Y014680D02*
X013440Y014680D01*
X010440Y014680D02*
X009920Y014680D01*
X009920Y013680D02*
X010440Y013680D01*
X010440Y012680D02*
X009920Y012680D01*
X009920Y011680D02*
X010440Y011680D01*
X010440Y010680D02*
X009920Y010680D01*
X009920Y009680D02*
X010440Y009680D01*
X010440Y008680D02*
X009920Y008680D01*
X009920Y007680D02*
X010440Y007680D01*
D12*
X016680Y006977D02*
X016680Y006383D01*
X017680Y006383D02*
X017680Y006977D01*
X017180Y015383D02*
X017180Y015977D01*
X018180Y015977D02*
X018180Y015383D01*
D13*
X016680Y013180D03*
X016680Y011680D03*
X016680Y010180D03*
X020680Y010180D03*
X020680Y011680D03*
X020680Y013180D03*
X008680Y011680D03*
X002680Y012180D03*
X008680Y016680D03*
D14*
X006680Y012180D03*
D15*
X007180Y003680D03*
X013180Y003680D03*
D16*
X011180Y003680D03*
X005180Y003680D03*
D17*
X015430Y012286D03*
X015430Y013074D03*
X007180Y014786D03*
X007180Y015574D03*
D18*
X006880Y009680D02*
X007480Y009680D01*
X007480Y008680D02*
X006880Y008680D01*
X006880Y007680D02*
X007480Y007680D01*
M02*
