G75*
%MOIN*%
%OFA0B0*%
%FSLAX24Y24*%
%IPPOS*%
%LPD*%
%AMOC8*
5,1,8,0,0,1.08239X$1,22.5*
%
%ADD10C,0.0060*%
%ADD11C,0.0040*%
%ADD12C,0.0070*%
%ADD13C,0.0520*%
%ADD14C,0.0594*%
%ADD15OC8,0.0520*%
%ADD16C,0.0520*%
%ADD17C,0.1000*%
%ADD18OC8,0.1000*%
%ADD19C,0.0554*%
%ADD20C,0.0600*%
D10*
X016710Y001710D02*
X016710Y002351D01*
X016710Y002030D02*
X017137Y002030D01*
X017355Y002030D02*
X017782Y002030D01*
X017999Y002137D02*
X018319Y002137D01*
X018426Y002030D01*
X018426Y001817D01*
X018319Y001710D01*
X017999Y001710D01*
X017999Y002351D01*
X017999Y002760D02*
X017999Y003187D01*
X018213Y003401D01*
X018426Y003187D01*
X018426Y002760D01*
X018426Y003080D02*
X017999Y003080D01*
X017782Y003080D02*
X017675Y002974D01*
X017355Y002974D01*
X017355Y002760D02*
X017355Y003401D01*
X017675Y003401D01*
X017782Y003294D01*
X017782Y003080D01*
X017137Y003080D02*
X016710Y003080D01*
X016710Y003187D02*
X016924Y003401D01*
X017137Y003187D01*
X017137Y002760D01*
X016710Y002760D02*
X016710Y003187D01*
X017137Y002351D02*
X017137Y001710D01*
X018644Y001710D02*
X018644Y002137D01*
X018644Y001924D02*
X018857Y002137D01*
X018964Y002137D01*
X019181Y002137D02*
X019288Y002137D01*
X019288Y001710D01*
X019394Y001710D02*
X019181Y001710D01*
X019610Y001817D02*
X019610Y002030D01*
X019717Y002137D01*
X020038Y002137D01*
X020038Y002351D02*
X020038Y001710D01*
X019717Y001710D01*
X019610Y001817D01*
X019288Y002351D02*
X019288Y002457D01*
X020255Y002030D02*
X020255Y001817D01*
X020362Y001710D01*
X020682Y001710D01*
X020682Y001603D02*
X020682Y002137D01*
X020362Y002137D01*
X020255Y002030D01*
X020469Y001496D02*
X020575Y001496D01*
X020682Y001603D01*
X020900Y001817D02*
X021006Y001710D01*
X021220Y001710D01*
X021327Y001924D02*
X020900Y001924D01*
X020900Y002030D02*
X020900Y001817D01*
X020900Y002030D02*
X021006Y002137D01*
X021220Y002137D01*
X021327Y002030D01*
X021327Y001924D01*
X022189Y001710D02*
X022189Y002351D01*
X022402Y002137D01*
X022616Y002351D01*
X022616Y001710D01*
X022833Y001710D02*
X022833Y002351D01*
X023153Y002137D02*
X022833Y001924D01*
X023153Y001710D01*
X023370Y001710D02*
X023584Y001710D01*
X023477Y001710D02*
X023477Y002351D01*
X023370Y002351D02*
X023584Y002351D01*
X023544Y006496D02*
X023544Y007137D01*
X023864Y007137D01*
X023971Y007030D01*
X023971Y006817D01*
X023864Y006710D01*
X023544Y006710D01*
X023327Y006710D02*
X023327Y007137D01*
X022900Y007137D02*
X022900Y006817D01*
X023006Y006710D01*
X023327Y006710D01*
X022682Y006817D02*
X022575Y006710D01*
X022362Y006710D01*
X022255Y006817D01*
X022362Y007030D02*
X022575Y007030D01*
X022682Y006924D01*
X022682Y006817D01*
X022362Y007030D02*
X022255Y007137D01*
X022255Y007244D01*
X022362Y007351D01*
X022575Y007351D01*
X022682Y007244D01*
X021394Y007137D02*
X021287Y007137D01*
X021073Y006924D01*
X021073Y007137D02*
X021073Y006710D01*
X020856Y006817D02*
X020856Y007030D01*
X020749Y007137D01*
X020536Y007137D01*
X020429Y007030D01*
X020429Y006817D01*
X020536Y006710D01*
X020749Y006710D01*
X020856Y006817D01*
X020213Y006710D02*
X020106Y006817D01*
X020106Y007244D01*
X019999Y007137D02*
X020213Y007137D01*
X019782Y007030D02*
X019675Y007137D01*
X019461Y007137D01*
X019355Y007030D01*
X019355Y006817D01*
X019461Y006710D01*
X019675Y006710D01*
X019782Y006817D01*
X019782Y007030D01*
X019137Y007351D02*
X019137Y006710D01*
X018710Y006710D02*
X018710Y007351D01*
X018924Y007137D01*
X019137Y007351D01*
X024189Y007137D02*
X024189Y006496D01*
X024189Y006710D02*
X024509Y006710D01*
X024616Y006817D01*
X024616Y007030D01*
X024509Y007137D01*
X024189Y007137D01*
X024833Y007351D02*
X024940Y007351D01*
X024940Y006710D01*
X024833Y006710D02*
X025047Y006710D01*
X025263Y006817D02*
X025370Y006710D01*
X025690Y006710D01*
X025690Y006603D02*
X025583Y006496D01*
X025476Y006496D01*
X025690Y006603D02*
X025690Y007137D01*
X025263Y007137D02*
X025263Y006817D01*
X023291Y014710D02*
X023184Y014817D01*
X023184Y015244D01*
X023077Y015137D02*
X023291Y015137D01*
X022860Y015137D02*
X022540Y015137D01*
X022433Y015030D01*
X022433Y014817D01*
X022540Y014710D01*
X022860Y014710D01*
X022215Y014924D02*
X021788Y014924D01*
X021788Y015030D02*
X021895Y015137D01*
X022108Y015137D01*
X022215Y015030D01*
X022215Y014924D01*
X022108Y014710D02*
X021895Y014710D01*
X021788Y014817D01*
X021788Y015030D01*
X021571Y015030D02*
X021571Y014710D01*
X021571Y015030D02*
X021464Y015137D01*
X021144Y015137D01*
X021144Y014710D01*
X020926Y014710D02*
X020926Y015030D01*
X020819Y015137D01*
X020499Y015137D01*
X020499Y014710D01*
X020282Y014817D02*
X020282Y015030D01*
X020175Y015137D01*
X019961Y015137D01*
X019855Y015030D01*
X019855Y014817D01*
X019961Y014710D01*
X020175Y014710D01*
X020282Y014817D01*
X019637Y014817D02*
X019530Y014710D01*
X019317Y014710D01*
X019210Y014817D01*
X019210Y015244D01*
X019317Y015351D01*
X019530Y015351D01*
X019637Y015244D01*
X019637Y015760D02*
X019637Y016401D01*
X019424Y016187D01*
X019210Y016401D01*
X019210Y015760D01*
X019855Y015867D02*
X019961Y015760D01*
X020175Y015760D01*
X020282Y015867D01*
X020282Y016080D01*
X020175Y016187D01*
X019961Y016187D01*
X019855Y016080D01*
X019855Y015867D01*
X020499Y016187D02*
X020713Y016187D01*
X020606Y016294D02*
X020606Y015867D01*
X020713Y015760D01*
X020929Y015867D02*
X020929Y016080D01*
X021036Y016187D01*
X021249Y016187D01*
X021356Y016080D01*
X021356Y015867D01*
X021249Y015760D01*
X021036Y015760D01*
X020929Y015867D01*
X021573Y015974D02*
X021787Y016187D01*
X021894Y016187D01*
X021573Y016187D02*
X021573Y015760D01*
D11*
X014660Y011943D02*
X014660Y011712D01*
X014200Y011712D01*
X014200Y011943D01*
X014276Y012019D01*
X014583Y012019D01*
X014660Y011943D01*
X014660Y011559D02*
X014200Y011559D01*
X014200Y011252D02*
X014660Y011559D01*
X014660Y011252D02*
X014200Y011252D01*
X014276Y011098D02*
X014200Y011022D01*
X014200Y010868D01*
X014276Y010792D01*
X014583Y010792D01*
X014660Y010868D01*
X014660Y011022D01*
X014583Y011098D01*
X014430Y011098D01*
X014430Y010945D01*
X014737Y010638D02*
X014737Y010331D01*
X014583Y010178D02*
X014430Y010178D01*
X014430Y010024D01*
X014583Y009871D02*
X014276Y009871D01*
X014200Y009948D01*
X014200Y010101D01*
X014276Y010178D01*
X014583Y010178D02*
X014660Y010101D01*
X014660Y009948D01*
X014583Y009871D01*
X014583Y009717D02*
X014276Y009717D01*
X014200Y009641D01*
X014200Y009487D01*
X014276Y009410D01*
X014583Y009410D01*
X014660Y009487D01*
X014660Y009641D01*
X014583Y009717D01*
X014660Y009257D02*
X014660Y008950D01*
X014200Y008950D01*
X006388Y009680D02*
X006081Y009680D01*
X005928Y009680D02*
X005774Y009680D01*
X005928Y009680D02*
X005928Y009527D01*
X005851Y009450D01*
X005698Y009450D01*
X005621Y009527D01*
X005621Y009834D01*
X005698Y009910D01*
X005851Y009910D01*
X005928Y009834D01*
X006235Y009834D02*
X006235Y009527D01*
X006348Y008910D02*
X006042Y008910D01*
X006042Y008450D01*
X006348Y008450D01*
X006195Y008680D02*
X006042Y008680D01*
X005888Y008603D02*
X005888Y008527D01*
X005811Y008450D01*
X005658Y008450D01*
X005581Y008527D01*
X005658Y008680D02*
X005811Y008680D01*
X005888Y008603D01*
X005888Y008834D02*
X005811Y008910D01*
X005658Y008910D01*
X005581Y008834D01*
X005581Y008757D01*
X005658Y008680D01*
X005428Y008680D02*
X005121Y008680D01*
X005121Y008757D02*
X005121Y008450D01*
X004967Y008450D02*
X004967Y008910D01*
X005121Y008757D02*
X005274Y008910D01*
X005428Y008757D01*
X005428Y008450D01*
X004967Y008680D02*
X004660Y008680D01*
X004507Y008680D02*
X004507Y008834D01*
X004430Y008910D01*
X004200Y008910D01*
X004200Y008450D01*
X004200Y008603D02*
X004430Y008603D01*
X004507Y008680D01*
X004660Y008450D02*
X004660Y008910D01*
X004700Y009450D02*
X005007Y009450D01*
X005160Y009527D02*
X005237Y009450D01*
X005391Y009450D01*
X005467Y009527D01*
X005467Y009834D01*
X005391Y009910D01*
X005237Y009910D01*
X005160Y009834D01*
X005160Y009527D01*
X004700Y009450D02*
X004700Y009910D01*
X004774Y007910D02*
X004928Y007757D01*
X004928Y007450D01*
X005081Y007450D02*
X005311Y007450D01*
X005388Y007527D01*
X005388Y007603D01*
X005311Y007680D01*
X005081Y007680D01*
X004928Y007680D02*
X004621Y007680D01*
X004621Y007757D02*
X004774Y007910D01*
X004621Y007757D02*
X004621Y007450D01*
X004467Y007450D02*
X004467Y007910D01*
X004160Y007910D02*
X004467Y007450D01*
X004160Y007450D02*
X004160Y007910D01*
X004007Y007910D02*
X003700Y007910D01*
X003700Y007450D01*
X004007Y007450D01*
X003853Y007680D02*
X003700Y007680D01*
X005081Y007450D02*
X005081Y007910D01*
X005311Y007910D01*
X005388Y007834D01*
X005388Y007757D01*
X005311Y007680D01*
X005542Y007450D02*
X005848Y007450D01*
X006002Y007450D02*
X006309Y007450D01*
X006155Y007680D02*
X006002Y007680D01*
X006002Y007910D02*
X006002Y007450D01*
X006002Y007910D02*
X006309Y007910D01*
X005542Y007910D02*
X005542Y007450D01*
X005410Y014450D02*
X005717Y014450D01*
X005871Y014450D02*
X005871Y014910D01*
X006178Y014910D01*
X006024Y014680D02*
X005871Y014680D01*
X005717Y014910D02*
X005410Y014910D01*
X005410Y014450D01*
X005257Y014450D02*
X005103Y014603D01*
X005180Y014603D02*
X004950Y014603D01*
X004950Y014450D02*
X004950Y014910D01*
X005180Y014910D01*
X005257Y014834D01*
X005257Y014680D01*
X005180Y014603D01*
X005410Y014680D02*
X005564Y014680D01*
X005638Y015450D02*
X005408Y015680D01*
X005331Y015603D02*
X005638Y015910D01*
X005792Y015910D02*
X005792Y015450D01*
X006098Y015450D01*
X005945Y015680D02*
X005792Y015680D01*
X005792Y015910D02*
X006098Y015910D01*
X005331Y015910D02*
X005331Y015450D01*
X005178Y015450D02*
X005178Y015757D01*
X005024Y015910D01*
X004871Y015757D01*
X004871Y015450D01*
X004717Y015450D02*
X004564Y015603D01*
X004641Y015603D02*
X004410Y015603D01*
X004410Y015450D02*
X004410Y015910D01*
X004641Y015910D01*
X004717Y015834D01*
X004717Y015680D01*
X004641Y015603D01*
X004871Y015680D02*
X005178Y015680D01*
X004257Y015603D02*
X004257Y015527D01*
X004180Y015450D01*
X003950Y015450D01*
X003950Y015910D01*
X004180Y015910D01*
X004257Y015834D01*
X004257Y015757D01*
X004180Y015680D01*
X003950Y015680D01*
X004180Y015680D02*
X004257Y015603D01*
D12*
X015479Y006874D02*
X015479Y006347D01*
X015742Y006610D02*
X015215Y006610D01*
D13*
X013440Y007680D02*
X012920Y007680D01*
X012920Y008680D02*
X013440Y008680D01*
X013440Y009680D02*
X012920Y009680D01*
X012920Y010680D02*
X013440Y010680D01*
X013440Y011680D02*
X012920Y011680D01*
X012920Y012680D02*
X013440Y012680D01*
X013440Y013680D02*
X012920Y013680D01*
X012920Y014680D02*
X013440Y014680D01*
X010440Y014680D02*
X009920Y014680D01*
X009920Y013680D02*
X010440Y013680D01*
X010440Y012680D02*
X009920Y012680D01*
X009920Y011680D02*
X010440Y011680D01*
X010440Y010680D02*
X009920Y010680D01*
X009920Y009680D02*
X010440Y009680D01*
X010440Y008680D02*
X009920Y008680D01*
X009920Y007680D02*
X010440Y007680D01*
D14*
X016680Y006977D02*
X016680Y006383D01*
X017680Y006383D02*
X017680Y006977D01*
X017180Y015383D02*
X017180Y015977D01*
X018180Y015977D02*
X018180Y015383D01*
D15*
X016680Y013180D03*
X016680Y011680D03*
X016680Y010180D03*
X020680Y010180D03*
X020680Y011680D03*
X020680Y013180D03*
X008680Y011680D03*
X002680Y012180D03*
X008680Y016680D03*
D16*
X006680Y012180D03*
D17*
X007180Y003680D03*
X013180Y003680D03*
D18*
X005180Y003680D03*
X011180Y003680D03*
D19*
X015430Y012286D03*
X015430Y013074D03*
X007180Y014786D03*
X007180Y015574D03*
D20*
X006880Y009680D02*
X007480Y009680D01*
X007480Y008680D02*
X006880Y008680D01*
X006880Y007680D02*
X007480Y007680D01*
M02*
