G75*
%MOIN*%
%OFA0B0*%
%FSLAX24Y24*%
%IPPOS*%
%LPD*%
%AMOC8*
5,1,8,0,0,1.08239X$1,22.5*
%
%ADD10C,0.0000*%
%ADD11C,0.0060*%
%ADD12C,0.0050*%
%ADD13C,0.0100*%
%ADD14C,0.0040*%
%ADD15R,0.0340X0.0240*%
%ADD16C,0.0240*%
%ADD17R,0.0240X0.0340*%
%ADD18R,0.0200X0.0900*%
%ADD19C,0.0070*%
%ADD20R,0.0250X0.1000*%
%ADD21C,0.0080*%
%ADD22C,0.0010*%
D10*
X000180Y000180D02*
X000180Y017897D01*
X025239Y017897D01*
X025239Y000180D01*
X000180Y000180D01*
X001483Y001680D02*
X001485Y001707D01*
X001491Y001734D01*
X001500Y001760D01*
X001513Y001784D01*
X001529Y001807D01*
X001548Y001826D01*
X001570Y001843D01*
X001594Y001857D01*
X001619Y001867D01*
X001646Y001874D01*
X001673Y001877D01*
X001701Y001876D01*
X001728Y001871D01*
X001754Y001863D01*
X001778Y001851D01*
X001801Y001835D01*
X001822Y001817D01*
X001839Y001796D01*
X001854Y001772D01*
X001865Y001747D01*
X001873Y001721D01*
X001877Y001694D01*
X001877Y001666D01*
X001873Y001639D01*
X001865Y001613D01*
X001854Y001588D01*
X001839Y001564D01*
X001822Y001543D01*
X001801Y001525D01*
X001779Y001509D01*
X001754Y001497D01*
X001728Y001489D01*
X001701Y001484D01*
X001673Y001483D01*
X001646Y001486D01*
X001619Y001493D01*
X001594Y001503D01*
X001570Y001517D01*
X001548Y001534D01*
X001529Y001553D01*
X001513Y001576D01*
X001500Y001600D01*
X001491Y001626D01*
X001485Y001653D01*
X001483Y001680D01*
X001483Y016180D02*
X001485Y016207D01*
X001491Y016234D01*
X001500Y016260D01*
X001513Y016284D01*
X001529Y016307D01*
X001548Y016326D01*
X001570Y016343D01*
X001594Y016357D01*
X001619Y016367D01*
X001646Y016374D01*
X001673Y016377D01*
X001701Y016376D01*
X001728Y016371D01*
X001754Y016363D01*
X001778Y016351D01*
X001801Y016335D01*
X001822Y016317D01*
X001839Y016296D01*
X001854Y016272D01*
X001865Y016247D01*
X001873Y016221D01*
X001877Y016194D01*
X001877Y016166D01*
X001873Y016139D01*
X001865Y016113D01*
X001854Y016088D01*
X001839Y016064D01*
X001822Y016043D01*
X001801Y016025D01*
X001779Y016009D01*
X001754Y015997D01*
X001728Y015989D01*
X001701Y015984D01*
X001673Y015983D01*
X001646Y015986D01*
X001619Y015993D01*
X001594Y016003D01*
X001570Y016017D01*
X001548Y016034D01*
X001529Y016053D01*
X001513Y016076D01*
X001500Y016100D01*
X001491Y016126D01*
X001485Y016153D01*
X001483Y016180D01*
X022983Y016180D02*
X022985Y016207D01*
X022991Y016234D01*
X023000Y016260D01*
X023013Y016284D01*
X023029Y016307D01*
X023048Y016326D01*
X023070Y016343D01*
X023094Y016357D01*
X023119Y016367D01*
X023146Y016374D01*
X023173Y016377D01*
X023201Y016376D01*
X023228Y016371D01*
X023254Y016363D01*
X023278Y016351D01*
X023301Y016335D01*
X023322Y016317D01*
X023339Y016296D01*
X023354Y016272D01*
X023365Y016247D01*
X023373Y016221D01*
X023377Y016194D01*
X023377Y016166D01*
X023373Y016139D01*
X023365Y016113D01*
X023354Y016088D01*
X023339Y016064D01*
X023322Y016043D01*
X023301Y016025D01*
X023279Y016009D01*
X023254Y015997D01*
X023228Y015989D01*
X023201Y015984D01*
X023173Y015983D01*
X023146Y015986D01*
X023119Y015993D01*
X023094Y016003D01*
X023070Y016017D01*
X023048Y016034D01*
X023029Y016053D01*
X023013Y016076D01*
X023000Y016100D01*
X022991Y016126D01*
X022985Y016153D01*
X022983Y016180D01*
X023483Y001680D02*
X023485Y001707D01*
X023491Y001734D01*
X023500Y001760D01*
X023513Y001784D01*
X023529Y001807D01*
X023548Y001826D01*
X023570Y001843D01*
X023594Y001857D01*
X023619Y001867D01*
X023646Y001874D01*
X023673Y001877D01*
X023701Y001876D01*
X023728Y001871D01*
X023754Y001863D01*
X023778Y001851D01*
X023801Y001835D01*
X023822Y001817D01*
X023839Y001796D01*
X023854Y001772D01*
X023865Y001747D01*
X023873Y001721D01*
X023877Y001694D01*
X023877Y001666D01*
X023873Y001639D01*
X023865Y001613D01*
X023854Y001588D01*
X023839Y001564D01*
X023822Y001543D01*
X023801Y001525D01*
X023779Y001509D01*
X023754Y001497D01*
X023728Y001489D01*
X023701Y001484D01*
X023673Y001483D01*
X023646Y001486D01*
X023619Y001493D01*
X023594Y001503D01*
X023570Y001517D01*
X023548Y001534D01*
X023529Y001553D01*
X023513Y001576D01*
X023500Y001600D01*
X023491Y001626D01*
X023485Y001653D01*
X023483Y001680D01*
D11*
X014430Y003680D02*
X013930Y003680D01*
X014180Y003930D02*
X014180Y003430D01*
X012630Y003680D02*
X012530Y003680D01*
X012530Y003180D01*
X012280Y003180D01*
X012280Y004180D01*
X012530Y004180D01*
X012530Y003680D01*
X009430Y003680D02*
X009432Y003785D01*
X009438Y003889D01*
X009448Y003993D01*
X009462Y004097D01*
X009480Y004200D01*
X009501Y004303D01*
X009527Y004404D01*
X009557Y004505D01*
X009590Y004604D01*
X009627Y004702D01*
X009668Y004799D01*
X009712Y004893D01*
X009760Y004986D01*
X009812Y005078D01*
X009867Y005167D01*
X009925Y005254D01*
X009986Y005338D01*
X010051Y005421D01*
X010119Y005501D01*
X010190Y005578D01*
X010263Y005652D01*
X010340Y005724D01*
X010419Y005792D01*
X010501Y005858D01*
X010585Y005920D01*
X010671Y005979D01*
X010760Y006035D01*
X010851Y006087D01*
X010943Y006136D01*
X011038Y006181D01*
X011134Y006223D01*
X011231Y006261D01*
X011330Y006295D01*
X011430Y006326D01*
X011532Y006352D01*
X011634Y006375D01*
X011737Y006394D01*
X011841Y006409D01*
X011945Y006420D01*
X012049Y006427D01*
X012154Y006430D01*
X012259Y006429D01*
X012363Y006424D01*
X012467Y006415D01*
X012571Y006402D01*
X012675Y006385D01*
X012777Y006364D01*
X012879Y006340D01*
X012980Y006311D01*
X013079Y006279D01*
X013178Y006243D01*
X013275Y006203D01*
X013370Y006159D01*
X013463Y006112D01*
X013555Y006062D01*
X013645Y006007D01*
X013732Y005950D01*
X013818Y005889D01*
X013900Y005825D01*
X013981Y005758D01*
X014059Y005688D01*
X014134Y005615D01*
X014206Y005539D01*
X014275Y005461D01*
X014342Y005380D01*
X014405Y005296D01*
X014465Y005211D01*
X014521Y005122D01*
X014575Y005032D01*
X014624Y004940D01*
X014670Y004846D01*
X014713Y004750D01*
X014752Y004653D01*
X014787Y004555D01*
X014819Y004455D01*
X014846Y004354D01*
X014870Y004252D01*
X014890Y004149D01*
X014906Y004045D01*
X014918Y003941D01*
X014926Y003837D01*
X014930Y003732D01*
X014930Y003628D01*
X014926Y003523D01*
X014918Y003419D01*
X014906Y003315D01*
X014890Y003211D01*
X014870Y003108D01*
X014846Y003006D01*
X014819Y002905D01*
X014787Y002805D01*
X014752Y002707D01*
X014713Y002610D01*
X014670Y002514D01*
X014624Y002420D01*
X014575Y002328D01*
X014521Y002238D01*
X014465Y002149D01*
X014405Y002064D01*
X014342Y001980D01*
X014275Y001899D01*
X014206Y001821D01*
X014134Y001745D01*
X014059Y001672D01*
X013981Y001602D01*
X013900Y001535D01*
X013818Y001471D01*
X013732Y001410D01*
X013645Y001353D01*
X013555Y001298D01*
X013463Y001248D01*
X013370Y001201D01*
X013275Y001157D01*
X013178Y001117D01*
X013079Y001081D01*
X012980Y001049D01*
X012879Y001020D01*
X012777Y000996D01*
X012675Y000975D01*
X012571Y000958D01*
X012467Y000945D01*
X012363Y000936D01*
X012259Y000931D01*
X012154Y000930D01*
X012049Y000933D01*
X011945Y000940D01*
X011841Y000951D01*
X011737Y000966D01*
X011634Y000985D01*
X011532Y001008D01*
X011430Y001034D01*
X011330Y001065D01*
X011231Y001099D01*
X011134Y001137D01*
X011038Y001179D01*
X010943Y001224D01*
X010851Y001273D01*
X010760Y001325D01*
X010671Y001381D01*
X010585Y001440D01*
X010501Y001502D01*
X010419Y001568D01*
X010340Y001636D01*
X010263Y001708D01*
X010190Y001782D01*
X010119Y001859D01*
X010051Y001939D01*
X009986Y002022D01*
X009925Y002106D01*
X009867Y002193D01*
X009812Y002282D01*
X009760Y002374D01*
X009712Y002467D01*
X009668Y002561D01*
X009627Y002658D01*
X009590Y002756D01*
X009557Y002855D01*
X009527Y002956D01*
X009501Y003057D01*
X009480Y003160D01*
X009462Y003263D01*
X009448Y003367D01*
X009438Y003471D01*
X009432Y003575D01*
X009430Y003680D01*
X008430Y003680D02*
X007930Y003680D01*
X008180Y003930D02*
X008180Y003430D01*
X006630Y003680D02*
X006530Y003680D01*
X006530Y003180D01*
X006280Y003180D01*
X006280Y004180D01*
X006530Y004180D01*
X006530Y003680D01*
X003430Y003680D02*
X003432Y003785D01*
X003438Y003889D01*
X003448Y003993D01*
X003462Y004097D01*
X003480Y004200D01*
X003501Y004303D01*
X003527Y004404D01*
X003557Y004505D01*
X003590Y004604D01*
X003627Y004702D01*
X003668Y004799D01*
X003712Y004893D01*
X003760Y004986D01*
X003812Y005078D01*
X003867Y005167D01*
X003925Y005254D01*
X003986Y005338D01*
X004051Y005421D01*
X004119Y005501D01*
X004190Y005578D01*
X004263Y005652D01*
X004340Y005724D01*
X004419Y005792D01*
X004501Y005858D01*
X004585Y005920D01*
X004671Y005979D01*
X004760Y006035D01*
X004851Y006087D01*
X004943Y006136D01*
X005038Y006181D01*
X005134Y006223D01*
X005231Y006261D01*
X005330Y006295D01*
X005430Y006326D01*
X005532Y006352D01*
X005634Y006375D01*
X005737Y006394D01*
X005841Y006409D01*
X005945Y006420D01*
X006049Y006427D01*
X006154Y006430D01*
X006259Y006429D01*
X006363Y006424D01*
X006467Y006415D01*
X006571Y006402D01*
X006675Y006385D01*
X006777Y006364D01*
X006879Y006340D01*
X006980Y006311D01*
X007079Y006279D01*
X007178Y006243D01*
X007275Y006203D01*
X007370Y006159D01*
X007463Y006112D01*
X007555Y006062D01*
X007645Y006007D01*
X007732Y005950D01*
X007818Y005889D01*
X007900Y005825D01*
X007981Y005758D01*
X008059Y005688D01*
X008134Y005615D01*
X008206Y005539D01*
X008275Y005461D01*
X008342Y005380D01*
X008405Y005296D01*
X008465Y005211D01*
X008521Y005122D01*
X008575Y005032D01*
X008624Y004940D01*
X008670Y004846D01*
X008713Y004750D01*
X008752Y004653D01*
X008787Y004555D01*
X008819Y004455D01*
X008846Y004354D01*
X008870Y004252D01*
X008890Y004149D01*
X008906Y004045D01*
X008918Y003941D01*
X008926Y003837D01*
X008930Y003732D01*
X008930Y003628D01*
X008926Y003523D01*
X008918Y003419D01*
X008906Y003315D01*
X008890Y003211D01*
X008870Y003108D01*
X008846Y003006D01*
X008819Y002905D01*
X008787Y002805D01*
X008752Y002707D01*
X008713Y002610D01*
X008670Y002514D01*
X008624Y002420D01*
X008575Y002328D01*
X008521Y002238D01*
X008465Y002149D01*
X008405Y002064D01*
X008342Y001980D01*
X008275Y001899D01*
X008206Y001821D01*
X008134Y001745D01*
X008059Y001672D01*
X007981Y001602D01*
X007900Y001535D01*
X007818Y001471D01*
X007732Y001410D01*
X007645Y001353D01*
X007555Y001298D01*
X007463Y001248D01*
X007370Y001201D01*
X007275Y001157D01*
X007178Y001117D01*
X007079Y001081D01*
X006980Y001049D01*
X006879Y001020D01*
X006777Y000996D01*
X006675Y000975D01*
X006571Y000958D01*
X006467Y000945D01*
X006363Y000936D01*
X006259Y000931D01*
X006154Y000930D01*
X006049Y000933D01*
X005945Y000940D01*
X005841Y000951D01*
X005737Y000966D01*
X005634Y000985D01*
X005532Y001008D01*
X005430Y001034D01*
X005330Y001065D01*
X005231Y001099D01*
X005134Y001137D01*
X005038Y001179D01*
X004943Y001224D01*
X004851Y001273D01*
X004760Y001325D01*
X004671Y001381D01*
X004585Y001440D01*
X004501Y001502D01*
X004419Y001568D01*
X004340Y001636D01*
X004263Y001708D01*
X004190Y001782D01*
X004119Y001859D01*
X004051Y001939D01*
X003986Y002022D01*
X003925Y002106D01*
X003867Y002193D01*
X003812Y002282D01*
X003760Y002374D01*
X003712Y002467D01*
X003668Y002561D01*
X003627Y002658D01*
X003590Y002756D01*
X003557Y002855D01*
X003527Y002956D01*
X003501Y003057D01*
X003480Y003160D01*
X003462Y003263D01*
X003448Y003367D01*
X003438Y003471D01*
X003432Y003575D01*
X003430Y003680D01*
X005730Y003680D02*
X005930Y003680D01*
X006930Y007180D02*
X007430Y007180D01*
X007680Y007430D01*
X007680Y007930D01*
X007430Y008180D01*
X007680Y008430D01*
X007680Y008930D01*
X007430Y009180D01*
X007680Y009430D01*
X007680Y009930D01*
X007430Y010180D01*
X006930Y010180D01*
X006680Y009930D01*
X006680Y009430D01*
X006930Y009180D01*
X006680Y008930D01*
X006680Y008430D01*
X006930Y008180D01*
X006680Y007930D01*
X006680Y007430D01*
X006930Y007180D01*
X010530Y007180D02*
X012830Y007180D01*
X012830Y015180D01*
X012080Y015180D01*
X012078Y015141D01*
X012072Y015102D01*
X012063Y015064D01*
X012050Y015027D01*
X012033Y014991D01*
X012013Y014958D01*
X011989Y014926D01*
X011963Y014897D01*
X011934Y014871D01*
X011902Y014847D01*
X011869Y014827D01*
X011833Y014810D01*
X011796Y014797D01*
X011758Y014788D01*
X011719Y014782D01*
X011680Y014780D01*
X011641Y014782D01*
X011602Y014788D01*
X011564Y014797D01*
X011527Y014810D01*
X011491Y014827D01*
X011458Y014847D01*
X011426Y014871D01*
X011397Y014897D01*
X011371Y014926D01*
X011347Y014958D01*
X011327Y014991D01*
X011310Y015027D01*
X011297Y015064D01*
X011288Y015102D01*
X011282Y015141D01*
X011280Y015180D01*
X010530Y015180D01*
X010530Y007180D01*
X011730Y003680D02*
X011930Y003680D01*
X017530Y009730D02*
X017680Y009730D01*
X017730Y009780D01*
X019630Y009780D01*
X019680Y009730D01*
X019830Y009730D01*
X019847Y009732D01*
X019864Y009736D01*
X019880Y009743D01*
X019894Y009753D01*
X019907Y009766D01*
X019917Y009780D01*
X019924Y009796D01*
X019928Y009813D01*
X019930Y009830D01*
X019930Y010530D01*
X019928Y010547D01*
X019924Y010564D01*
X019917Y010580D01*
X019907Y010594D01*
X019894Y010607D01*
X019880Y010617D01*
X019864Y010624D01*
X019847Y010628D01*
X019830Y010630D01*
X019680Y010630D01*
X019630Y010580D01*
X017730Y010580D01*
X017680Y010630D01*
X017530Y010630D01*
X017513Y010628D01*
X017496Y010624D01*
X017480Y010617D01*
X017466Y010607D01*
X017453Y010594D01*
X017443Y010580D01*
X017436Y010564D01*
X017432Y010547D01*
X017430Y010530D01*
X017430Y009830D01*
X017432Y009813D01*
X017436Y009796D01*
X017443Y009780D01*
X017453Y009766D01*
X017466Y009753D01*
X017480Y009743D01*
X017496Y009736D01*
X017513Y009732D01*
X017530Y009730D01*
X017530Y011230D02*
X017680Y011230D01*
X017730Y011280D01*
X019630Y011280D01*
X019680Y011230D01*
X019830Y011230D01*
X019847Y011232D01*
X019864Y011236D01*
X019880Y011243D01*
X019894Y011253D01*
X019907Y011266D01*
X019917Y011280D01*
X019924Y011296D01*
X019928Y011313D01*
X019930Y011330D01*
X019930Y012030D01*
X019928Y012047D01*
X019924Y012064D01*
X019917Y012080D01*
X019907Y012094D01*
X019894Y012107D01*
X019880Y012117D01*
X019864Y012124D01*
X019847Y012128D01*
X019830Y012130D01*
X019680Y012130D01*
X019630Y012080D01*
X017730Y012080D01*
X017680Y012130D01*
X017530Y012130D01*
X017513Y012128D01*
X017496Y012124D01*
X017480Y012117D01*
X017466Y012107D01*
X017453Y012094D01*
X017443Y012080D01*
X017436Y012064D01*
X017432Y012047D01*
X017430Y012030D01*
X017430Y011330D01*
X017432Y011313D01*
X017436Y011296D01*
X017443Y011280D01*
X017453Y011266D01*
X017466Y011253D01*
X017480Y011243D01*
X017496Y011236D01*
X017513Y011232D01*
X017530Y011230D01*
X017530Y012730D02*
X017680Y012730D01*
X017730Y012780D01*
X019630Y012780D01*
X019680Y012730D01*
X019830Y012730D01*
X019847Y012732D01*
X019864Y012736D01*
X019880Y012743D01*
X019894Y012753D01*
X019907Y012766D01*
X019917Y012780D01*
X019924Y012796D01*
X019928Y012813D01*
X019930Y012830D01*
X019930Y013530D01*
X019928Y013547D01*
X019924Y013564D01*
X019917Y013580D01*
X019907Y013594D01*
X019894Y013607D01*
X019880Y013617D01*
X019864Y013624D01*
X019847Y013628D01*
X019830Y013630D01*
X019680Y013630D01*
X019630Y013580D01*
X017730Y013580D01*
X017680Y013630D01*
X017530Y013630D01*
X017513Y013628D01*
X017496Y013624D01*
X017480Y013617D01*
X017466Y013607D01*
X017453Y013594D01*
X017443Y013580D01*
X017436Y013564D01*
X017432Y013547D01*
X017430Y013530D01*
X017430Y012830D01*
X017432Y012813D01*
X017436Y012796D01*
X017443Y012780D01*
X017453Y012766D01*
X017466Y012753D01*
X017480Y012743D01*
X017496Y012736D01*
X017513Y012732D01*
X017530Y012730D01*
X009130Y013030D02*
X009130Y013180D01*
X009080Y013230D01*
X009080Y015130D01*
X009130Y015180D01*
X009130Y015330D01*
X009128Y015347D01*
X009124Y015364D01*
X009117Y015380D01*
X009107Y015394D01*
X009094Y015407D01*
X009080Y015417D01*
X009064Y015424D01*
X009047Y015428D01*
X009030Y015430D01*
X008330Y015430D01*
X008313Y015428D01*
X008296Y015424D01*
X008280Y015417D01*
X008266Y015407D01*
X008253Y015394D01*
X008243Y015380D01*
X008236Y015364D01*
X008232Y015347D01*
X008230Y015330D01*
X008230Y015180D01*
X008280Y015130D01*
X008280Y013230D01*
X008230Y013180D01*
X008230Y013030D01*
X008232Y013013D01*
X008236Y012996D01*
X008243Y012980D01*
X008253Y012966D01*
X008266Y012953D01*
X008280Y012943D01*
X008296Y012936D01*
X008313Y012932D01*
X008330Y012930D01*
X009030Y012930D01*
X009047Y012932D01*
X009064Y012936D01*
X009080Y012943D01*
X009094Y012953D01*
X009107Y012966D01*
X009117Y012980D01*
X009124Y012996D01*
X009128Y013013D01*
X009130Y013030D01*
X007280Y012780D02*
X007280Y011580D01*
X006980Y011580D01*
X006980Y010680D01*
X002380Y010680D01*
X002380Y011880D01*
X002380Y012480D02*
X002380Y013680D01*
X006980Y013680D01*
X006980Y012780D01*
X007280Y012780D01*
X006130Y012180D02*
X004980Y012180D01*
X004980Y012610D01*
X004780Y012610D01*
X004780Y011750D01*
X004980Y011750D01*
X004980Y012180D01*
X005200Y011930D02*
X005450Y011930D01*
X005330Y012050D02*
X005330Y011800D01*
X004480Y012180D02*
X003230Y012180D01*
D12*
X006084Y010480D02*
X006084Y010180D01*
X006159Y010105D01*
X006309Y010105D01*
X006384Y010180D01*
X006545Y010105D02*
X006845Y010105D01*
X006695Y010105D02*
X006695Y010555D01*
X006545Y010405D01*
X006384Y010480D02*
X006309Y010555D01*
X006159Y010555D01*
X006084Y010480D01*
X006955Y010395D02*
X007405Y010395D01*
X007405Y010245D02*
X007405Y010545D01*
X007105Y010245D02*
X006955Y010395D01*
X007855Y009895D02*
X008305Y009895D01*
X008305Y009745D02*
X008305Y010045D01*
X008005Y009745D02*
X007855Y009895D01*
X007855Y009584D02*
X008155Y009584D01*
X008305Y009434D01*
X008155Y009284D01*
X007855Y009284D01*
X007930Y009124D02*
X007855Y009049D01*
X007855Y008899D01*
X007930Y008824D01*
X008005Y008824D01*
X008080Y008899D01*
X008080Y009049D01*
X008155Y009124D01*
X008230Y009124D01*
X008305Y009049D01*
X008305Y008899D01*
X008230Y008824D01*
X008105Y012955D02*
X007655Y012955D01*
X007655Y013180D01*
X007730Y013255D01*
X007880Y013255D01*
X007955Y013180D01*
X007955Y012955D01*
X007955Y013105D02*
X008105Y013255D01*
X008105Y013415D02*
X007805Y013716D01*
X007730Y013716D01*
X007655Y013641D01*
X007655Y013490D01*
X007730Y013415D01*
X008105Y013415D02*
X008105Y013716D01*
X010555Y015355D02*
X010705Y015355D01*
X010630Y015355D02*
X010630Y015805D01*
X010555Y015805D02*
X010705Y015805D01*
X010862Y015730D02*
X010862Y015430D01*
X010937Y015355D01*
X011087Y015355D01*
X011162Y015430D01*
X011322Y015355D02*
X011623Y015355D01*
X011472Y015355D02*
X011472Y015805D01*
X011322Y015655D01*
X011162Y015730D02*
X011087Y015805D01*
X010937Y015805D01*
X010862Y015730D01*
X017505Y014255D02*
X017505Y013805D01*
X017505Y013955D02*
X017730Y013955D01*
X017805Y014030D01*
X017805Y014180D01*
X017730Y014255D01*
X017505Y014255D01*
X017655Y013955D02*
X017805Y013805D01*
X017965Y014030D02*
X018266Y014030D01*
X018191Y013805D02*
X018191Y014255D01*
X017965Y014030D01*
X018040Y012755D02*
X017965Y012680D01*
X018040Y012755D02*
X018191Y012755D01*
X018266Y012680D01*
X018266Y012605D01*
X018191Y012530D01*
X018266Y012455D01*
X018266Y012380D01*
X018191Y012305D01*
X018040Y012305D01*
X017965Y012380D01*
X017805Y012305D02*
X017655Y012455D01*
X017730Y012455D02*
X017505Y012455D01*
X017505Y012305D02*
X017505Y012755D01*
X017730Y012755D01*
X017805Y012680D01*
X017805Y012530D01*
X017730Y012455D01*
X018116Y012530D02*
X018191Y012530D01*
X018116Y011255D02*
X018116Y010805D01*
X018266Y010805D02*
X017965Y010805D01*
X017805Y010805D02*
X017655Y010955D01*
X017730Y010955D02*
X017505Y010955D01*
X017505Y010805D02*
X017505Y011255D01*
X017730Y011255D01*
X017805Y011180D01*
X017805Y011030D01*
X017730Y010955D01*
X017965Y011105D02*
X018116Y011255D01*
D13*
X018680Y014430D02*
X016680Y014430D01*
X016680Y015180D01*
X018680Y015180D01*
X018680Y014430D01*
X018680Y015180D02*
X018680Y016930D01*
X016680Y016930D01*
X016680Y015180D01*
X016180Y007930D02*
X016180Y007180D01*
X018180Y007180D01*
X018180Y005430D01*
X016180Y005430D01*
X016180Y007180D01*
X016180Y007930D02*
X018180Y007930D01*
X018180Y007180D01*
D14*
X016809Y008200D02*
X016568Y008200D01*
X016809Y008440D01*
X016809Y008500D01*
X016748Y008560D01*
X016628Y008560D01*
X016568Y008500D01*
X016440Y008560D02*
X016200Y008200D01*
X016440Y008200D02*
X016200Y008560D01*
X015896Y011200D02*
X015743Y011200D01*
X015666Y011277D01*
X015513Y011200D02*
X015206Y011660D01*
X015513Y011660D02*
X015206Y011200D01*
X015666Y011584D02*
X015743Y011660D01*
X015896Y011660D01*
X015973Y011584D01*
X015973Y011507D01*
X015896Y011430D01*
X015973Y011353D01*
X015973Y011277D01*
X015896Y011200D01*
X015896Y011430D02*
X015820Y011430D01*
X017963Y013800D02*
X018204Y014160D01*
X018332Y014040D02*
X018452Y014160D01*
X018452Y013800D01*
X018332Y013800D02*
X018572Y013800D01*
X018204Y013800D02*
X017963Y014160D01*
X007291Y016430D02*
X006984Y016430D01*
X007214Y016660D01*
X007214Y016200D01*
X006830Y016200D02*
X006523Y016660D01*
X006830Y016660D02*
X006523Y016200D01*
D15*
X017260Y013180D03*
X017260Y011680D03*
X017260Y010180D03*
X020100Y010180D03*
X020100Y011680D03*
X020100Y013180D03*
D16*
X008680Y012580D02*
X008680Y012430D01*
X008680Y015780D02*
X008680Y015930D01*
D17*
X008680Y016100D03*
X008680Y015600D03*
X008680Y012760D03*
X008680Y012260D03*
D18*
X004480Y012180D03*
D19*
X003376Y002026D02*
X003166Y002026D01*
X003060Y001920D01*
X002836Y001920D02*
X002731Y002026D01*
X002521Y002026D01*
X002416Y001920D01*
X002416Y001500D01*
X002521Y001395D01*
X002731Y001395D01*
X002836Y001500D01*
X003060Y001500D02*
X003166Y001395D01*
X003376Y001395D01*
X003481Y001500D01*
X003481Y001605D01*
X003376Y001710D01*
X003271Y001710D01*
X003376Y001710D02*
X003481Y001815D01*
X003481Y001920D01*
X003376Y002026D01*
X008416Y001920D02*
X008416Y001500D01*
X008521Y001395D01*
X008731Y001395D01*
X008836Y001500D01*
X009060Y001395D02*
X009481Y001815D01*
X009481Y001920D01*
X009376Y002026D01*
X009166Y002026D01*
X009060Y001920D01*
X008836Y001920D02*
X008731Y002026D01*
X008521Y002026D01*
X008416Y001920D01*
X009060Y001395D02*
X009481Y001395D01*
D20*
X011955Y003680D03*
X005955Y003680D03*
D21*
X015095Y011932D02*
X015095Y012523D01*
X015096Y012523D02*
X015117Y012535D01*
X015136Y012550D01*
X015154Y012567D01*
X015168Y012587D01*
X015180Y012609D01*
X015188Y012632D01*
X015193Y012656D01*
X015195Y012680D01*
X015193Y012704D01*
X015188Y012728D01*
X015180Y012751D01*
X015168Y012773D01*
X015154Y012793D01*
X015136Y012810D01*
X015117Y012825D01*
X015096Y012837D01*
X015095Y012837D02*
X015095Y013428D01*
X015765Y013428D01*
X015765Y012837D01*
X015764Y012837D02*
X015743Y012825D01*
X015724Y012810D01*
X015706Y012793D01*
X015692Y012773D01*
X015680Y012751D01*
X015672Y012728D01*
X015667Y012704D01*
X015665Y012680D01*
X015667Y012656D01*
X015672Y012632D01*
X015680Y012609D01*
X015692Y012587D01*
X015706Y012567D01*
X015724Y012550D01*
X015743Y012535D01*
X015764Y012523D01*
X015765Y012523D02*
X015765Y011932D01*
X015095Y011932D01*
X007515Y014432D02*
X007515Y015023D01*
X007514Y015023D02*
X007493Y015035D01*
X007474Y015050D01*
X007456Y015067D01*
X007442Y015087D01*
X007430Y015109D01*
X007422Y015132D01*
X007417Y015156D01*
X007415Y015180D01*
X007417Y015204D01*
X007422Y015228D01*
X007430Y015251D01*
X007442Y015273D01*
X007456Y015293D01*
X007474Y015310D01*
X007493Y015325D01*
X007514Y015337D01*
X007515Y015337D02*
X007515Y015928D01*
X006845Y015928D01*
X006845Y015337D01*
X006846Y015337D02*
X006867Y015325D01*
X006886Y015310D01*
X006904Y015293D01*
X006918Y015273D01*
X006930Y015251D01*
X006938Y015228D01*
X006943Y015204D01*
X006945Y015180D01*
X006943Y015156D01*
X006938Y015132D01*
X006930Y015109D01*
X006918Y015087D01*
X006904Y015067D01*
X006886Y015050D01*
X006867Y015035D01*
X006846Y015023D01*
X006845Y015023D02*
X006845Y014432D01*
X007515Y014432D01*
D22*
X007404Y015754D02*
X007330Y015754D01*
X007367Y015754D02*
X007367Y015864D01*
X007330Y015827D01*
X015179Y012069D02*
X015216Y012106D01*
X015216Y011996D01*
X015252Y011996D02*
X015179Y011996D01*
M02*
